M48
; DRILL file {KiCad 5.1.6-c6e7f7d~86~ubuntu16.04.1} date Tue Jan 12 06:27:09 2021
; FORMAT={-:-/ absolute / inch / decimal}
; #@! TF.CreationDate,2021-01-12T06:27:09+00:00
; #@! TF.GenerationSoftware,Kicad,Pcbnew,5.1.6-c6e7f7d~86~ubuntu16.04.1
; #@! TF.FileFunction,Plated,1,2,PTH
FMAT,2
INCH
T1C0.0157
T2C0.0300
T3C0.0394
%
G90
G05
T1
X0.2933Y-1.6988
X0.2933Y-2.2989
X0.3051Y-2.3563
X0.3307Y-2.2008
X0.333Y-2.3878
X0.3701Y-2.1004
X0.372Y-2.4055
X0.4043Y-2.4281
X0.4055Y-1.8012
X0.4665Y-1.8583
X0.5669Y-1.8406
X0.6713Y-2.4941
X0.685Y-2.1122
X0.8317Y-2.672
X0.8327Y-1.8996
X0.8602Y-2.0
X0.8602Y-2.7047
X0.8937Y-3.0591
X0.8976Y-1.6909
X1.0Y-3.6693
X1.0157Y-3.5591
X1.0531Y-2.0984
X1.0787Y-1.8957
X1.0925Y-3.5305
X1.1398Y-2.4961
X1.2598Y-3.6457
X1.2835Y-2.5335
X1.2894Y-2.202
X1.3248Y-2.2219
X1.3346Y-1.9547
X1.3533Y-2.1476
X1.3642Y-3.8937
X1.376Y-2.5354
X1.4276Y-2.8027
X1.4843Y-2.1181
X1.4961Y-2.2047
X1.5Y-2.248
X1.5Y-3.685
X1.5048Y-2.3275
X1.5256Y-1.9646
X1.5281Y-2.3592
X1.5353Y-2.271
X1.5587Y-2.3841
X1.5704Y-2.253
X1.5748Y-3.4724
X1.5818Y-2.4159
X1.6014Y-3.374
X1.6043Y-2.0551
X1.6211Y-3.1693
X1.622Y-2.2087
X1.6496Y-3.2677
X1.6588Y-1.9961
X1.6594Y-2.3356
X1.6604Y-2.7106
X1.6903Y-2.685
X1.6929Y-2.0157
X1.7028Y-2.2244
X1.7165Y-2.6476
X1.7323Y-1.9587
X1.7411Y-2.7217
X1.7608Y-2.7559
X1.7913Y-2.8031
X1.7943Y-2.3949
X1.813Y-2.0443
X1.8189Y-2.3642
X1.8366Y-2.6811
X1.8465Y-3.5837
X1.8819Y-3.6457
X1.9134Y-3.6123
X1.9409Y-3.7087
X1.9469Y-2.251
X1.973Y-3.6659
X2.0315Y-2.0846
X2.0551Y-2.3169
X2.0709Y-3.8425
X2.0735Y-2.2821
X2.0787Y-2.2362
X2.0906Y-2.0118
X2.1063Y-3.5906
X2.1298Y-2.0092
X2.1358Y-3.5553
X2.2126Y-1.6378
X2.2874Y-2.1654
X2.2992Y-2.0197
X2.3189Y-2.1004
X2.4331Y-1.8327
X2.4882Y-1.7008
X2.5079Y-1.8445
X2.5098Y-2.0965
X2.6102Y-1.7008
T2
X1.3701Y-2.9724
X1.3701Y-3.0724
X1.3701Y-3.1724
X1.3701Y-3.2724
X1.3701Y-3.3724
X1.3701Y-3.4724
T3
X0.4244Y-2.748
X0.5244Y-2.748
X0.6244Y-2.748
X0.7244Y-2.748
X0.3701Y-1.4689
X0.4701Y-1.4689
X0.5701Y-1.4689
X0.6701Y-1.4689
X1.85Y-3.8
X1.95Y-3.8
X1.5Y-3.8
X1.6Y-3.8
X0.15Y-1.5
X0.15Y-1.6
X0.15Y-1.7
X0.15Y-1.8
X0.15Y-1.9
X0.15Y-2.0
X0.15Y-2.1
X0.15Y-2.2
X0.15Y-2.3
X0.15Y-2.4
X0.1063Y-3.815
X0.2063Y-3.815
X0.3063Y-3.815
X2.1988Y-1.4567
X2.2988Y-1.4567
X2.3988Y-1.4567
X1.1571Y-1.7638
X1.2571Y-1.7638
X1.3571Y-1.7638
X1.4571Y-1.7638
X1.5571Y-1.7638
X0.4244Y-2.6441
X0.5244Y-2.6441
X0.6244Y-2.6441
X0.7244Y-2.6441
T0
M30
