%TF.GenerationSoftware,KiCad,Pcbnew,5.1.6-c6e7f7d~86~ubuntu16.04.1*%
%TF.CreationDate,2021-01-12T06:27:11+00:00*%
%TF.ProjectId,fx502p-minimal-sd,66783530-3270-42d6-9d69-6e696d616c2d,rev?*%
%TF.SameCoordinates,Original*%
%TF.FileFunction,Soldermask,Top*%
%TF.FilePolarity,Negative*%
%FSLAX46Y46*%
G04 Gerber Fmt 4.6, Leading zero omitted, Abs format (unit mm)*
G04 Created by KiCad (PCBNEW 5.1.6-c6e7f7d~86~ubuntu16.04.1) date 2021-01-12 06:27:11*
%MOMM*%
%LPD*%
G01*
G04 APERTURE LIST*
%ADD10O,1.800000X1.800000*%
%ADD11R,1.800000X1.800000*%
%ADD12C,0.100000*%
%ADD13R,2.100000X7.975000*%
%ADD14R,1.600000X2.100000*%
%ADD15R,3.900000X2.100000*%
%ADD16R,1.100000X1.300000*%
%ADD17R,1.624000X4.100000*%
%ADD18C,1.624000*%
%ADD19R,1.624000X1.624000*%
G04 APERTURE END LIST*
D10*
%TO.C,J7*%
X3810000Y-60960000D03*
X3810000Y-58420000D03*
X3810000Y-55880000D03*
X3810000Y-53340000D03*
X3810000Y-50800000D03*
X3810000Y-48260000D03*
X3810000Y-45720000D03*
X3810000Y-43180000D03*
X3810000Y-40640000D03*
D11*
X3810000Y-38100000D03*
%TD*%
%TO.C,R11*%
G36*
G01*
X58700000Y-45381250D02*
X58700000Y-44418750D01*
G75*
G02*
X58968750Y-44150000I268750J0D01*
G01*
X59506250Y-44150000D01*
G75*
G02*
X59775000Y-44418750I0J-268750D01*
G01*
X59775000Y-45381250D01*
G75*
G02*
X59506250Y-45650000I-268750J0D01*
G01*
X58968750Y-45650000D01*
G75*
G02*
X58700000Y-45381250I0J268750D01*
G01*
G37*
G36*
G01*
X56825000Y-45381250D02*
X56825000Y-44418750D01*
G75*
G02*
X57093750Y-44150000I268750J0D01*
G01*
X57631250Y-44150000D01*
G75*
G02*
X57900000Y-44418750I0J-268750D01*
G01*
X57900000Y-45381250D01*
G75*
G02*
X57631250Y-45650000I-268750J0D01*
G01*
X57093750Y-45650000D01*
G75*
G02*
X56825000Y-45381250I0J268750D01*
G01*
G37*
%TD*%
%TO.C,R10*%
G36*
G01*
X58900000Y-41981250D02*
X58900000Y-41018750D01*
G75*
G02*
X59168750Y-40750000I268750J0D01*
G01*
X59706250Y-40750000D01*
G75*
G02*
X59975000Y-41018750I0J-268750D01*
G01*
X59975000Y-41981250D01*
G75*
G02*
X59706250Y-42250000I-268750J0D01*
G01*
X59168750Y-42250000D01*
G75*
G02*
X58900000Y-41981250I0J268750D01*
G01*
G37*
G36*
G01*
X57025000Y-41981250D02*
X57025000Y-41018750D01*
G75*
G02*
X57293750Y-40750000I268750J0D01*
G01*
X57831250Y-40750000D01*
G75*
G02*
X58100000Y-41018750I0J-268750D01*
G01*
X58100000Y-41981250D01*
G75*
G02*
X57831250Y-42250000I-268750J0D01*
G01*
X57293750Y-42250000D01*
G75*
G02*
X57025000Y-41981250I0J268750D01*
G01*
G37*
%TD*%
D12*
%TO.C,JP4*%
G36*
X61643889Y-42399398D02*
G01*
X61625466Y-42399398D01*
X61620565Y-42399157D01*
X61571734Y-42394347D01*
X61566881Y-42393627D01*
X61518756Y-42384055D01*
X61513995Y-42382863D01*
X61467040Y-42368619D01*
X61462421Y-42366966D01*
X61417088Y-42348189D01*
X61412651Y-42346091D01*
X61369378Y-42322960D01*
X61365171Y-42320438D01*
X61324372Y-42293178D01*
X61320430Y-42290254D01*
X61282501Y-42259126D01*
X61278866Y-42255831D01*
X61244169Y-42221134D01*
X61240874Y-42217499D01*
X61209746Y-42179570D01*
X61206822Y-42175628D01*
X61179562Y-42134829D01*
X61177040Y-42130622D01*
X61153909Y-42087349D01*
X61151811Y-42082912D01*
X61133034Y-42037579D01*
X61131381Y-42032960D01*
X61117137Y-41986005D01*
X61115945Y-41981244D01*
X61106373Y-41933119D01*
X61105653Y-41928266D01*
X61100843Y-41879435D01*
X61100602Y-41874534D01*
X61100602Y-41856111D01*
X61100000Y-41850000D01*
X61100000Y-41350000D01*
X61100602Y-41343889D01*
X61100602Y-41325466D01*
X61100843Y-41320565D01*
X61105653Y-41271734D01*
X61106373Y-41266881D01*
X61115945Y-41218756D01*
X61117137Y-41213995D01*
X61131381Y-41167040D01*
X61133034Y-41162421D01*
X61151811Y-41117088D01*
X61153909Y-41112651D01*
X61177040Y-41069378D01*
X61179562Y-41065171D01*
X61206822Y-41024372D01*
X61209746Y-41020430D01*
X61240874Y-40982501D01*
X61244169Y-40978866D01*
X61278866Y-40944169D01*
X61282501Y-40940874D01*
X61320430Y-40909746D01*
X61324372Y-40906822D01*
X61365171Y-40879562D01*
X61369378Y-40877040D01*
X61412651Y-40853909D01*
X61417088Y-40851811D01*
X61462421Y-40833034D01*
X61467040Y-40831381D01*
X61513995Y-40817137D01*
X61518756Y-40815945D01*
X61566881Y-40806373D01*
X61571734Y-40805653D01*
X61620565Y-40800843D01*
X61625466Y-40800602D01*
X61643889Y-40800602D01*
X61650000Y-40800000D01*
X62150000Y-40800000D01*
X62159755Y-40800961D01*
X62169134Y-40803806D01*
X62177779Y-40808427D01*
X62185355Y-40814645D01*
X62191573Y-40822221D01*
X62196194Y-40830866D01*
X62199039Y-40840245D01*
X62200000Y-40850000D01*
X62200000Y-42350000D01*
X62199039Y-42359755D01*
X62196194Y-42369134D01*
X62191573Y-42377779D01*
X62185355Y-42385355D01*
X62177779Y-42391573D01*
X62169134Y-42396194D01*
X62159755Y-42399039D01*
X62150000Y-42400000D01*
X61650000Y-42400000D01*
X61643889Y-42399398D01*
G37*
G36*
X62440245Y-42399039D02*
G01*
X62430866Y-42396194D01*
X62422221Y-42391573D01*
X62414645Y-42385355D01*
X62408427Y-42377779D01*
X62403806Y-42369134D01*
X62400961Y-42359755D01*
X62400000Y-42350000D01*
X62400000Y-40850000D01*
X62400961Y-40840245D01*
X62403806Y-40830866D01*
X62408427Y-40822221D01*
X62414645Y-40814645D01*
X62422221Y-40808427D01*
X62430866Y-40803806D01*
X62440245Y-40800961D01*
X62450000Y-40800000D01*
X62950000Y-40800000D01*
X62956111Y-40800602D01*
X62974534Y-40800602D01*
X62979435Y-40800843D01*
X63028266Y-40805653D01*
X63033119Y-40806373D01*
X63081244Y-40815945D01*
X63086005Y-40817137D01*
X63132960Y-40831381D01*
X63137579Y-40833034D01*
X63182912Y-40851811D01*
X63187349Y-40853909D01*
X63230622Y-40877040D01*
X63234829Y-40879562D01*
X63275628Y-40906822D01*
X63279570Y-40909746D01*
X63317499Y-40940874D01*
X63321134Y-40944169D01*
X63355831Y-40978866D01*
X63359126Y-40982501D01*
X63390254Y-41020430D01*
X63393178Y-41024372D01*
X63420438Y-41065171D01*
X63422960Y-41069378D01*
X63446091Y-41112651D01*
X63448189Y-41117088D01*
X63466966Y-41162421D01*
X63468619Y-41167040D01*
X63482863Y-41213995D01*
X63484055Y-41218756D01*
X63493627Y-41266881D01*
X63494347Y-41271734D01*
X63499157Y-41320565D01*
X63499398Y-41325466D01*
X63499398Y-41343889D01*
X63500000Y-41350000D01*
X63500000Y-41850000D01*
X63499398Y-41856111D01*
X63499398Y-41874534D01*
X63499157Y-41879435D01*
X63494347Y-41928266D01*
X63493627Y-41933119D01*
X63484055Y-41981244D01*
X63482863Y-41986005D01*
X63468619Y-42032960D01*
X63466966Y-42037579D01*
X63448189Y-42082912D01*
X63446091Y-42087349D01*
X63422960Y-42130622D01*
X63420438Y-42134829D01*
X63393178Y-42175628D01*
X63390254Y-42179570D01*
X63359126Y-42217499D01*
X63355831Y-42221134D01*
X63321134Y-42255831D01*
X63317499Y-42259126D01*
X63279570Y-42290254D01*
X63275628Y-42293178D01*
X63234829Y-42320438D01*
X63230622Y-42322960D01*
X63187349Y-42346091D01*
X63182912Y-42348189D01*
X63137579Y-42366966D01*
X63132960Y-42368619D01*
X63086005Y-42382863D01*
X63081244Y-42384055D01*
X63033119Y-42393627D01*
X63028266Y-42394347D01*
X62979435Y-42399157D01*
X62974534Y-42399398D01*
X62956111Y-42399398D01*
X62950000Y-42400000D01*
X62450000Y-42400000D01*
X62440245Y-42399039D01*
G37*
%TD*%
%TO.C,JP3*%
G36*
X61643889Y-45699398D02*
G01*
X61625466Y-45699398D01*
X61620565Y-45699157D01*
X61571734Y-45694347D01*
X61566881Y-45693627D01*
X61518756Y-45684055D01*
X61513995Y-45682863D01*
X61467040Y-45668619D01*
X61462421Y-45666966D01*
X61417088Y-45648189D01*
X61412651Y-45646091D01*
X61369378Y-45622960D01*
X61365171Y-45620438D01*
X61324372Y-45593178D01*
X61320430Y-45590254D01*
X61282501Y-45559126D01*
X61278866Y-45555831D01*
X61244169Y-45521134D01*
X61240874Y-45517499D01*
X61209746Y-45479570D01*
X61206822Y-45475628D01*
X61179562Y-45434829D01*
X61177040Y-45430622D01*
X61153909Y-45387349D01*
X61151811Y-45382912D01*
X61133034Y-45337579D01*
X61131381Y-45332960D01*
X61117137Y-45286005D01*
X61115945Y-45281244D01*
X61106373Y-45233119D01*
X61105653Y-45228266D01*
X61100843Y-45179435D01*
X61100602Y-45174534D01*
X61100602Y-45156111D01*
X61100000Y-45150000D01*
X61100000Y-44650000D01*
X61100602Y-44643889D01*
X61100602Y-44625466D01*
X61100843Y-44620565D01*
X61105653Y-44571734D01*
X61106373Y-44566881D01*
X61115945Y-44518756D01*
X61117137Y-44513995D01*
X61131381Y-44467040D01*
X61133034Y-44462421D01*
X61151811Y-44417088D01*
X61153909Y-44412651D01*
X61177040Y-44369378D01*
X61179562Y-44365171D01*
X61206822Y-44324372D01*
X61209746Y-44320430D01*
X61240874Y-44282501D01*
X61244169Y-44278866D01*
X61278866Y-44244169D01*
X61282501Y-44240874D01*
X61320430Y-44209746D01*
X61324372Y-44206822D01*
X61365171Y-44179562D01*
X61369378Y-44177040D01*
X61412651Y-44153909D01*
X61417088Y-44151811D01*
X61462421Y-44133034D01*
X61467040Y-44131381D01*
X61513995Y-44117137D01*
X61518756Y-44115945D01*
X61566881Y-44106373D01*
X61571734Y-44105653D01*
X61620565Y-44100843D01*
X61625466Y-44100602D01*
X61643889Y-44100602D01*
X61650000Y-44100000D01*
X62150000Y-44100000D01*
X62159755Y-44100961D01*
X62169134Y-44103806D01*
X62177779Y-44108427D01*
X62185355Y-44114645D01*
X62191573Y-44122221D01*
X62196194Y-44130866D01*
X62199039Y-44140245D01*
X62200000Y-44150000D01*
X62200000Y-45650000D01*
X62199039Y-45659755D01*
X62196194Y-45669134D01*
X62191573Y-45677779D01*
X62185355Y-45685355D01*
X62177779Y-45691573D01*
X62169134Y-45696194D01*
X62159755Y-45699039D01*
X62150000Y-45700000D01*
X61650000Y-45700000D01*
X61643889Y-45699398D01*
G37*
G36*
X62440245Y-45699039D02*
G01*
X62430866Y-45696194D01*
X62422221Y-45691573D01*
X62414645Y-45685355D01*
X62408427Y-45677779D01*
X62403806Y-45669134D01*
X62400961Y-45659755D01*
X62400000Y-45650000D01*
X62400000Y-44150000D01*
X62400961Y-44140245D01*
X62403806Y-44130866D01*
X62408427Y-44122221D01*
X62414645Y-44114645D01*
X62422221Y-44108427D01*
X62430866Y-44103806D01*
X62440245Y-44100961D01*
X62450000Y-44100000D01*
X62950000Y-44100000D01*
X62956111Y-44100602D01*
X62974534Y-44100602D01*
X62979435Y-44100843D01*
X63028266Y-44105653D01*
X63033119Y-44106373D01*
X63081244Y-44115945D01*
X63086005Y-44117137D01*
X63132960Y-44131381D01*
X63137579Y-44133034D01*
X63182912Y-44151811D01*
X63187349Y-44153909D01*
X63230622Y-44177040D01*
X63234829Y-44179562D01*
X63275628Y-44206822D01*
X63279570Y-44209746D01*
X63317499Y-44240874D01*
X63321134Y-44244169D01*
X63355831Y-44278866D01*
X63359126Y-44282501D01*
X63390254Y-44320430D01*
X63393178Y-44324372D01*
X63420438Y-44365171D01*
X63422960Y-44369378D01*
X63446091Y-44412651D01*
X63448189Y-44417088D01*
X63466966Y-44462421D01*
X63468619Y-44467040D01*
X63482863Y-44513995D01*
X63484055Y-44518756D01*
X63493627Y-44566881D01*
X63494347Y-44571734D01*
X63499157Y-44620565D01*
X63499398Y-44625466D01*
X63499398Y-44643889D01*
X63500000Y-44650000D01*
X63500000Y-45150000D01*
X63499398Y-45156111D01*
X63499398Y-45174534D01*
X63499157Y-45179435D01*
X63494347Y-45228266D01*
X63493627Y-45233119D01*
X63484055Y-45281244D01*
X63482863Y-45286005D01*
X63468619Y-45332960D01*
X63466966Y-45337579D01*
X63448189Y-45382912D01*
X63446091Y-45387349D01*
X63422960Y-45430622D01*
X63420438Y-45434829D01*
X63393178Y-45475628D01*
X63390254Y-45479570D01*
X63359126Y-45517499D01*
X63355831Y-45521134D01*
X63321134Y-45555831D01*
X63317499Y-45559126D01*
X63279570Y-45590254D01*
X63275628Y-45593178D01*
X63234829Y-45620438D01*
X63230622Y-45622960D01*
X63187349Y-45646091D01*
X63182912Y-45648189D01*
X63137579Y-45666966D01*
X63132960Y-45668619D01*
X63086005Y-45682863D01*
X63081244Y-45684055D01*
X63033119Y-45693627D01*
X63028266Y-45694347D01*
X62979435Y-45699157D01*
X62974534Y-45699398D01*
X62956111Y-45699398D01*
X62950000Y-45700000D01*
X62450000Y-45700000D01*
X62440245Y-45699039D01*
G37*
%TD*%
%TO.C,JP2*%
G36*
X65243889Y-42399398D02*
G01*
X65225466Y-42399398D01*
X65220565Y-42399157D01*
X65171734Y-42394347D01*
X65166881Y-42393627D01*
X65118756Y-42384055D01*
X65113995Y-42382863D01*
X65067040Y-42368619D01*
X65062421Y-42366966D01*
X65017088Y-42348189D01*
X65012651Y-42346091D01*
X64969378Y-42322960D01*
X64965171Y-42320438D01*
X64924372Y-42293178D01*
X64920430Y-42290254D01*
X64882501Y-42259126D01*
X64878866Y-42255831D01*
X64844169Y-42221134D01*
X64840874Y-42217499D01*
X64809746Y-42179570D01*
X64806822Y-42175628D01*
X64779562Y-42134829D01*
X64777040Y-42130622D01*
X64753909Y-42087349D01*
X64751811Y-42082912D01*
X64733034Y-42037579D01*
X64731381Y-42032960D01*
X64717137Y-41986005D01*
X64715945Y-41981244D01*
X64706373Y-41933119D01*
X64705653Y-41928266D01*
X64700843Y-41879435D01*
X64700602Y-41874534D01*
X64700602Y-41856111D01*
X64700000Y-41850000D01*
X64700000Y-41350000D01*
X64700602Y-41343889D01*
X64700602Y-41325466D01*
X64700843Y-41320565D01*
X64705653Y-41271734D01*
X64706373Y-41266881D01*
X64715945Y-41218756D01*
X64717137Y-41213995D01*
X64731381Y-41167040D01*
X64733034Y-41162421D01*
X64751811Y-41117088D01*
X64753909Y-41112651D01*
X64777040Y-41069378D01*
X64779562Y-41065171D01*
X64806822Y-41024372D01*
X64809746Y-41020430D01*
X64840874Y-40982501D01*
X64844169Y-40978866D01*
X64878866Y-40944169D01*
X64882501Y-40940874D01*
X64920430Y-40909746D01*
X64924372Y-40906822D01*
X64965171Y-40879562D01*
X64969378Y-40877040D01*
X65012651Y-40853909D01*
X65017088Y-40851811D01*
X65062421Y-40833034D01*
X65067040Y-40831381D01*
X65113995Y-40817137D01*
X65118756Y-40815945D01*
X65166881Y-40806373D01*
X65171734Y-40805653D01*
X65220565Y-40800843D01*
X65225466Y-40800602D01*
X65243889Y-40800602D01*
X65250000Y-40800000D01*
X65750000Y-40800000D01*
X65759755Y-40800961D01*
X65769134Y-40803806D01*
X65777779Y-40808427D01*
X65785355Y-40814645D01*
X65791573Y-40822221D01*
X65796194Y-40830866D01*
X65799039Y-40840245D01*
X65800000Y-40850000D01*
X65800000Y-42350000D01*
X65799039Y-42359755D01*
X65796194Y-42369134D01*
X65791573Y-42377779D01*
X65785355Y-42385355D01*
X65777779Y-42391573D01*
X65769134Y-42396194D01*
X65759755Y-42399039D01*
X65750000Y-42400000D01*
X65250000Y-42400000D01*
X65243889Y-42399398D01*
G37*
G36*
X66040245Y-42399039D02*
G01*
X66030866Y-42396194D01*
X66022221Y-42391573D01*
X66014645Y-42385355D01*
X66008427Y-42377779D01*
X66003806Y-42369134D01*
X66000961Y-42359755D01*
X66000000Y-42350000D01*
X66000000Y-40850000D01*
X66000961Y-40840245D01*
X66003806Y-40830866D01*
X66008427Y-40822221D01*
X66014645Y-40814645D01*
X66022221Y-40808427D01*
X66030866Y-40803806D01*
X66040245Y-40800961D01*
X66050000Y-40800000D01*
X66550000Y-40800000D01*
X66556111Y-40800602D01*
X66574534Y-40800602D01*
X66579435Y-40800843D01*
X66628266Y-40805653D01*
X66633119Y-40806373D01*
X66681244Y-40815945D01*
X66686005Y-40817137D01*
X66732960Y-40831381D01*
X66737579Y-40833034D01*
X66782912Y-40851811D01*
X66787349Y-40853909D01*
X66830622Y-40877040D01*
X66834829Y-40879562D01*
X66875628Y-40906822D01*
X66879570Y-40909746D01*
X66917499Y-40940874D01*
X66921134Y-40944169D01*
X66955831Y-40978866D01*
X66959126Y-40982501D01*
X66990254Y-41020430D01*
X66993178Y-41024372D01*
X67020438Y-41065171D01*
X67022960Y-41069378D01*
X67046091Y-41112651D01*
X67048189Y-41117088D01*
X67066966Y-41162421D01*
X67068619Y-41167040D01*
X67082863Y-41213995D01*
X67084055Y-41218756D01*
X67093627Y-41266881D01*
X67094347Y-41271734D01*
X67099157Y-41320565D01*
X67099398Y-41325466D01*
X67099398Y-41343889D01*
X67100000Y-41350000D01*
X67100000Y-41850000D01*
X67099398Y-41856111D01*
X67099398Y-41874534D01*
X67099157Y-41879435D01*
X67094347Y-41928266D01*
X67093627Y-41933119D01*
X67084055Y-41981244D01*
X67082863Y-41986005D01*
X67068619Y-42032960D01*
X67066966Y-42037579D01*
X67048189Y-42082912D01*
X67046091Y-42087349D01*
X67022960Y-42130622D01*
X67020438Y-42134829D01*
X66993178Y-42175628D01*
X66990254Y-42179570D01*
X66959126Y-42217499D01*
X66955831Y-42221134D01*
X66921134Y-42255831D01*
X66917499Y-42259126D01*
X66879570Y-42290254D01*
X66875628Y-42293178D01*
X66834829Y-42320438D01*
X66830622Y-42322960D01*
X66787349Y-42346091D01*
X66782912Y-42348189D01*
X66737579Y-42366966D01*
X66732960Y-42368619D01*
X66686005Y-42382863D01*
X66681244Y-42384055D01*
X66633119Y-42393627D01*
X66628266Y-42394347D01*
X66579435Y-42399157D01*
X66574534Y-42399398D01*
X66556111Y-42399398D01*
X66550000Y-42400000D01*
X66050000Y-42400000D01*
X66040245Y-42399039D01*
G37*
%TD*%
%TO.C,JP1*%
G36*
X65243889Y-45699398D02*
G01*
X65225466Y-45699398D01*
X65220565Y-45699157D01*
X65171734Y-45694347D01*
X65166881Y-45693627D01*
X65118756Y-45684055D01*
X65113995Y-45682863D01*
X65067040Y-45668619D01*
X65062421Y-45666966D01*
X65017088Y-45648189D01*
X65012651Y-45646091D01*
X64969378Y-45622960D01*
X64965171Y-45620438D01*
X64924372Y-45593178D01*
X64920430Y-45590254D01*
X64882501Y-45559126D01*
X64878866Y-45555831D01*
X64844169Y-45521134D01*
X64840874Y-45517499D01*
X64809746Y-45479570D01*
X64806822Y-45475628D01*
X64779562Y-45434829D01*
X64777040Y-45430622D01*
X64753909Y-45387349D01*
X64751811Y-45382912D01*
X64733034Y-45337579D01*
X64731381Y-45332960D01*
X64717137Y-45286005D01*
X64715945Y-45281244D01*
X64706373Y-45233119D01*
X64705653Y-45228266D01*
X64700843Y-45179435D01*
X64700602Y-45174534D01*
X64700602Y-45156111D01*
X64700000Y-45150000D01*
X64700000Y-44650000D01*
X64700602Y-44643889D01*
X64700602Y-44625466D01*
X64700843Y-44620565D01*
X64705653Y-44571734D01*
X64706373Y-44566881D01*
X64715945Y-44518756D01*
X64717137Y-44513995D01*
X64731381Y-44467040D01*
X64733034Y-44462421D01*
X64751811Y-44417088D01*
X64753909Y-44412651D01*
X64777040Y-44369378D01*
X64779562Y-44365171D01*
X64806822Y-44324372D01*
X64809746Y-44320430D01*
X64840874Y-44282501D01*
X64844169Y-44278866D01*
X64878866Y-44244169D01*
X64882501Y-44240874D01*
X64920430Y-44209746D01*
X64924372Y-44206822D01*
X64965171Y-44179562D01*
X64969378Y-44177040D01*
X65012651Y-44153909D01*
X65017088Y-44151811D01*
X65062421Y-44133034D01*
X65067040Y-44131381D01*
X65113995Y-44117137D01*
X65118756Y-44115945D01*
X65166881Y-44106373D01*
X65171734Y-44105653D01*
X65220565Y-44100843D01*
X65225466Y-44100602D01*
X65243889Y-44100602D01*
X65250000Y-44100000D01*
X65750000Y-44100000D01*
X65759755Y-44100961D01*
X65769134Y-44103806D01*
X65777779Y-44108427D01*
X65785355Y-44114645D01*
X65791573Y-44122221D01*
X65796194Y-44130866D01*
X65799039Y-44140245D01*
X65800000Y-44150000D01*
X65800000Y-45650000D01*
X65799039Y-45659755D01*
X65796194Y-45669134D01*
X65791573Y-45677779D01*
X65785355Y-45685355D01*
X65777779Y-45691573D01*
X65769134Y-45696194D01*
X65759755Y-45699039D01*
X65750000Y-45700000D01*
X65250000Y-45700000D01*
X65243889Y-45699398D01*
G37*
G36*
X66040245Y-45699039D02*
G01*
X66030866Y-45696194D01*
X66022221Y-45691573D01*
X66014645Y-45685355D01*
X66008427Y-45677779D01*
X66003806Y-45669134D01*
X66000961Y-45659755D01*
X66000000Y-45650000D01*
X66000000Y-44150000D01*
X66000961Y-44140245D01*
X66003806Y-44130866D01*
X66008427Y-44122221D01*
X66014645Y-44114645D01*
X66022221Y-44108427D01*
X66030866Y-44103806D01*
X66040245Y-44100961D01*
X66050000Y-44100000D01*
X66550000Y-44100000D01*
X66556111Y-44100602D01*
X66574534Y-44100602D01*
X66579435Y-44100843D01*
X66628266Y-44105653D01*
X66633119Y-44106373D01*
X66681244Y-44115945D01*
X66686005Y-44117137D01*
X66732960Y-44131381D01*
X66737579Y-44133034D01*
X66782912Y-44151811D01*
X66787349Y-44153909D01*
X66830622Y-44177040D01*
X66834829Y-44179562D01*
X66875628Y-44206822D01*
X66879570Y-44209746D01*
X66917499Y-44240874D01*
X66921134Y-44244169D01*
X66955831Y-44278866D01*
X66959126Y-44282501D01*
X66990254Y-44320430D01*
X66993178Y-44324372D01*
X67020438Y-44365171D01*
X67022960Y-44369378D01*
X67046091Y-44412651D01*
X67048189Y-44417088D01*
X67066966Y-44462421D01*
X67068619Y-44467040D01*
X67082863Y-44513995D01*
X67084055Y-44518756D01*
X67093627Y-44566881D01*
X67094347Y-44571734D01*
X67099157Y-44620565D01*
X67099398Y-44625466D01*
X67099398Y-44643889D01*
X67100000Y-44650000D01*
X67100000Y-45150000D01*
X67099398Y-45156111D01*
X67099398Y-45174534D01*
X67099157Y-45179435D01*
X67094347Y-45228266D01*
X67093627Y-45233119D01*
X67084055Y-45281244D01*
X67082863Y-45286005D01*
X67068619Y-45332960D01*
X67066966Y-45337579D01*
X67048189Y-45382912D01*
X67046091Y-45387349D01*
X67022960Y-45430622D01*
X67020438Y-45434829D01*
X66993178Y-45475628D01*
X66990254Y-45479570D01*
X66959126Y-45517499D01*
X66955831Y-45521134D01*
X66921134Y-45555831D01*
X66917499Y-45559126D01*
X66879570Y-45590254D01*
X66875628Y-45593178D01*
X66834829Y-45620438D01*
X66830622Y-45622960D01*
X66787349Y-45646091D01*
X66782912Y-45648189D01*
X66737579Y-45666966D01*
X66732960Y-45668619D01*
X66686005Y-45682863D01*
X66681244Y-45684055D01*
X66633119Y-45693627D01*
X66628266Y-45694347D01*
X66579435Y-45699157D01*
X66574534Y-45699398D01*
X66556111Y-45699398D01*
X66550000Y-45700000D01*
X66050000Y-45700000D01*
X66040245Y-45699039D01*
G37*
%TD*%
D10*
%TO.C,J6*%
X7780000Y-96900000D03*
X5240000Y-96900000D03*
D11*
X2700000Y-96900000D03*
%TD*%
D13*
%TO.C,X2*%
X30700000Y-63837500D03*
X30700000Y-51962500D03*
%TD*%
D14*
%TO.C,U3*%
X49800000Y-42350000D03*
X45200000Y-42350000D03*
X47500000Y-42350000D03*
D15*
X47500000Y-48650000D03*
%TD*%
%TO.C,U1*%
G36*
G01*
X38250000Y-54750000D02*
X38250000Y-53300000D01*
G75*
G02*
X38350000Y-53200000I100000J0D01*
G01*
X38550000Y-53200000D01*
G75*
G02*
X38650000Y-53300000I0J-100000D01*
G01*
X38650000Y-54750000D01*
G75*
G02*
X38550000Y-54850000I-100000J0D01*
G01*
X38350000Y-54850000D01*
G75*
G02*
X38250000Y-54750000I0J100000D01*
G01*
G37*
G36*
G01*
X38750000Y-54750000D02*
X38750000Y-53300000D01*
G75*
G02*
X38850000Y-53200000I100000J0D01*
G01*
X39050000Y-53200000D01*
G75*
G02*
X39150000Y-53300000I0J-100000D01*
G01*
X39150000Y-54750000D01*
G75*
G02*
X39050000Y-54850000I-100000J0D01*
G01*
X38850000Y-54850000D01*
G75*
G02*
X38750000Y-54750000I0J100000D01*
G01*
G37*
G36*
G01*
X39250000Y-54750000D02*
X39250000Y-53300000D01*
G75*
G02*
X39350000Y-53200000I100000J0D01*
G01*
X39550000Y-53200000D01*
G75*
G02*
X39650000Y-53300000I0J-100000D01*
G01*
X39650000Y-54750000D01*
G75*
G02*
X39550000Y-54850000I-100000J0D01*
G01*
X39350000Y-54850000D01*
G75*
G02*
X39250000Y-54750000I0J100000D01*
G01*
G37*
G36*
G01*
X39750000Y-54750000D02*
X39750000Y-53300000D01*
G75*
G02*
X39850000Y-53200000I100000J0D01*
G01*
X40050000Y-53200000D01*
G75*
G02*
X40150000Y-53300000I0J-100000D01*
G01*
X40150000Y-54750000D01*
G75*
G02*
X40050000Y-54850000I-100000J0D01*
G01*
X39850000Y-54850000D01*
G75*
G02*
X39750000Y-54750000I0J100000D01*
G01*
G37*
G36*
G01*
X40250000Y-54750000D02*
X40250000Y-53300000D01*
G75*
G02*
X40350000Y-53200000I100000J0D01*
G01*
X40550000Y-53200000D01*
G75*
G02*
X40650000Y-53300000I0J-100000D01*
G01*
X40650000Y-54750000D01*
G75*
G02*
X40550000Y-54850000I-100000J0D01*
G01*
X40350000Y-54850000D01*
G75*
G02*
X40250000Y-54750000I0J100000D01*
G01*
G37*
G36*
G01*
X40750000Y-54750000D02*
X40750000Y-53300000D01*
G75*
G02*
X40850000Y-53200000I100000J0D01*
G01*
X41050000Y-53200000D01*
G75*
G02*
X41150000Y-53300000I0J-100000D01*
G01*
X41150000Y-54750000D01*
G75*
G02*
X41050000Y-54850000I-100000J0D01*
G01*
X40850000Y-54850000D01*
G75*
G02*
X40750000Y-54750000I0J100000D01*
G01*
G37*
G36*
G01*
X41250000Y-54750000D02*
X41250000Y-53300000D01*
G75*
G02*
X41350000Y-53200000I100000J0D01*
G01*
X41550000Y-53200000D01*
G75*
G02*
X41650000Y-53300000I0J-100000D01*
G01*
X41650000Y-54750000D01*
G75*
G02*
X41550000Y-54850000I-100000J0D01*
G01*
X41350000Y-54850000D01*
G75*
G02*
X41250000Y-54750000I0J100000D01*
G01*
G37*
G36*
G01*
X41750000Y-54750000D02*
X41750000Y-53300000D01*
G75*
G02*
X41850000Y-53200000I100000J0D01*
G01*
X42050000Y-53200000D01*
G75*
G02*
X42150000Y-53300000I0J-100000D01*
G01*
X42150000Y-54750000D01*
G75*
G02*
X42050000Y-54850000I-100000J0D01*
G01*
X41850000Y-54850000D01*
G75*
G02*
X41750000Y-54750000I0J100000D01*
G01*
G37*
G36*
G01*
X42250000Y-54750000D02*
X42250000Y-53300000D01*
G75*
G02*
X42350000Y-53200000I100000J0D01*
G01*
X42550000Y-53200000D01*
G75*
G02*
X42650000Y-53300000I0J-100000D01*
G01*
X42650000Y-54750000D01*
G75*
G02*
X42550000Y-54850000I-100000J0D01*
G01*
X42350000Y-54850000D01*
G75*
G02*
X42250000Y-54750000I0J100000D01*
G01*
G37*
G36*
G01*
X42750000Y-54750000D02*
X42750000Y-53300000D01*
G75*
G02*
X42850000Y-53200000I100000J0D01*
G01*
X43050000Y-53200000D01*
G75*
G02*
X43150000Y-53300000I0J-100000D01*
G01*
X43150000Y-54750000D01*
G75*
G02*
X43050000Y-54850000I-100000J0D01*
G01*
X42850000Y-54850000D01*
G75*
G02*
X42750000Y-54750000I0J100000D01*
G01*
G37*
G36*
G01*
X43250000Y-54750000D02*
X43250000Y-53300000D01*
G75*
G02*
X43350000Y-53200000I100000J0D01*
G01*
X43550000Y-53200000D01*
G75*
G02*
X43650000Y-53300000I0J-100000D01*
G01*
X43650000Y-54750000D01*
G75*
G02*
X43550000Y-54850000I-100000J0D01*
G01*
X43350000Y-54850000D01*
G75*
G02*
X43250000Y-54750000I0J100000D01*
G01*
G37*
G36*
G01*
X43750000Y-54750000D02*
X43750000Y-53300000D01*
G75*
G02*
X43850000Y-53200000I100000J0D01*
G01*
X44050000Y-53200000D01*
G75*
G02*
X44150000Y-53300000I0J-100000D01*
G01*
X44150000Y-54750000D01*
G75*
G02*
X44050000Y-54850000I-100000J0D01*
G01*
X43850000Y-54850000D01*
G75*
G02*
X43750000Y-54750000I0J100000D01*
G01*
G37*
G36*
G01*
X44250000Y-54750000D02*
X44250000Y-53300000D01*
G75*
G02*
X44350000Y-53200000I100000J0D01*
G01*
X44550000Y-53200000D01*
G75*
G02*
X44650000Y-53300000I0J-100000D01*
G01*
X44650000Y-54750000D01*
G75*
G02*
X44550000Y-54850000I-100000J0D01*
G01*
X44350000Y-54850000D01*
G75*
G02*
X44250000Y-54750000I0J100000D01*
G01*
G37*
G36*
G01*
X44750000Y-54750000D02*
X44750000Y-53300000D01*
G75*
G02*
X44850000Y-53200000I100000J0D01*
G01*
X45050000Y-53200000D01*
G75*
G02*
X45150000Y-53300000I0J-100000D01*
G01*
X45150000Y-54750000D01*
G75*
G02*
X45050000Y-54850000I-100000J0D01*
G01*
X44850000Y-54850000D01*
G75*
G02*
X44750000Y-54750000I0J100000D01*
G01*
G37*
G36*
G01*
X45250000Y-54750000D02*
X45250000Y-53300000D01*
G75*
G02*
X45350000Y-53200000I100000J0D01*
G01*
X45550000Y-53200000D01*
G75*
G02*
X45650000Y-53300000I0J-100000D01*
G01*
X45650000Y-54750000D01*
G75*
G02*
X45550000Y-54850000I-100000J0D01*
G01*
X45350000Y-54850000D01*
G75*
G02*
X45250000Y-54750000I0J100000D01*
G01*
G37*
G36*
G01*
X45750000Y-54750000D02*
X45750000Y-53300000D01*
G75*
G02*
X45850000Y-53200000I100000J0D01*
G01*
X46050000Y-53200000D01*
G75*
G02*
X46150000Y-53300000I0J-100000D01*
G01*
X46150000Y-54750000D01*
G75*
G02*
X46050000Y-54850000I-100000J0D01*
G01*
X45850000Y-54850000D01*
G75*
G02*
X45750000Y-54750000I0J100000D01*
G01*
G37*
G36*
G01*
X47050000Y-56050000D02*
X47050000Y-55850000D01*
G75*
G02*
X47150000Y-55750000I100000J0D01*
G01*
X48600000Y-55750000D01*
G75*
G02*
X48700000Y-55850000I0J-100000D01*
G01*
X48700000Y-56050000D01*
G75*
G02*
X48600000Y-56150000I-100000J0D01*
G01*
X47150000Y-56150000D01*
G75*
G02*
X47050000Y-56050000I0J100000D01*
G01*
G37*
G36*
G01*
X47050000Y-56550000D02*
X47050000Y-56350000D01*
G75*
G02*
X47150000Y-56250000I100000J0D01*
G01*
X48600000Y-56250000D01*
G75*
G02*
X48700000Y-56350000I0J-100000D01*
G01*
X48700000Y-56550000D01*
G75*
G02*
X48600000Y-56650000I-100000J0D01*
G01*
X47150000Y-56650000D01*
G75*
G02*
X47050000Y-56550000I0J100000D01*
G01*
G37*
G36*
G01*
X47050000Y-57050000D02*
X47050000Y-56850000D01*
G75*
G02*
X47150000Y-56750000I100000J0D01*
G01*
X48600000Y-56750000D01*
G75*
G02*
X48700000Y-56850000I0J-100000D01*
G01*
X48700000Y-57050000D01*
G75*
G02*
X48600000Y-57150000I-100000J0D01*
G01*
X47150000Y-57150000D01*
G75*
G02*
X47050000Y-57050000I0J100000D01*
G01*
G37*
G36*
G01*
X47050000Y-57550000D02*
X47050000Y-57350000D01*
G75*
G02*
X47150000Y-57250000I100000J0D01*
G01*
X48600000Y-57250000D01*
G75*
G02*
X48700000Y-57350000I0J-100000D01*
G01*
X48700000Y-57550000D01*
G75*
G02*
X48600000Y-57650000I-100000J0D01*
G01*
X47150000Y-57650000D01*
G75*
G02*
X47050000Y-57550000I0J100000D01*
G01*
G37*
G36*
G01*
X47050000Y-58050000D02*
X47050000Y-57850000D01*
G75*
G02*
X47150000Y-57750000I100000J0D01*
G01*
X48600000Y-57750000D01*
G75*
G02*
X48700000Y-57850000I0J-100000D01*
G01*
X48700000Y-58050000D01*
G75*
G02*
X48600000Y-58150000I-100000J0D01*
G01*
X47150000Y-58150000D01*
G75*
G02*
X47050000Y-58050000I0J100000D01*
G01*
G37*
G36*
G01*
X47050000Y-58550000D02*
X47050000Y-58350000D01*
G75*
G02*
X47150000Y-58250000I100000J0D01*
G01*
X48600000Y-58250000D01*
G75*
G02*
X48700000Y-58350000I0J-100000D01*
G01*
X48700000Y-58550000D01*
G75*
G02*
X48600000Y-58650000I-100000J0D01*
G01*
X47150000Y-58650000D01*
G75*
G02*
X47050000Y-58550000I0J100000D01*
G01*
G37*
G36*
G01*
X47050000Y-59050000D02*
X47050000Y-58850000D01*
G75*
G02*
X47150000Y-58750000I100000J0D01*
G01*
X48600000Y-58750000D01*
G75*
G02*
X48700000Y-58850000I0J-100000D01*
G01*
X48700000Y-59050000D01*
G75*
G02*
X48600000Y-59150000I-100000J0D01*
G01*
X47150000Y-59150000D01*
G75*
G02*
X47050000Y-59050000I0J100000D01*
G01*
G37*
G36*
G01*
X47050000Y-59550000D02*
X47050000Y-59350000D01*
G75*
G02*
X47150000Y-59250000I100000J0D01*
G01*
X48600000Y-59250000D01*
G75*
G02*
X48700000Y-59350000I0J-100000D01*
G01*
X48700000Y-59550000D01*
G75*
G02*
X48600000Y-59650000I-100000J0D01*
G01*
X47150000Y-59650000D01*
G75*
G02*
X47050000Y-59550000I0J100000D01*
G01*
G37*
G36*
G01*
X47050000Y-60050000D02*
X47050000Y-59850000D01*
G75*
G02*
X47150000Y-59750000I100000J0D01*
G01*
X48600000Y-59750000D01*
G75*
G02*
X48700000Y-59850000I0J-100000D01*
G01*
X48700000Y-60050000D01*
G75*
G02*
X48600000Y-60150000I-100000J0D01*
G01*
X47150000Y-60150000D01*
G75*
G02*
X47050000Y-60050000I0J100000D01*
G01*
G37*
G36*
G01*
X47050000Y-60550000D02*
X47050000Y-60350000D01*
G75*
G02*
X47150000Y-60250000I100000J0D01*
G01*
X48600000Y-60250000D01*
G75*
G02*
X48700000Y-60350000I0J-100000D01*
G01*
X48700000Y-60550000D01*
G75*
G02*
X48600000Y-60650000I-100000J0D01*
G01*
X47150000Y-60650000D01*
G75*
G02*
X47050000Y-60550000I0J100000D01*
G01*
G37*
G36*
G01*
X47050000Y-61050000D02*
X47050000Y-60850000D01*
G75*
G02*
X47150000Y-60750000I100000J0D01*
G01*
X48600000Y-60750000D01*
G75*
G02*
X48700000Y-60850000I0J-100000D01*
G01*
X48700000Y-61050000D01*
G75*
G02*
X48600000Y-61150000I-100000J0D01*
G01*
X47150000Y-61150000D01*
G75*
G02*
X47050000Y-61050000I0J100000D01*
G01*
G37*
G36*
G01*
X47050000Y-61550000D02*
X47050000Y-61350000D01*
G75*
G02*
X47150000Y-61250000I100000J0D01*
G01*
X48600000Y-61250000D01*
G75*
G02*
X48700000Y-61350000I0J-100000D01*
G01*
X48700000Y-61550000D01*
G75*
G02*
X48600000Y-61650000I-100000J0D01*
G01*
X47150000Y-61650000D01*
G75*
G02*
X47050000Y-61550000I0J100000D01*
G01*
G37*
G36*
G01*
X47050000Y-62050000D02*
X47050000Y-61850000D01*
G75*
G02*
X47150000Y-61750000I100000J0D01*
G01*
X48600000Y-61750000D01*
G75*
G02*
X48700000Y-61850000I0J-100000D01*
G01*
X48700000Y-62050000D01*
G75*
G02*
X48600000Y-62150000I-100000J0D01*
G01*
X47150000Y-62150000D01*
G75*
G02*
X47050000Y-62050000I0J100000D01*
G01*
G37*
G36*
G01*
X47050000Y-62550000D02*
X47050000Y-62350000D01*
G75*
G02*
X47150000Y-62250000I100000J0D01*
G01*
X48600000Y-62250000D01*
G75*
G02*
X48700000Y-62350000I0J-100000D01*
G01*
X48700000Y-62550000D01*
G75*
G02*
X48600000Y-62650000I-100000J0D01*
G01*
X47150000Y-62650000D01*
G75*
G02*
X47050000Y-62550000I0J100000D01*
G01*
G37*
G36*
G01*
X47050000Y-63050000D02*
X47050000Y-62850000D01*
G75*
G02*
X47150000Y-62750000I100000J0D01*
G01*
X48600000Y-62750000D01*
G75*
G02*
X48700000Y-62850000I0J-100000D01*
G01*
X48700000Y-63050000D01*
G75*
G02*
X48600000Y-63150000I-100000J0D01*
G01*
X47150000Y-63150000D01*
G75*
G02*
X47050000Y-63050000I0J100000D01*
G01*
G37*
G36*
G01*
X47050000Y-63550000D02*
X47050000Y-63350000D01*
G75*
G02*
X47150000Y-63250000I100000J0D01*
G01*
X48600000Y-63250000D01*
G75*
G02*
X48700000Y-63350000I0J-100000D01*
G01*
X48700000Y-63550000D01*
G75*
G02*
X48600000Y-63650000I-100000J0D01*
G01*
X47150000Y-63650000D01*
G75*
G02*
X47050000Y-63550000I0J100000D01*
G01*
G37*
G36*
G01*
X45750000Y-66100000D02*
X45750000Y-64650000D01*
G75*
G02*
X45850000Y-64550000I100000J0D01*
G01*
X46050000Y-64550000D01*
G75*
G02*
X46150000Y-64650000I0J-100000D01*
G01*
X46150000Y-66100000D01*
G75*
G02*
X46050000Y-66200000I-100000J0D01*
G01*
X45850000Y-66200000D01*
G75*
G02*
X45750000Y-66100000I0J100000D01*
G01*
G37*
G36*
G01*
X45250000Y-66100000D02*
X45250000Y-64650000D01*
G75*
G02*
X45350000Y-64550000I100000J0D01*
G01*
X45550000Y-64550000D01*
G75*
G02*
X45650000Y-64650000I0J-100000D01*
G01*
X45650000Y-66100000D01*
G75*
G02*
X45550000Y-66200000I-100000J0D01*
G01*
X45350000Y-66200000D01*
G75*
G02*
X45250000Y-66100000I0J100000D01*
G01*
G37*
G36*
G01*
X44750000Y-66100000D02*
X44750000Y-64650000D01*
G75*
G02*
X44850000Y-64550000I100000J0D01*
G01*
X45050000Y-64550000D01*
G75*
G02*
X45150000Y-64650000I0J-100000D01*
G01*
X45150000Y-66100000D01*
G75*
G02*
X45050000Y-66200000I-100000J0D01*
G01*
X44850000Y-66200000D01*
G75*
G02*
X44750000Y-66100000I0J100000D01*
G01*
G37*
G36*
G01*
X44250000Y-66100000D02*
X44250000Y-64650000D01*
G75*
G02*
X44350000Y-64550000I100000J0D01*
G01*
X44550000Y-64550000D01*
G75*
G02*
X44650000Y-64650000I0J-100000D01*
G01*
X44650000Y-66100000D01*
G75*
G02*
X44550000Y-66200000I-100000J0D01*
G01*
X44350000Y-66200000D01*
G75*
G02*
X44250000Y-66100000I0J100000D01*
G01*
G37*
G36*
G01*
X43750000Y-66100000D02*
X43750000Y-64650000D01*
G75*
G02*
X43850000Y-64550000I100000J0D01*
G01*
X44050000Y-64550000D01*
G75*
G02*
X44150000Y-64650000I0J-100000D01*
G01*
X44150000Y-66100000D01*
G75*
G02*
X44050000Y-66200000I-100000J0D01*
G01*
X43850000Y-66200000D01*
G75*
G02*
X43750000Y-66100000I0J100000D01*
G01*
G37*
G36*
G01*
X43250000Y-66100000D02*
X43250000Y-64650000D01*
G75*
G02*
X43350000Y-64550000I100000J0D01*
G01*
X43550000Y-64550000D01*
G75*
G02*
X43650000Y-64650000I0J-100000D01*
G01*
X43650000Y-66100000D01*
G75*
G02*
X43550000Y-66200000I-100000J0D01*
G01*
X43350000Y-66200000D01*
G75*
G02*
X43250000Y-66100000I0J100000D01*
G01*
G37*
G36*
G01*
X42750000Y-66100000D02*
X42750000Y-64650000D01*
G75*
G02*
X42850000Y-64550000I100000J0D01*
G01*
X43050000Y-64550000D01*
G75*
G02*
X43150000Y-64650000I0J-100000D01*
G01*
X43150000Y-66100000D01*
G75*
G02*
X43050000Y-66200000I-100000J0D01*
G01*
X42850000Y-66200000D01*
G75*
G02*
X42750000Y-66100000I0J100000D01*
G01*
G37*
G36*
G01*
X42250000Y-66100000D02*
X42250000Y-64650000D01*
G75*
G02*
X42350000Y-64550000I100000J0D01*
G01*
X42550000Y-64550000D01*
G75*
G02*
X42650000Y-64650000I0J-100000D01*
G01*
X42650000Y-66100000D01*
G75*
G02*
X42550000Y-66200000I-100000J0D01*
G01*
X42350000Y-66200000D01*
G75*
G02*
X42250000Y-66100000I0J100000D01*
G01*
G37*
G36*
G01*
X41750000Y-66100000D02*
X41750000Y-64650000D01*
G75*
G02*
X41850000Y-64550000I100000J0D01*
G01*
X42050000Y-64550000D01*
G75*
G02*
X42150000Y-64650000I0J-100000D01*
G01*
X42150000Y-66100000D01*
G75*
G02*
X42050000Y-66200000I-100000J0D01*
G01*
X41850000Y-66200000D01*
G75*
G02*
X41750000Y-66100000I0J100000D01*
G01*
G37*
G36*
G01*
X41250000Y-66100000D02*
X41250000Y-64650000D01*
G75*
G02*
X41350000Y-64550000I100000J0D01*
G01*
X41550000Y-64550000D01*
G75*
G02*
X41650000Y-64650000I0J-100000D01*
G01*
X41650000Y-66100000D01*
G75*
G02*
X41550000Y-66200000I-100000J0D01*
G01*
X41350000Y-66200000D01*
G75*
G02*
X41250000Y-66100000I0J100000D01*
G01*
G37*
G36*
G01*
X40750000Y-66100000D02*
X40750000Y-64650000D01*
G75*
G02*
X40850000Y-64550000I100000J0D01*
G01*
X41050000Y-64550000D01*
G75*
G02*
X41150000Y-64650000I0J-100000D01*
G01*
X41150000Y-66100000D01*
G75*
G02*
X41050000Y-66200000I-100000J0D01*
G01*
X40850000Y-66200000D01*
G75*
G02*
X40750000Y-66100000I0J100000D01*
G01*
G37*
G36*
G01*
X40250000Y-66100000D02*
X40250000Y-64650000D01*
G75*
G02*
X40350000Y-64550000I100000J0D01*
G01*
X40550000Y-64550000D01*
G75*
G02*
X40650000Y-64650000I0J-100000D01*
G01*
X40650000Y-66100000D01*
G75*
G02*
X40550000Y-66200000I-100000J0D01*
G01*
X40350000Y-66200000D01*
G75*
G02*
X40250000Y-66100000I0J100000D01*
G01*
G37*
G36*
G01*
X39750000Y-66100000D02*
X39750000Y-64650000D01*
G75*
G02*
X39850000Y-64550000I100000J0D01*
G01*
X40050000Y-64550000D01*
G75*
G02*
X40150000Y-64650000I0J-100000D01*
G01*
X40150000Y-66100000D01*
G75*
G02*
X40050000Y-66200000I-100000J0D01*
G01*
X39850000Y-66200000D01*
G75*
G02*
X39750000Y-66100000I0J100000D01*
G01*
G37*
G36*
G01*
X39250000Y-66100000D02*
X39250000Y-64650000D01*
G75*
G02*
X39350000Y-64550000I100000J0D01*
G01*
X39550000Y-64550000D01*
G75*
G02*
X39650000Y-64650000I0J-100000D01*
G01*
X39650000Y-66100000D01*
G75*
G02*
X39550000Y-66200000I-100000J0D01*
G01*
X39350000Y-66200000D01*
G75*
G02*
X39250000Y-66100000I0J100000D01*
G01*
G37*
G36*
G01*
X38750000Y-66100000D02*
X38750000Y-64650000D01*
G75*
G02*
X38850000Y-64550000I100000J0D01*
G01*
X39050000Y-64550000D01*
G75*
G02*
X39150000Y-64650000I0J-100000D01*
G01*
X39150000Y-66100000D01*
G75*
G02*
X39050000Y-66200000I-100000J0D01*
G01*
X38850000Y-66200000D01*
G75*
G02*
X38750000Y-66100000I0J100000D01*
G01*
G37*
G36*
G01*
X38250000Y-66100000D02*
X38250000Y-64650000D01*
G75*
G02*
X38350000Y-64550000I100000J0D01*
G01*
X38550000Y-64550000D01*
G75*
G02*
X38650000Y-64650000I0J-100000D01*
G01*
X38650000Y-66100000D01*
G75*
G02*
X38550000Y-66200000I-100000J0D01*
G01*
X38350000Y-66200000D01*
G75*
G02*
X38250000Y-66100000I0J100000D01*
G01*
G37*
G36*
G01*
X35700000Y-63550000D02*
X35700000Y-63350000D01*
G75*
G02*
X35800000Y-63250000I100000J0D01*
G01*
X37250000Y-63250000D01*
G75*
G02*
X37350000Y-63350000I0J-100000D01*
G01*
X37350000Y-63550000D01*
G75*
G02*
X37250000Y-63650000I-100000J0D01*
G01*
X35800000Y-63650000D01*
G75*
G02*
X35700000Y-63550000I0J100000D01*
G01*
G37*
G36*
G01*
X35700000Y-63050000D02*
X35700000Y-62850000D01*
G75*
G02*
X35800000Y-62750000I100000J0D01*
G01*
X37250000Y-62750000D01*
G75*
G02*
X37350000Y-62850000I0J-100000D01*
G01*
X37350000Y-63050000D01*
G75*
G02*
X37250000Y-63150000I-100000J0D01*
G01*
X35800000Y-63150000D01*
G75*
G02*
X35700000Y-63050000I0J100000D01*
G01*
G37*
G36*
G01*
X35700000Y-62550000D02*
X35700000Y-62350000D01*
G75*
G02*
X35800000Y-62250000I100000J0D01*
G01*
X37250000Y-62250000D01*
G75*
G02*
X37350000Y-62350000I0J-100000D01*
G01*
X37350000Y-62550000D01*
G75*
G02*
X37250000Y-62650000I-100000J0D01*
G01*
X35800000Y-62650000D01*
G75*
G02*
X35700000Y-62550000I0J100000D01*
G01*
G37*
G36*
G01*
X35700000Y-62050000D02*
X35700000Y-61850000D01*
G75*
G02*
X35800000Y-61750000I100000J0D01*
G01*
X37250000Y-61750000D01*
G75*
G02*
X37350000Y-61850000I0J-100000D01*
G01*
X37350000Y-62050000D01*
G75*
G02*
X37250000Y-62150000I-100000J0D01*
G01*
X35800000Y-62150000D01*
G75*
G02*
X35700000Y-62050000I0J100000D01*
G01*
G37*
G36*
G01*
X35700000Y-61550000D02*
X35700000Y-61350000D01*
G75*
G02*
X35800000Y-61250000I100000J0D01*
G01*
X37250000Y-61250000D01*
G75*
G02*
X37350000Y-61350000I0J-100000D01*
G01*
X37350000Y-61550000D01*
G75*
G02*
X37250000Y-61650000I-100000J0D01*
G01*
X35800000Y-61650000D01*
G75*
G02*
X35700000Y-61550000I0J100000D01*
G01*
G37*
G36*
G01*
X35700000Y-61050000D02*
X35700000Y-60850000D01*
G75*
G02*
X35800000Y-60750000I100000J0D01*
G01*
X37250000Y-60750000D01*
G75*
G02*
X37350000Y-60850000I0J-100000D01*
G01*
X37350000Y-61050000D01*
G75*
G02*
X37250000Y-61150000I-100000J0D01*
G01*
X35800000Y-61150000D01*
G75*
G02*
X35700000Y-61050000I0J100000D01*
G01*
G37*
G36*
G01*
X35700000Y-60550000D02*
X35700000Y-60350000D01*
G75*
G02*
X35800000Y-60250000I100000J0D01*
G01*
X37250000Y-60250000D01*
G75*
G02*
X37350000Y-60350000I0J-100000D01*
G01*
X37350000Y-60550000D01*
G75*
G02*
X37250000Y-60650000I-100000J0D01*
G01*
X35800000Y-60650000D01*
G75*
G02*
X35700000Y-60550000I0J100000D01*
G01*
G37*
G36*
G01*
X35700000Y-60050000D02*
X35700000Y-59850000D01*
G75*
G02*
X35800000Y-59750000I100000J0D01*
G01*
X37250000Y-59750000D01*
G75*
G02*
X37350000Y-59850000I0J-100000D01*
G01*
X37350000Y-60050000D01*
G75*
G02*
X37250000Y-60150000I-100000J0D01*
G01*
X35800000Y-60150000D01*
G75*
G02*
X35700000Y-60050000I0J100000D01*
G01*
G37*
G36*
G01*
X35700000Y-59550000D02*
X35700000Y-59350000D01*
G75*
G02*
X35800000Y-59250000I100000J0D01*
G01*
X37250000Y-59250000D01*
G75*
G02*
X37350000Y-59350000I0J-100000D01*
G01*
X37350000Y-59550000D01*
G75*
G02*
X37250000Y-59650000I-100000J0D01*
G01*
X35800000Y-59650000D01*
G75*
G02*
X35700000Y-59550000I0J100000D01*
G01*
G37*
G36*
G01*
X35700000Y-59050000D02*
X35700000Y-58850000D01*
G75*
G02*
X35800000Y-58750000I100000J0D01*
G01*
X37250000Y-58750000D01*
G75*
G02*
X37350000Y-58850000I0J-100000D01*
G01*
X37350000Y-59050000D01*
G75*
G02*
X37250000Y-59150000I-100000J0D01*
G01*
X35800000Y-59150000D01*
G75*
G02*
X35700000Y-59050000I0J100000D01*
G01*
G37*
G36*
G01*
X35700000Y-58550000D02*
X35700000Y-58350000D01*
G75*
G02*
X35800000Y-58250000I100000J0D01*
G01*
X37250000Y-58250000D01*
G75*
G02*
X37350000Y-58350000I0J-100000D01*
G01*
X37350000Y-58550000D01*
G75*
G02*
X37250000Y-58650000I-100000J0D01*
G01*
X35800000Y-58650000D01*
G75*
G02*
X35700000Y-58550000I0J100000D01*
G01*
G37*
G36*
G01*
X35700000Y-58050000D02*
X35700000Y-57850000D01*
G75*
G02*
X35800000Y-57750000I100000J0D01*
G01*
X37250000Y-57750000D01*
G75*
G02*
X37350000Y-57850000I0J-100000D01*
G01*
X37350000Y-58050000D01*
G75*
G02*
X37250000Y-58150000I-100000J0D01*
G01*
X35800000Y-58150000D01*
G75*
G02*
X35700000Y-58050000I0J100000D01*
G01*
G37*
G36*
G01*
X35700000Y-57550000D02*
X35700000Y-57350000D01*
G75*
G02*
X35800000Y-57250000I100000J0D01*
G01*
X37250000Y-57250000D01*
G75*
G02*
X37350000Y-57350000I0J-100000D01*
G01*
X37350000Y-57550000D01*
G75*
G02*
X37250000Y-57650000I-100000J0D01*
G01*
X35800000Y-57650000D01*
G75*
G02*
X35700000Y-57550000I0J100000D01*
G01*
G37*
G36*
G01*
X35700000Y-57050000D02*
X35700000Y-56850000D01*
G75*
G02*
X35800000Y-56750000I100000J0D01*
G01*
X37250000Y-56750000D01*
G75*
G02*
X37350000Y-56850000I0J-100000D01*
G01*
X37350000Y-57050000D01*
G75*
G02*
X37250000Y-57150000I-100000J0D01*
G01*
X35800000Y-57150000D01*
G75*
G02*
X35700000Y-57050000I0J100000D01*
G01*
G37*
G36*
G01*
X35700000Y-56550000D02*
X35700000Y-56350000D01*
G75*
G02*
X35800000Y-56250000I100000J0D01*
G01*
X37250000Y-56250000D01*
G75*
G02*
X37350000Y-56350000I0J-100000D01*
G01*
X37350000Y-56550000D01*
G75*
G02*
X37250000Y-56650000I-100000J0D01*
G01*
X35800000Y-56650000D01*
G75*
G02*
X35700000Y-56550000I0J100000D01*
G01*
G37*
G36*
G01*
X35700000Y-56050000D02*
X35700000Y-55850000D01*
G75*
G02*
X35800000Y-55750000I100000J0D01*
G01*
X37250000Y-55750000D01*
G75*
G02*
X37350000Y-55850000I0J-100000D01*
G01*
X37350000Y-56050000D01*
G75*
G02*
X37250000Y-56150000I-100000J0D01*
G01*
X35800000Y-56150000D01*
G75*
G02*
X35700000Y-56050000I0J100000D01*
G01*
G37*
%TD*%
D16*
%TO.C,SW2*%
X65600000Y-51350000D03*
X65600000Y-55050000D03*
X59600000Y-55050000D03*
X59600000Y-51350000D03*
%TD*%
%TO.C,R23*%
G36*
G01*
X25578262Y-57500000D02*
X24621738Y-57500000D01*
G75*
G02*
X24350000Y-57228262I0J271738D01*
G01*
X24350000Y-56521738D01*
G75*
G02*
X24621738Y-56250000I271738J0D01*
G01*
X25578262Y-56250000D01*
G75*
G02*
X25850000Y-56521738I0J-271738D01*
G01*
X25850000Y-57228262D01*
G75*
G02*
X25578262Y-57500000I-271738J0D01*
G01*
G37*
G36*
G01*
X25578262Y-59550000D02*
X24621738Y-59550000D01*
G75*
G02*
X24350000Y-59278262I0J271738D01*
G01*
X24350000Y-58571738D01*
G75*
G02*
X24621738Y-58300000I271738J0D01*
G01*
X25578262Y-58300000D01*
G75*
G02*
X25850000Y-58571738I0J-271738D01*
G01*
X25850000Y-59278262D01*
G75*
G02*
X25578262Y-59550000I-271738J0D01*
G01*
G37*
%TD*%
%TO.C,R21*%
G36*
G01*
X38350000Y-39281250D02*
X38350000Y-38318750D01*
G75*
G02*
X38618750Y-38050000I268750J0D01*
G01*
X39156250Y-38050000D01*
G75*
G02*
X39425000Y-38318750I0J-268750D01*
G01*
X39425000Y-39281250D01*
G75*
G02*
X39156250Y-39550000I-268750J0D01*
G01*
X38618750Y-39550000D01*
G75*
G02*
X38350000Y-39281250I0J268750D01*
G01*
G37*
G36*
G01*
X36475000Y-39281250D02*
X36475000Y-38318750D01*
G75*
G02*
X36743750Y-38050000I268750J0D01*
G01*
X37281250Y-38050000D01*
G75*
G02*
X37550000Y-38318750I0J-268750D01*
G01*
X37550000Y-39281250D01*
G75*
G02*
X37281250Y-39550000I-268750J0D01*
G01*
X36743750Y-39550000D01*
G75*
G02*
X36475000Y-39281250I0J268750D01*
G01*
G37*
%TD*%
%TO.C,R20*%
G36*
G01*
X36468750Y-41950000D02*
X37431250Y-41950000D01*
G75*
G02*
X37700000Y-42218750I0J-268750D01*
G01*
X37700000Y-42756250D01*
G75*
G02*
X37431250Y-43025000I-268750J0D01*
G01*
X36468750Y-43025000D01*
G75*
G02*
X36200000Y-42756250I0J268750D01*
G01*
X36200000Y-42218750D01*
G75*
G02*
X36468750Y-41950000I268750J0D01*
G01*
G37*
G36*
G01*
X36468750Y-40075000D02*
X37431250Y-40075000D01*
G75*
G02*
X37700000Y-40343750I0J-268750D01*
G01*
X37700000Y-40881250D01*
G75*
G02*
X37431250Y-41150000I-268750J0D01*
G01*
X36468750Y-41150000D01*
G75*
G02*
X36200000Y-40881250I0J268750D01*
G01*
X36200000Y-40343750D01*
G75*
G02*
X36468750Y-40075000I268750J0D01*
G01*
G37*
%TD*%
%TO.C,R18*%
G36*
G01*
X33968750Y-41900000D02*
X34931250Y-41900000D01*
G75*
G02*
X35200000Y-42168750I0J-268750D01*
G01*
X35200000Y-42706250D01*
G75*
G02*
X34931250Y-42975000I-268750J0D01*
G01*
X33968750Y-42975000D01*
G75*
G02*
X33700000Y-42706250I0J268750D01*
G01*
X33700000Y-42168750D01*
G75*
G02*
X33968750Y-41900000I268750J0D01*
G01*
G37*
G36*
G01*
X33968750Y-40025000D02*
X34931250Y-40025000D01*
G75*
G02*
X35200000Y-40293750I0J-268750D01*
G01*
X35200000Y-40831250D01*
G75*
G02*
X34931250Y-41100000I-268750J0D01*
G01*
X33968750Y-41100000D01*
G75*
G02*
X33700000Y-40831250I0J268750D01*
G01*
X33700000Y-40293750D01*
G75*
G02*
X33968750Y-40025000I268750J0D01*
G01*
G37*
%TD*%
%TO.C,R9*%
G36*
G01*
X16381250Y-72800000D02*
X15418750Y-72800000D01*
G75*
G02*
X15150000Y-72531250I0J268750D01*
G01*
X15150000Y-71993750D01*
G75*
G02*
X15418750Y-71725000I268750J0D01*
G01*
X16381250Y-71725000D01*
G75*
G02*
X16650000Y-71993750I0J-268750D01*
G01*
X16650000Y-72531250D01*
G75*
G02*
X16381250Y-72800000I-268750J0D01*
G01*
G37*
G36*
G01*
X16381250Y-74675000D02*
X15418750Y-74675000D01*
G75*
G02*
X15150000Y-74406250I0J268750D01*
G01*
X15150000Y-73868750D01*
G75*
G02*
X15418750Y-73600000I268750J0D01*
G01*
X16381250Y-73600000D01*
G75*
G02*
X16650000Y-73868750I0J-268750D01*
G01*
X16650000Y-74406250D01*
G75*
G02*
X16381250Y-74675000I-268750J0D01*
G01*
G37*
%TD*%
%TO.C,R8*%
G36*
G01*
X18881250Y-72887500D02*
X17918750Y-72887500D01*
G75*
G02*
X17650000Y-72618750I0J268750D01*
G01*
X17650000Y-72081250D01*
G75*
G02*
X17918750Y-71812500I268750J0D01*
G01*
X18881250Y-71812500D01*
G75*
G02*
X19150000Y-72081250I0J-268750D01*
G01*
X19150000Y-72618750D01*
G75*
G02*
X18881250Y-72887500I-268750J0D01*
G01*
G37*
G36*
G01*
X18881250Y-74762500D02*
X17918750Y-74762500D01*
G75*
G02*
X17650000Y-74493750I0J268750D01*
G01*
X17650000Y-73956250D01*
G75*
G02*
X17918750Y-73687500I268750J0D01*
G01*
X18881250Y-73687500D01*
G75*
G02*
X19150000Y-73956250I0J-268750D01*
G01*
X19150000Y-74493750D01*
G75*
G02*
X18881250Y-74762500I-268750J0D01*
G01*
G37*
%TD*%
%TO.C,R7*%
G36*
G01*
X34581250Y-58962500D02*
X33618750Y-58962500D01*
G75*
G02*
X33350000Y-58693750I0J268750D01*
G01*
X33350000Y-58156250D01*
G75*
G02*
X33618750Y-57887500I268750J0D01*
G01*
X34581250Y-57887500D01*
G75*
G02*
X34850000Y-58156250I0J-268750D01*
G01*
X34850000Y-58693750D01*
G75*
G02*
X34581250Y-58962500I-268750J0D01*
G01*
G37*
G36*
G01*
X34581250Y-60837500D02*
X33618750Y-60837500D01*
G75*
G02*
X33350000Y-60568750I0J268750D01*
G01*
X33350000Y-60031250D01*
G75*
G02*
X33618750Y-59762500I268750J0D01*
G01*
X34581250Y-59762500D01*
G75*
G02*
X34850000Y-60031250I0J-268750D01*
G01*
X34850000Y-60568750D01*
G75*
G02*
X34581250Y-60837500I-268750J0D01*
G01*
G37*
%TD*%
%TO.C,R5*%
G36*
G01*
X22518750Y-96100000D02*
X23481250Y-96100000D01*
G75*
G02*
X23750000Y-96368750I0J-268750D01*
G01*
X23750000Y-96906250D01*
G75*
G02*
X23481250Y-97175000I-268750J0D01*
G01*
X22518750Y-97175000D01*
G75*
G02*
X22250000Y-96906250I0J268750D01*
G01*
X22250000Y-96368750D01*
G75*
G02*
X22518750Y-96100000I268750J0D01*
G01*
G37*
G36*
G01*
X22518750Y-94225000D02*
X23481250Y-94225000D01*
G75*
G02*
X23750000Y-94493750I0J-268750D01*
G01*
X23750000Y-95031250D01*
G75*
G02*
X23481250Y-95300000I-268750J0D01*
G01*
X22518750Y-95300000D01*
G75*
G02*
X22250000Y-95031250I0J268750D01*
G01*
X22250000Y-94493750D01*
G75*
G02*
X22518750Y-94225000I268750J0D01*
G01*
G37*
%TD*%
%TO.C,R4*%
G36*
G01*
X25518750Y-96100000D02*
X26481250Y-96100000D01*
G75*
G02*
X26750000Y-96368750I0J-268750D01*
G01*
X26750000Y-96906250D01*
G75*
G02*
X26481250Y-97175000I-268750J0D01*
G01*
X25518750Y-97175000D01*
G75*
G02*
X25250000Y-96906250I0J268750D01*
G01*
X25250000Y-96368750D01*
G75*
G02*
X25518750Y-96100000I268750J0D01*
G01*
G37*
G36*
G01*
X25518750Y-94225000D02*
X26481250Y-94225000D01*
G75*
G02*
X26750000Y-94493750I0J-268750D01*
G01*
X26750000Y-95031250D01*
G75*
G02*
X26481250Y-95300000I-268750J0D01*
G01*
X25518750Y-95300000D01*
G75*
G02*
X25250000Y-95031250I0J268750D01*
G01*
X25250000Y-94493750D01*
G75*
G02*
X25518750Y-94225000I268750J0D01*
G01*
G37*
%TD*%
%TO.C,R2*%
G36*
G01*
X28518750Y-96100000D02*
X29481250Y-96100000D01*
G75*
G02*
X29750000Y-96368750I0J-268750D01*
G01*
X29750000Y-96906250D01*
G75*
G02*
X29481250Y-97175000I-268750J0D01*
G01*
X28518750Y-97175000D01*
G75*
G02*
X28250000Y-96906250I0J268750D01*
G01*
X28250000Y-96368750D01*
G75*
G02*
X28518750Y-96100000I268750J0D01*
G01*
G37*
G36*
G01*
X28518750Y-94225000D02*
X29481250Y-94225000D01*
G75*
G02*
X29750000Y-94493750I0J-268750D01*
G01*
X29750000Y-95031250D01*
G75*
G02*
X29481250Y-95300000I-268750J0D01*
G01*
X28518750Y-95300000D01*
G75*
G02*
X28250000Y-95031250I0J268750D01*
G01*
X28250000Y-94493750D01*
G75*
G02*
X28518750Y-94225000I268750J0D01*
G01*
G37*
%TD*%
%TO.C,R1*%
G36*
G01*
X31518750Y-96100000D02*
X32481250Y-96100000D01*
G75*
G02*
X32750000Y-96368750I0J-268750D01*
G01*
X32750000Y-96906250D01*
G75*
G02*
X32481250Y-97175000I-268750J0D01*
G01*
X31518750Y-97175000D01*
G75*
G02*
X31250000Y-96906250I0J268750D01*
G01*
X31250000Y-96368750D01*
G75*
G02*
X31518750Y-96100000I268750J0D01*
G01*
G37*
G36*
G01*
X31518750Y-94225000D02*
X32481250Y-94225000D01*
G75*
G02*
X32750000Y-94493750I0J-268750D01*
G01*
X32750000Y-95031250D01*
G75*
G02*
X32481250Y-95300000I-268750J0D01*
G01*
X31518750Y-95300000D01*
G75*
G02*
X31250000Y-95031250I0J268750D01*
G01*
X31250000Y-94493750D01*
G75*
G02*
X31518750Y-94225000I268750J0D01*
G01*
G37*
%TD*%
D17*
%TO.C,P1*%
X32000000Y-99900000D03*
X29000000Y-99900000D03*
X26000000Y-99900000D03*
X23000000Y-99900000D03*
%TD*%
D10*
%TO.C,J10*%
X17020000Y-37310000D03*
X14480000Y-37310000D03*
X11940000Y-37310000D03*
D11*
X9400000Y-37310000D03*
%TD*%
D10*
%TO.C,J9*%
X29390000Y-44800000D03*
X31930000Y-44800000D03*
X34470000Y-44800000D03*
X37010000Y-44800000D03*
D11*
X39550000Y-44800000D03*
%TD*%
D10*
%TO.C,J5*%
X10780000Y-67160000D03*
X13320000Y-67160000D03*
X15860000Y-67160000D03*
D11*
X18400000Y-67160000D03*
%TD*%
D10*
%TO.C,J4*%
X10780000Y-69800000D03*
X13320000Y-69800000D03*
X15860000Y-69800000D03*
D11*
X18400000Y-69800000D03*
%TD*%
D10*
%TO.C,J3*%
X60930000Y-37000000D03*
X58390000Y-37000000D03*
D11*
X55850000Y-37000000D03*
%TD*%
D10*
%TO.C,J2*%
X38100000Y-96520000D03*
D11*
X40640000Y-96520000D03*
%TD*%
D10*
%TO.C,J1*%
X46990000Y-96520000D03*
D11*
X49530000Y-96520000D03*
%TD*%
%TO.C,C36*%
G36*
G01*
X30500000Y-90278262D02*
X30500000Y-89321738D01*
G75*
G02*
X30771738Y-89050000I271738J0D01*
G01*
X31478262Y-89050000D01*
G75*
G02*
X31750000Y-89321738I0J-271738D01*
G01*
X31750000Y-90278262D01*
G75*
G02*
X31478262Y-90550000I-271738J0D01*
G01*
X30771738Y-90550000D01*
G75*
G02*
X30500000Y-90278262I0J271738D01*
G01*
G37*
G36*
G01*
X28450000Y-90278262D02*
X28450000Y-89321738D01*
G75*
G02*
X28721738Y-89050000I271738J0D01*
G01*
X29428262Y-89050000D01*
G75*
G02*
X29700000Y-89321738I0J-271738D01*
G01*
X29700000Y-90278262D01*
G75*
G02*
X29428262Y-90550000I-271738J0D01*
G01*
X28721738Y-90550000D01*
G75*
G02*
X28450000Y-90278262I0J271738D01*
G01*
G37*
%TD*%
%TO.C,C33*%
G36*
G01*
X14700000Y-63878262D02*
X14700000Y-62921738D01*
G75*
G02*
X14971738Y-62650000I271738J0D01*
G01*
X15678262Y-62650000D01*
G75*
G02*
X15950000Y-62921738I0J-271738D01*
G01*
X15950000Y-63878262D01*
G75*
G02*
X15678262Y-64150000I-271738J0D01*
G01*
X14971738Y-64150000D01*
G75*
G02*
X14700000Y-63878262I0J271738D01*
G01*
G37*
G36*
G01*
X12650000Y-63878262D02*
X12650000Y-62921738D01*
G75*
G02*
X12921738Y-62650000I271738J0D01*
G01*
X13628262Y-62650000D01*
G75*
G02*
X13900000Y-62921738I0J-271738D01*
G01*
X13900000Y-63878262D01*
G75*
G02*
X13628262Y-64150000I-271738J0D01*
G01*
X12921738Y-64150000D01*
G75*
G02*
X12650000Y-63878262I0J271738D01*
G01*
G37*
%TD*%
%TO.C,C30*%
G36*
G01*
X39000000Y-51878262D02*
X39000000Y-50921738D01*
G75*
G02*
X39271738Y-50650000I271738J0D01*
G01*
X39978262Y-50650000D01*
G75*
G02*
X40250000Y-50921738I0J-271738D01*
G01*
X40250000Y-51878262D01*
G75*
G02*
X39978262Y-52150000I-271738J0D01*
G01*
X39271738Y-52150000D01*
G75*
G02*
X39000000Y-51878262I0J271738D01*
G01*
G37*
G36*
G01*
X36950000Y-51878262D02*
X36950000Y-50921738D01*
G75*
G02*
X37221738Y-50650000I271738J0D01*
G01*
X37928262Y-50650000D01*
G75*
G02*
X38200000Y-50921738I0J-271738D01*
G01*
X38200000Y-51878262D01*
G75*
G02*
X37928262Y-52150000I-271738J0D01*
G01*
X37221738Y-52150000D01*
G75*
G02*
X36950000Y-51878262I0J271738D01*
G01*
G37*
%TD*%
%TO.C,C29*%
G36*
G01*
X35025000Y-66578262D02*
X35025000Y-65621738D01*
G75*
G02*
X35296738Y-65350000I271738J0D01*
G01*
X36003262Y-65350000D01*
G75*
G02*
X36275000Y-65621738I0J-271738D01*
G01*
X36275000Y-66578262D01*
G75*
G02*
X36003262Y-66850000I-271738J0D01*
G01*
X35296738Y-66850000D01*
G75*
G02*
X35025000Y-66578262I0J271738D01*
G01*
G37*
G36*
G01*
X32975000Y-66578262D02*
X32975000Y-65621738D01*
G75*
G02*
X33246738Y-65350000I271738J0D01*
G01*
X33953262Y-65350000D01*
G75*
G02*
X34225000Y-65621738I0J-271738D01*
G01*
X34225000Y-66578262D01*
G75*
G02*
X33953262Y-66850000I-271738J0D01*
G01*
X33246738Y-66850000D01*
G75*
G02*
X32975000Y-66578262I0J271738D01*
G01*
G37*
%TD*%
%TO.C,C28*%
G36*
G01*
X11450000Y-73571738D02*
X11450000Y-74528262D01*
G75*
G02*
X11178262Y-74800000I-271738J0D01*
G01*
X10471738Y-74800000D01*
G75*
G02*
X10200000Y-74528262I0J271738D01*
G01*
X10200000Y-73571738D01*
G75*
G02*
X10471738Y-73300000I271738J0D01*
G01*
X11178262Y-73300000D01*
G75*
G02*
X11450000Y-73571738I0J-271738D01*
G01*
G37*
G36*
G01*
X13500000Y-73571738D02*
X13500000Y-74528262D01*
G75*
G02*
X13228262Y-74800000I-271738J0D01*
G01*
X12521738Y-74800000D01*
G75*
G02*
X12250000Y-74528262I0J271738D01*
G01*
X12250000Y-73571738D01*
G75*
G02*
X12521738Y-73300000I271738J0D01*
G01*
X13228262Y-73300000D01*
G75*
G02*
X13500000Y-73571738I0J-271738D01*
G01*
G37*
%TD*%
%TO.C,C27*%
G36*
G01*
X50821738Y-56100000D02*
X51778262Y-56100000D01*
G75*
G02*
X52050000Y-56371738I0J-271738D01*
G01*
X52050000Y-57078262D01*
G75*
G02*
X51778262Y-57350000I-271738J0D01*
G01*
X50821738Y-57350000D01*
G75*
G02*
X50550000Y-57078262I0J271738D01*
G01*
X50550000Y-56371738D01*
G75*
G02*
X50821738Y-56100000I271738J0D01*
G01*
G37*
G36*
G01*
X50821738Y-54050000D02*
X51778262Y-54050000D01*
G75*
G02*
X52050000Y-54321738I0J-271738D01*
G01*
X52050000Y-55028262D01*
G75*
G02*
X51778262Y-55300000I-271738J0D01*
G01*
X50821738Y-55300000D01*
G75*
G02*
X50550000Y-55028262I0J271738D01*
G01*
X50550000Y-54321738D01*
G75*
G02*
X50821738Y-54050000I271738J0D01*
G01*
G37*
%TD*%
%TO.C,C25*%
G36*
G01*
X1878262Y-38800000D02*
X921738Y-38800000D01*
G75*
G02*
X650000Y-38528262I0J271738D01*
G01*
X650000Y-37821738D01*
G75*
G02*
X921738Y-37550000I271738J0D01*
G01*
X1878262Y-37550000D01*
G75*
G02*
X2150000Y-37821738I0J-271738D01*
G01*
X2150000Y-38528262D01*
G75*
G02*
X1878262Y-38800000I-271738J0D01*
G01*
G37*
G36*
G01*
X1878262Y-40850000D02*
X921738Y-40850000D01*
G75*
G02*
X650000Y-40578262I0J271738D01*
G01*
X650000Y-39871738D01*
G75*
G02*
X921738Y-39600000I271738J0D01*
G01*
X1878262Y-39600000D01*
G75*
G02*
X2150000Y-39871738I0J-271738D01*
G01*
X2150000Y-40578262D01*
G75*
G02*
X1878262Y-40850000I-271738J0D01*
G01*
G37*
%TD*%
%TO.C,C24*%
G36*
G01*
X67071738Y-53200000D02*
X68028262Y-53200000D01*
G75*
G02*
X68300000Y-53471738I0J-271738D01*
G01*
X68300000Y-54178262D01*
G75*
G02*
X68028262Y-54450000I-271738J0D01*
G01*
X67071738Y-54450000D01*
G75*
G02*
X66800000Y-54178262I0J271738D01*
G01*
X66800000Y-53471738D01*
G75*
G02*
X67071738Y-53200000I271738J0D01*
G01*
G37*
G36*
G01*
X67071738Y-51150000D02*
X68028262Y-51150000D01*
G75*
G02*
X68300000Y-51421738I0J-271738D01*
G01*
X68300000Y-52128262D01*
G75*
G02*
X68028262Y-52400000I-271738J0D01*
G01*
X67071738Y-52400000D01*
G75*
G02*
X66800000Y-52128262I0J271738D01*
G01*
X66800000Y-51421738D01*
G75*
G02*
X67071738Y-51150000I271738J0D01*
G01*
G37*
%TD*%
%TO.C,C23*%
G36*
G01*
X26621738Y-60400000D02*
X27578262Y-60400000D01*
G75*
G02*
X27850000Y-60671738I0J-271738D01*
G01*
X27850000Y-61378262D01*
G75*
G02*
X27578262Y-61650000I-271738J0D01*
G01*
X26621738Y-61650000D01*
G75*
G02*
X26350000Y-61378262I0J271738D01*
G01*
X26350000Y-60671738D01*
G75*
G02*
X26621738Y-60400000I271738J0D01*
G01*
G37*
G36*
G01*
X26621738Y-58350000D02*
X27578262Y-58350000D01*
G75*
G02*
X27850000Y-58621738I0J-271738D01*
G01*
X27850000Y-59328262D01*
G75*
G02*
X27578262Y-59600000I-271738J0D01*
G01*
X26621738Y-59600000D01*
G75*
G02*
X26350000Y-59328262I0J271738D01*
G01*
X26350000Y-58621738D01*
G75*
G02*
X26621738Y-58350000I271738J0D01*
G01*
G37*
%TD*%
%TO.C,C22*%
G36*
G01*
X49150000Y-39928262D02*
X49150000Y-38971738D01*
G75*
G02*
X49421738Y-38700000I271738J0D01*
G01*
X50128262Y-38700000D01*
G75*
G02*
X50400000Y-38971738I0J-271738D01*
G01*
X50400000Y-39928262D01*
G75*
G02*
X50128262Y-40200000I-271738J0D01*
G01*
X49421738Y-40200000D01*
G75*
G02*
X49150000Y-39928262I0J271738D01*
G01*
G37*
G36*
G01*
X47100000Y-39928262D02*
X47100000Y-38971738D01*
G75*
G02*
X47371738Y-38700000I271738J0D01*
G01*
X48078262Y-38700000D01*
G75*
G02*
X48350000Y-38971738I0J-271738D01*
G01*
X48350000Y-39928262D01*
G75*
G02*
X48078262Y-40200000I-271738J0D01*
G01*
X47371738Y-40200000D01*
G75*
G02*
X47100000Y-39928262I0J271738D01*
G01*
G37*
%TD*%
%TO.C,C21*%
G36*
G01*
X27578262Y-55400000D02*
X26621738Y-55400000D01*
G75*
G02*
X26350000Y-55128262I0J271738D01*
G01*
X26350000Y-54421738D01*
G75*
G02*
X26621738Y-54150000I271738J0D01*
G01*
X27578262Y-54150000D01*
G75*
G02*
X27850000Y-54421738I0J-271738D01*
G01*
X27850000Y-55128262D01*
G75*
G02*
X27578262Y-55400000I-271738J0D01*
G01*
G37*
G36*
G01*
X27578262Y-57450000D02*
X26621738Y-57450000D01*
G75*
G02*
X26350000Y-57178262I0J271738D01*
G01*
X26350000Y-56471738D01*
G75*
G02*
X26621738Y-56200000I271738J0D01*
G01*
X27578262Y-56200000D01*
G75*
G02*
X27850000Y-56471738I0J-271738D01*
G01*
X27850000Y-57178262D01*
G75*
G02*
X27578262Y-57450000I-271738J0D01*
G01*
G37*
%TD*%
%TO.C,C20*%
G36*
G01*
X45228262Y-37800000D02*
X44271738Y-37800000D01*
G75*
G02*
X44000000Y-37528262I0J271738D01*
G01*
X44000000Y-36821738D01*
G75*
G02*
X44271738Y-36550000I271738J0D01*
G01*
X45228262Y-36550000D01*
G75*
G02*
X45500000Y-36821738I0J-271738D01*
G01*
X45500000Y-37528262D01*
G75*
G02*
X45228262Y-37800000I-271738J0D01*
G01*
G37*
G36*
G01*
X45228262Y-39850000D02*
X44271738Y-39850000D01*
G75*
G02*
X44000000Y-39578262I0J271738D01*
G01*
X44000000Y-38871738D01*
G75*
G02*
X44271738Y-38600000I271738J0D01*
G01*
X45228262Y-38600000D01*
G75*
G02*
X45500000Y-38871738I0J-271738D01*
G01*
X45500000Y-39578262D01*
G75*
G02*
X45228262Y-39850000I-271738J0D01*
G01*
G37*
%TD*%
D18*
%TO.C,A1*%
X34800000Y-88200000D03*
X34800000Y-85660000D03*
X34800000Y-83120000D03*
X34800000Y-80580000D03*
X34800000Y-78040000D03*
D19*
X34800000Y-75500000D03*
%TD*%
M02*
