%TF.GenerationSoftware,KiCad,Pcbnew,5.1.6-c6e7f7d~86~ubuntu16.04.1*%
%TF.CreationDate,2021-01-12T06:27:11+00:00*%
%TF.ProjectId,fx502p-minimal-sd,66783530-3270-42d6-9d69-6e696d616c2d,rev?*%
%TF.SameCoordinates,Original*%
%TF.FileFunction,Legend,Top*%
%TF.FilePolarity,Positive*%
%FSLAX46Y46*%
G04 Gerber Fmt 4.6, Leading zero omitted, Abs format (unit mm)*
G04 Created by KiCad (PCBNEW 5.1.6-c6e7f7d~86~ubuntu16.04.1) date 2021-01-12 06:27:11*
%MOMM*%
%LPD*%
G01*
G04 APERTURE LIST*
%ADD10C,0.150000*%
%ADD11C,0.120000*%
G04 APERTURE END LIST*
D10*
X61745238Y-48378571D02*
X61888095Y-48426190D01*
X61935714Y-48473809D01*
X61983333Y-48569047D01*
X61983333Y-48711904D01*
X61935714Y-48807142D01*
X61888095Y-48854761D01*
X61792857Y-48902380D01*
X61411904Y-48902380D01*
X61411904Y-47902380D01*
X61745238Y-47902380D01*
X61840476Y-47950000D01*
X61888095Y-47997619D01*
X61935714Y-48092857D01*
X61935714Y-48188095D01*
X61888095Y-48283333D01*
X61840476Y-48330952D01*
X61745238Y-48378571D01*
X61411904Y-48378571D01*
X62935714Y-48902380D02*
X62364285Y-48902380D01*
X62650000Y-48902380D02*
X62650000Y-47902380D01*
X62554761Y-48045238D01*
X62459523Y-48140476D01*
X62364285Y-48188095D01*
X65595238Y-48428571D02*
X65738095Y-48476190D01*
X65785714Y-48523809D01*
X65833333Y-48619047D01*
X65833333Y-48761904D01*
X65785714Y-48857142D01*
X65738095Y-48904761D01*
X65642857Y-48952380D01*
X65261904Y-48952380D01*
X65261904Y-47952380D01*
X65595238Y-47952380D01*
X65690476Y-48000000D01*
X65738095Y-48047619D01*
X65785714Y-48142857D01*
X65785714Y-48238095D01*
X65738095Y-48333333D01*
X65690476Y-48380952D01*
X65595238Y-48428571D01*
X65261904Y-48428571D01*
X66452380Y-47952380D02*
X66547619Y-47952380D01*
X66642857Y-48000000D01*
X66690476Y-48047619D01*
X66738095Y-48142857D01*
X66785714Y-48333333D01*
X66785714Y-48571428D01*
X66738095Y-48761904D01*
X66690476Y-48857142D01*
X66642857Y-48904761D01*
X66547619Y-48952380D01*
X66452380Y-48952380D01*
X66357142Y-48904761D01*
X66309523Y-48857142D01*
X66261904Y-48761904D01*
X66214285Y-48571428D01*
X66214285Y-48333333D01*
X66261904Y-48142857D01*
X66309523Y-48047619D01*
X66357142Y-48000000D01*
X66452380Y-47952380D01*
X68635714Y-45102380D02*
X68064285Y-45102380D01*
X68350000Y-45102380D02*
X68350000Y-44102380D01*
X68254761Y-44245238D01*
X68159523Y-44340476D01*
X68064285Y-44388095D01*
X68152380Y-41002380D02*
X68247619Y-41002380D01*
X68342857Y-41050000D01*
X68390476Y-41097619D01*
X68438095Y-41192857D01*
X68485714Y-41383333D01*
X68485714Y-41621428D01*
X68438095Y-41811904D01*
X68390476Y-41907142D01*
X68342857Y-41954761D01*
X68247619Y-42002380D01*
X68152380Y-42002380D01*
X68057142Y-41954761D01*
X68009523Y-41907142D01*
X67961904Y-41811904D01*
X67914285Y-41621428D01*
X67914285Y-41383333D01*
X67961904Y-41192857D01*
X68009523Y-41097619D01*
X68057142Y-41050000D01*
X68152380Y-41002380D01*
X36085714Y-54252380D02*
X35514285Y-54252380D01*
X35800000Y-54252380D02*
X35800000Y-53252380D01*
X35704761Y-53395238D01*
X35609523Y-53490476D01*
X35514285Y-53538095D01*
X1338095Y-98650000D02*
X1242857Y-98602380D01*
X1100000Y-98602380D01*
X957142Y-98650000D01*
X861904Y-98745238D01*
X814285Y-98840476D01*
X766666Y-99030952D01*
X766666Y-99173809D01*
X814285Y-99364285D01*
X861904Y-99459523D01*
X957142Y-99554761D01*
X1100000Y-99602380D01*
X1195238Y-99602380D01*
X1338095Y-99554761D01*
X1385714Y-99507142D01*
X1385714Y-99173809D01*
X1195238Y-99173809D01*
X1814285Y-99602380D02*
X1814285Y-98602380D01*
X2385714Y-99602380D01*
X2385714Y-98602380D01*
X2861904Y-99602380D02*
X2861904Y-98602380D01*
X3100000Y-98602380D01*
X3242857Y-98650000D01*
X3338095Y-98745238D01*
X3385714Y-98840476D01*
X3433333Y-99030952D01*
X3433333Y-99173809D01*
X3385714Y-99364285D01*
X3338095Y-99459523D01*
X3242857Y-99554761D01*
X3100000Y-99602380D01*
X2861904Y-99602380D01*
X7159523Y-99554761D02*
X7302380Y-99602380D01*
X7540476Y-99602380D01*
X7635714Y-99554761D01*
X7683333Y-99507142D01*
X7730952Y-99411904D01*
X7730952Y-99316666D01*
X7683333Y-99221428D01*
X7635714Y-99173809D01*
X7540476Y-99126190D01*
X7350000Y-99078571D01*
X7254761Y-99030952D01*
X7207142Y-98983333D01*
X7159523Y-98888095D01*
X7159523Y-98792857D01*
X7207142Y-98697619D01*
X7254761Y-98650000D01*
X7350000Y-98602380D01*
X7588095Y-98602380D01*
X7730952Y-98650000D01*
X8730952Y-99507142D02*
X8683333Y-99554761D01*
X8540476Y-99602380D01*
X8445238Y-99602380D01*
X8302380Y-99554761D01*
X8207142Y-99459523D01*
X8159523Y-99364285D01*
X8111904Y-99173809D01*
X8111904Y-99030952D01*
X8159523Y-98840476D01*
X8207142Y-98745238D01*
X8302380Y-98650000D01*
X8445238Y-98602380D01*
X8540476Y-98602380D01*
X8683333Y-98650000D01*
X8730952Y-98697619D01*
X9635714Y-99602380D02*
X9159523Y-99602380D01*
X9159523Y-98602380D01*
X4035714Y-99504761D02*
X4178571Y-99552380D01*
X4416666Y-99552380D01*
X4511904Y-99504761D01*
X4559523Y-99457142D01*
X4607142Y-99361904D01*
X4607142Y-99266666D01*
X4559523Y-99171428D01*
X4511904Y-99123809D01*
X4416666Y-99076190D01*
X4226190Y-99028571D01*
X4130952Y-98980952D01*
X4083333Y-98933333D01*
X4035714Y-98838095D01*
X4035714Y-98742857D01*
X4083333Y-98647619D01*
X4130952Y-98600000D01*
X4226190Y-98552380D01*
X4464285Y-98552380D01*
X4607142Y-98600000D01*
X5035714Y-99552380D02*
X5035714Y-98552380D01*
X5273809Y-98552380D01*
X5416666Y-98600000D01*
X5511904Y-98695238D01*
X5559523Y-98790476D01*
X5607142Y-98980952D01*
X5607142Y-99123809D01*
X5559523Y-99314285D01*
X5511904Y-99409523D01*
X5416666Y-99504761D01*
X5273809Y-99552380D01*
X5035714Y-99552380D01*
X5988095Y-99266666D02*
X6464285Y-99266666D01*
X5892857Y-99552380D02*
X6226190Y-98552380D01*
X6559523Y-99552380D01*
X45004761Y-98402380D02*
X45338095Y-99402380D01*
X45671428Y-98402380D01*
X46576190Y-99307142D02*
X46528571Y-99354761D01*
X46385714Y-99402380D01*
X46290476Y-99402380D01*
X46147619Y-99354761D01*
X46052380Y-99259523D01*
X46004761Y-99164285D01*
X45957142Y-98973809D01*
X45957142Y-98830952D01*
X46004761Y-98640476D01*
X46052380Y-98545238D01*
X46147619Y-98450000D01*
X46290476Y-98402380D01*
X46385714Y-98402380D01*
X46528571Y-98450000D01*
X46576190Y-98497619D01*
X47576190Y-99307142D02*
X47528571Y-99354761D01*
X47385714Y-99402380D01*
X47290476Y-99402380D01*
X47147619Y-99354761D01*
X47052380Y-99259523D01*
X47004761Y-99164285D01*
X46957142Y-98973809D01*
X46957142Y-98830952D01*
X47004761Y-98640476D01*
X47052380Y-98545238D01*
X47147619Y-98450000D01*
X47290476Y-98402380D01*
X47385714Y-98402380D01*
X47528571Y-98450000D01*
X47576190Y-98497619D01*
X48671428Y-98402380D02*
X49290476Y-98402380D01*
X48957142Y-98783333D01*
X49100000Y-98783333D01*
X49195238Y-98830952D01*
X49242857Y-98878571D01*
X49290476Y-98973809D01*
X49290476Y-99211904D01*
X49242857Y-99307142D01*
X49195238Y-99354761D01*
X49100000Y-99402380D01*
X48814285Y-99402380D01*
X48719047Y-99354761D01*
X48671428Y-99307142D01*
X49576190Y-98402380D02*
X49909523Y-99402380D01*
X50242857Y-98402380D01*
X50480952Y-98402380D02*
X51100000Y-98402380D01*
X50766666Y-98783333D01*
X50909523Y-98783333D01*
X51004761Y-98830952D01*
X51052380Y-98878571D01*
X51100000Y-98973809D01*
X51100000Y-99211904D01*
X51052380Y-99307142D01*
X51004761Y-99354761D01*
X50909523Y-99402380D01*
X50623809Y-99402380D01*
X50528571Y-99354761D01*
X50480952Y-99307142D01*
X35723809Y-98302380D02*
X36057142Y-99302380D01*
X36390476Y-98302380D01*
X37295238Y-99207142D02*
X37247619Y-99254761D01*
X37104761Y-99302380D01*
X37009523Y-99302380D01*
X36866666Y-99254761D01*
X36771428Y-99159523D01*
X36723809Y-99064285D01*
X36676190Y-98873809D01*
X36676190Y-98730952D01*
X36723809Y-98540476D01*
X36771428Y-98445238D01*
X36866666Y-98350000D01*
X37009523Y-98302380D01*
X37104761Y-98302380D01*
X37247619Y-98350000D01*
X37295238Y-98397619D01*
X38295238Y-99207142D02*
X38247619Y-99254761D01*
X38104761Y-99302380D01*
X38009523Y-99302380D01*
X37866666Y-99254761D01*
X37771428Y-99159523D01*
X37723809Y-99064285D01*
X37676190Y-98873809D01*
X37676190Y-98730952D01*
X37723809Y-98540476D01*
X37771428Y-98445238D01*
X37866666Y-98350000D01*
X38009523Y-98302380D01*
X38104761Y-98302380D01*
X38247619Y-98350000D01*
X38295238Y-98397619D01*
X40009523Y-98350000D02*
X39914285Y-98302380D01*
X39771428Y-98302380D01*
X39628571Y-98350000D01*
X39533333Y-98445238D01*
X39485714Y-98540476D01*
X39438095Y-98730952D01*
X39438095Y-98873809D01*
X39485714Y-99064285D01*
X39533333Y-99159523D01*
X39628571Y-99254761D01*
X39771428Y-99302380D01*
X39866666Y-99302380D01*
X40009523Y-99254761D01*
X40057142Y-99207142D01*
X40057142Y-98873809D01*
X39866666Y-98873809D01*
X40485714Y-99302380D02*
X40485714Y-98302380D01*
X40866666Y-98302380D01*
X40961904Y-98350000D01*
X41009523Y-98397619D01*
X41057142Y-98492857D01*
X41057142Y-98635714D01*
X41009523Y-98730952D01*
X40961904Y-98778571D01*
X40866666Y-98826190D01*
X40485714Y-98826190D01*
X41485714Y-99302380D02*
X41485714Y-98302380D01*
X42152380Y-98302380D02*
X42342857Y-98302380D01*
X42438095Y-98350000D01*
X42533333Y-98445238D01*
X42580952Y-98635714D01*
X42580952Y-98969047D01*
X42533333Y-99159523D01*
X42438095Y-99254761D01*
X42342857Y-99302380D01*
X42152380Y-99302380D01*
X42057142Y-99254761D01*
X41961904Y-99159523D01*
X41914285Y-98969047D01*
X41914285Y-98635714D01*
X41961904Y-98445238D01*
X42057142Y-98350000D01*
X42152380Y-98302380D01*
X60452380Y-40161904D02*
X60452380Y-39590476D01*
X61452380Y-39876190D02*
X60452380Y-39876190D01*
X60452380Y-39352380D02*
X61452380Y-38685714D01*
X60452380Y-38685714D02*
X61452380Y-39352380D01*
X59002380Y-39616666D02*
X58526190Y-39950000D01*
X59002380Y-40188095D02*
X58002380Y-40188095D01*
X58002380Y-39807142D01*
X58050000Y-39711904D01*
X58097619Y-39664285D01*
X58192857Y-39616666D01*
X58335714Y-39616666D01*
X58430952Y-39664285D01*
X58478571Y-39711904D01*
X58526190Y-39807142D01*
X58526190Y-40188095D01*
X58002380Y-39283333D02*
X59002380Y-38616666D01*
X58002380Y-38616666D02*
X59002380Y-39283333D01*
X5761904Y-39902380D02*
X6380952Y-39902380D01*
X6047619Y-40283333D01*
X6190476Y-40283333D01*
X6285714Y-40330952D01*
X6333333Y-40378571D01*
X6380952Y-40473809D01*
X6380952Y-40711904D01*
X6333333Y-40807142D01*
X6285714Y-40854761D01*
X6190476Y-40902380D01*
X5904761Y-40902380D01*
X5809523Y-40854761D01*
X5761904Y-40807142D01*
X6666666Y-39902380D02*
X7000000Y-40902380D01*
X7333333Y-39902380D01*
X7571428Y-39902380D02*
X8190476Y-39902380D01*
X7857142Y-40283333D01*
X8000000Y-40283333D01*
X8095238Y-40330952D01*
X8142857Y-40378571D01*
X8190476Y-40473809D01*
X8190476Y-40711904D01*
X8142857Y-40807142D01*
X8095238Y-40854761D01*
X8000000Y-40902380D01*
X7714285Y-40902380D01*
X7619047Y-40854761D01*
X7571428Y-40807142D01*
X5688095Y-37700000D02*
X5592857Y-37652380D01*
X5449999Y-37652380D01*
X5307142Y-37700000D01*
X5211904Y-37795238D01*
X5164285Y-37890476D01*
X5116666Y-38080952D01*
X5116666Y-38223809D01*
X5164285Y-38414285D01*
X5211904Y-38509523D01*
X5307142Y-38604761D01*
X5449999Y-38652380D01*
X5545238Y-38652380D01*
X5688095Y-38604761D01*
X5735714Y-38557142D01*
X5735714Y-38223809D01*
X5545238Y-38223809D01*
X6164285Y-38652380D02*
X6164285Y-37652380D01*
X6735714Y-38652380D01*
X6735714Y-37652380D01*
X7211904Y-38652380D02*
X7211904Y-37652380D01*
X7450000Y-37652380D01*
X7592857Y-37700000D01*
X7688095Y-37795238D01*
X7735714Y-37890476D01*
X7783333Y-38080952D01*
X7783333Y-38223809D01*
X7735714Y-38414285D01*
X7688095Y-38509523D01*
X7592857Y-38604761D01*
X7450000Y-38652380D01*
X7211904Y-38652380D01*
X16850000Y-41461904D02*
X16802380Y-41557142D01*
X16802380Y-41700000D01*
X16850000Y-41842857D01*
X16945238Y-41938095D01*
X17040476Y-41985714D01*
X17230952Y-42033333D01*
X17373809Y-42033333D01*
X17564285Y-41985714D01*
X17659523Y-41938095D01*
X17754761Y-41842857D01*
X17802380Y-41700000D01*
X17802380Y-41604761D01*
X17754761Y-41461904D01*
X17707142Y-41414285D01*
X17373809Y-41414285D01*
X17373809Y-41604761D01*
X17802380Y-40985714D02*
X16802380Y-40985714D01*
X17802380Y-40414285D01*
X16802380Y-40414285D01*
X17802380Y-39938095D02*
X16802380Y-39938095D01*
X16802380Y-39700000D01*
X16850000Y-39557142D01*
X16945238Y-39461904D01*
X17040476Y-39414285D01*
X17230952Y-39366666D01*
X17373809Y-39366666D01*
X17564285Y-39414285D01*
X17659523Y-39461904D01*
X17754761Y-39557142D01*
X17802380Y-39700000D01*
X17802380Y-39938095D01*
X15104761Y-44761904D02*
X15152380Y-44619047D01*
X15152380Y-44380952D01*
X15104761Y-44285714D01*
X15057142Y-44238095D01*
X14961904Y-44190476D01*
X14866666Y-44190476D01*
X14771428Y-44238095D01*
X14723809Y-44285714D01*
X14676190Y-44380952D01*
X14628571Y-44571428D01*
X14580952Y-44666666D01*
X14533333Y-44714285D01*
X14438095Y-44761904D01*
X14342857Y-44761904D01*
X14247619Y-44714285D01*
X14200000Y-44666666D01*
X14152380Y-44571428D01*
X14152380Y-44333333D01*
X14200000Y-44190476D01*
X14152380Y-43857142D02*
X15152380Y-43619047D01*
X14438095Y-43428571D01*
X15152380Y-43238095D01*
X14152380Y-43000000D01*
X15152380Y-42619047D02*
X14152380Y-42619047D01*
X14152380Y-42380952D01*
X14200000Y-42238095D01*
X14295238Y-42142857D01*
X14390476Y-42095238D01*
X14580952Y-42047619D01*
X14723809Y-42047619D01*
X14914285Y-42095238D01*
X15009523Y-42142857D01*
X15104761Y-42238095D01*
X15152380Y-42380952D01*
X15152380Y-42619047D01*
X15057142Y-41047619D02*
X15104761Y-41095238D01*
X15152380Y-41238095D01*
X15152380Y-41333333D01*
X15104761Y-41476190D01*
X15009523Y-41571428D01*
X14914285Y-41619047D01*
X14723809Y-41666666D01*
X14580952Y-41666666D01*
X14390476Y-41619047D01*
X14295238Y-41571428D01*
X14200000Y-41476190D01*
X14152380Y-41333333D01*
X14152380Y-41238095D01*
X14200000Y-41095238D01*
X14247619Y-41047619D01*
X15152380Y-40142857D02*
X15152380Y-40619047D01*
X14152380Y-40619047D01*
X15152380Y-39809523D02*
X14152380Y-39809523D01*
X15152380Y-39238095D02*
X14580952Y-39666666D01*
X14152380Y-39238095D02*
X14723809Y-39809523D01*
X12354761Y-43419047D02*
X12402380Y-43276190D01*
X12402380Y-43038095D01*
X12354761Y-42942857D01*
X12307142Y-42895238D01*
X12211904Y-42847619D01*
X12116666Y-42847619D01*
X12021428Y-42895238D01*
X11973809Y-42942857D01*
X11926190Y-43038095D01*
X11878571Y-43228571D01*
X11830952Y-43323809D01*
X11783333Y-43371428D01*
X11688095Y-43419047D01*
X11592857Y-43419047D01*
X11497619Y-43371428D01*
X11450000Y-43323809D01*
X11402380Y-43228571D01*
X11402380Y-42990476D01*
X11450000Y-42847619D01*
X11402380Y-42514285D02*
X12402380Y-42276190D01*
X11688095Y-42085714D01*
X12402380Y-41895238D01*
X11402380Y-41657142D01*
X12402380Y-41276190D02*
X11402380Y-41276190D01*
X11402380Y-41038095D01*
X11450000Y-40895238D01*
X11545238Y-40800000D01*
X11640476Y-40752380D01*
X11830952Y-40704761D01*
X11973809Y-40704761D01*
X12164285Y-40752380D01*
X12259523Y-40800000D01*
X12354761Y-40895238D01*
X12402380Y-41038095D01*
X12402380Y-41276190D01*
X12402380Y-40276190D02*
X11402380Y-40276190D01*
X11402380Y-39609523D02*
X11402380Y-39419047D01*
X11450000Y-39323809D01*
X11545238Y-39228571D01*
X11735714Y-39180952D01*
X12069047Y-39180952D01*
X12259523Y-39228571D01*
X12354761Y-39323809D01*
X12402380Y-39419047D01*
X12402380Y-39609523D01*
X12354761Y-39704761D01*
X12259523Y-39800000D01*
X12069047Y-39847619D01*
X11735714Y-39847619D01*
X11545238Y-39800000D01*
X11450000Y-39704761D01*
X11402380Y-39609523D01*
X9002380Y-41688095D02*
X9002380Y-41069047D01*
X9383333Y-41402380D01*
X9383333Y-41259523D01*
X9430952Y-41164285D01*
X9478571Y-41116666D01*
X9573809Y-41069047D01*
X9811904Y-41069047D01*
X9907142Y-41116666D01*
X9954761Y-41164285D01*
X10002380Y-41259523D01*
X10002380Y-41545238D01*
X9954761Y-41640476D01*
X9907142Y-41688095D01*
X9002380Y-40783333D02*
X10002380Y-40450000D01*
X9002380Y-40116666D01*
X9002380Y-39878571D02*
X9002380Y-39259523D01*
X9383333Y-39592857D01*
X9383333Y-39450000D01*
X9430952Y-39354761D01*
X9478571Y-39307142D01*
X9573809Y-39259523D01*
X9811904Y-39259523D01*
X9907142Y-39307142D01*
X9954761Y-39354761D01*
X10002380Y-39450000D01*
X10002380Y-39735714D01*
X9954761Y-39830952D01*
X9907142Y-39878571D01*
X9852380Y-48428571D02*
X9519047Y-48428571D01*
X9519047Y-48952380D02*
X9519047Y-47952380D01*
X9995238Y-47952380D01*
X10280952Y-47952380D02*
X10947619Y-48952380D01*
X10947619Y-47952380D02*
X10280952Y-48952380D01*
X11328571Y-48571428D02*
X12090476Y-48571428D01*
X13042857Y-47952380D02*
X12566666Y-47952380D01*
X12519047Y-48428571D01*
X12566666Y-48380952D01*
X12661904Y-48333333D01*
X12900000Y-48333333D01*
X12995238Y-48380952D01*
X13042857Y-48428571D01*
X13090476Y-48523809D01*
X13090476Y-48761904D01*
X13042857Y-48857142D01*
X12995238Y-48904761D01*
X12900000Y-48952380D01*
X12661904Y-48952380D01*
X12566666Y-48904761D01*
X12519047Y-48857142D01*
X13709523Y-47952380D02*
X13804761Y-47952380D01*
X13900000Y-48000000D01*
X13947619Y-48047619D01*
X13995238Y-48142857D01*
X14042857Y-48333333D01*
X14042857Y-48571428D01*
X13995238Y-48761904D01*
X13947619Y-48857142D01*
X13900000Y-48904761D01*
X13804761Y-48952380D01*
X13709523Y-48952380D01*
X13614285Y-48904761D01*
X13566666Y-48857142D01*
X13519047Y-48761904D01*
X13471428Y-48571428D01*
X13471428Y-48333333D01*
X13519047Y-48142857D01*
X13566666Y-48047619D01*
X13614285Y-48000000D01*
X13709523Y-47952380D01*
X14423809Y-48047619D02*
X14471428Y-48000000D01*
X14566666Y-47952380D01*
X14804761Y-47952380D01*
X14900000Y-48000000D01*
X14947619Y-48047619D01*
X14995238Y-48142857D01*
X14995238Y-48238095D01*
X14947619Y-48380952D01*
X14376190Y-48952380D01*
X14995238Y-48952380D01*
X15423809Y-48952380D02*
X15423809Y-47952380D01*
X15804761Y-47952380D01*
X15900000Y-48000000D01*
X15947619Y-48047619D01*
X15995238Y-48142857D01*
X15995238Y-48285714D01*
X15947619Y-48380952D01*
X15900000Y-48428571D01*
X15804761Y-48476190D01*
X15423809Y-48476190D01*
X17138095Y-48904761D02*
X17280952Y-48952380D01*
X17519047Y-48952380D01*
X17614285Y-48904761D01*
X17661904Y-48857142D01*
X17709523Y-48761904D01*
X17709523Y-48666666D01*
X17661904Y-48571428D01*
X17614285Y-48523809D01*
X17519047Y-48476190D01*
X17328571Y-48428571D01*
X17233333Y-48380952D01*
X17185714Y-48333333D01*
X17138095Y-48238095D01*
X17138095Y-48142857D01*
X17185714Y-48047619D01*
X17233333Y-48000000D01*
X17328571Y-47952380D01*
X17566666Y-47952380D01*
X17709523Y-48000000D01*
X18138095Y-48952380D02*
X18138095Y-47952380D01*
X18376190Y-47952380D01*
X18519047Y-48000000D01*
X18614285Y-48095238D01*
X18661904Y-48190476D01*
X18709523Y-48380952D01*
X18709523Y-48523809D01*
X18661904Y-48714285D01*
X18614285Y-48809523D01*
X18519047Y-48904761D01*
X18376190Y-48952380D01*
X18138095Y-48952380D01*
X20471428Y-48857142D02*
X20423809Y-48904761D01*
X20280952Y-48952380D01*
X20185714Y-48952380D01*
X20042857Y-48904761D01*
X19947619Y-48809523D01*
X19900000Y-48714285D01*
X19852380Y-48523809D01*
X19852380Y-48380952D01*
X19900000Y-48190476D01*
X19947619Y-48095238D01*
X20042857Y-48000000D01*
X20185714Y-47952380D01*
X20280952Y-47952380D01*
X20423809Y-48000000D01*
X20471428Y-48047619D01*
X20852380Y-48666666D02*
X21328571Y-48666666D01*
X20757142Y-48952380D02*
X21090476Y-47952380D01*
X21423809Y-48952380D01*
X22328571Y-48952380D02*
X21995238Y-48476190D01*
X21757142Y-48952380D02*
X21757142Y-47952380D01*
X22138095Y-47952380D01*
X22233333Y-48000000D01*
X22280952Y-48047619D01*
X22328571Y-48142857D01*
X22328571Y-48285714D01*
X22280952Y-48380952D01*
X22233333Y-48428571D01*
X22138095Y-48476190D01*
X21757142Y-48476190D01*
X22757142Y-48952380D02*
X22757142Y-47952380D01*
X22995238Y-47952380D01*
X23138095Y-48000000D01*
X23233333Y-48095238D01*
X23280952Y-48190476D01*
X23328571Y-48380952D01*
X23328571Y-48523809D01*
X23280952Y-48714285D01*
X23233333Y-48809523D01*
X23138095Y-48904761D01*
X22995238Y-48952380D01*
X22757142Y-48952380D01*
X14400000Y-49650000D02*
X14304761Y-49602380D01*
X14161904Y-49602380D01*
X14019047Y-49650000D01*
X13923809Y-49745238D01*
X13876190Y-49840476D01*
X13828571Y-50030952D01*
X13828571Y-50173809D01*
X13876190Y-50364285D01*
X13923809Y-50459523D01*
X14019047Y-50554761D01*
X14161904Y-50602380D01*
X14257142Y-50602380D01*
X14400000Y-50554761D01*
X14447619Y-50507142D01*
X14447619Y-50173809D01*
X14257142Y-50173809D01*
X14828571Y-50316666D02*
X15304761Y-50316666D01*
X14733333Y-50602380D02*
X15066666Y-49602380D01*
X15400000Y-50602380D01*
X15733333Y-50602380D02*
X15733333Y-49602380D01*
X15971428Y-49602380D01*
X16114285Y-49650000D01*
X16209523Y-49745238D01*
X16257142Y-49840476D01*
X16304761Y-50030952D01*
X16304761Y-50173809D01*
X16257142Y-50364285D01*
X16209523Y-50459523D01*
X16114285Y-50554761D01*
X15971428Y-50602380D01*
X15733333Y-50602380D01*
X17257142Y-49650000D02*
X17161904Y-49602380D01*
X17019047Y-49602380D01*
X16876190Y-49650000D01*
X16780952Y-49745238D01*
X16733333Y-49840476D01*
X16685714Y-50030952D01*
X16685714Y-50173809D01*
X16733333Y-50364285D01*
X16780952Y-50459523D01*
X16876190Y-50554761D01*
X17019047Y-50602380D01*
X17114285Y-50602380D01*
X17257142Y-50554761D01*
X17304761Y-50507142D01*
X17304761Y-50173809D01*
X17114285Y-50173809D01*
X17733333Y-50078571D02*
X18066666Y-50078571D01*
X18209523Y-50602380D02*
X17733333Y-50602380D01*
X17733333Y-49602380D01*
X18209523Y-49602380D01*
X18495238Y-49602380D02*
X19066666Y-49602380D01*
X18780952Y-50602380D02*
X18780952Y-49602380D01*
X14876190Y-51252380D02*
X15209523Y-52252380D01*
X15542857Y-51252380D01*
X16400000Y-52252380D02*
X15828571Y-52252380D01*
X16114285Y-52252380D02*
X16114285Y-51252380D01*
X16019047Y-51395238D01*
X15923809Y-51490476D01*
X15828571Y-51538095D01*
X16828571Y-52157142D02*
X16876190Y-52204761D01*
X16828571Y-52252380D01*
X16780952Y-52204761D01*
X16828571Y-52157142D01*
X16828571Y-52252380D01*
X17495238Y-51252380D02*
X17590476Y-51252380D01*
X17685714Y-51300000D01*
X17733333Y-51347619D01*
X17780952Y-51442857D01*
X17828571Y-51633333D01*
X17828571Y-51871428D01*
X17780952Y-52061904D01*
X17733333Y-52157142D01*
X17685714Y-52204761D01*
X17590476Y-52252380D01*
X17495238Y-52252380D01*
X17400000Y-52204761D01*
X17352380Y-52157142D01*
X17304761Y-52061904D01*
X17257142Y-51871428D01*
X17257142Y-51633333D01*
X17304761Y-51442857D01*
X17352380Y-51347619D01*
X17400000Y-51300000D01*
X17495238Y-51252380D01*
D11*
X29900000Y-69700000D02*
X29900000Y-93700000D01*
X71900000Y-69700000D02*
X29900000Y-69700000D01*
X71900000Y-93700000D02*
X71900000Y-69700000D01*
X29900000Y-93700000D02*
X71900000Y-93700000D01*
X100000Y-65700000D02*
X100000Y-93700000D01*
X29100000Y-65700000D02*
X100000Y-65700000D01*
X29100000Y-93700000D02*
X29100000Y-65700000D01*
X100000Y-93700000D02*
X29100000Y-93700000D01*
%TO.C,J7*%
X2480000Y-62290000D02*
X5140000Y-62290000D01*
X2480000Y-39370000D02*
X2480000Y-62290000D01*
X5140000Y-39370000D02*
X5140000Y-62290000D01*
X2480000Y-39370000D02*
X5140000Y-39370000D01*
X2480000Y-38100000D02*
X2480000Y-36770000D01*
X2480000Y-36770000D02*
X3810000Y-36770000D01*
%TO.C,R11*%
X58041422Y-44190000D02*
X58558578Y-44190000D01*
X58041422Y-45610000D02*
X58558578Y-45610000D01*
%TO.C,R10*%
X58241422Y-40790000D02*
X58758578Y-40790000D01*
X58241422Y-42210000D02*
X58758578Y-42210000D01*
%TO.C,JP4*%
X63700000Y-41900000D02*
G75*
G02*
X63000000Y-42600000I-700000J0D01*
G01*
X63000000Y-40600000D02*
G75*
G02*
X63700000Y-41300000I0J-700000D01*
G01*
X60900000Y-41300000D02*
G75*
G02*
X61600000Y-40600000I700000J0D01*
G01*
X61600000Y-42600000D02*
G75*
G02*
X60900000Y-41900000I0J700000D01*
G01*
X63700000Y-41300000D02*
X63700000Y-41900000D01*
X61600000Y-40600000D02*
X63000000Y-40600000D01*
X60900000Y-41900000D02*
X60900000Y-41300000D01*
X63000000Y-42600000D02*
X61600000Y-42600000D01*
%TO.C,JP3*%
X63700000Y-45200000D02*
G75*
G02*
X63000000Y-45900000I-700000J0D01*
G01*
X63000000Y-43900000D02*
G75*
G02*
X63700000Y-44600000I0J-700000D01*
G01*
X60900000Y-44600000D02*
G75*
G02*
X61600000Y-43900000I700000J0D01*
G01*
X61600000Y-45900000D02*
G75*
G02*
X60900000Y-45200000I0J700000D01*
G01*
X63700000Y-44600000D02*
X63700000Y-45200000D01*
X61600000Y-43900000D02*
X63000000Y-43900000D01*
X60900000Y-45200000D02*
X60900000Y-44600000D01*
X63000000Y-45900000D02*
X61600000Y-45900000D01*
%TO.C,JP2*%
X67300000Y-41900000D02*
G75*
G02*
X66600000Y-42600000I-700000J0D01*
G01*
X66600000Y-40600000D02*
G75*
G02*
X67300000Y-41300000I0J-700000D01*
G01*
X64500000Y-41300000D02*
G75*
G02*
X65200000Y-40600000I700000J0D01*
G01*
X65200000Y-42600000D02*
G75*
G02*
X64500000Y-41900000I0J700000D01*
G01*
X67300000Y-41300000D02*
X67300000Y-41900000D01*
X65200000Y-40600000D02*
X66600000Y-40600000D01*
X64500000Y-41900000D02*
X64500000Y-41300000D01*
X66600000Y-42600000D02*
X65200000Y-42600000D01*
%TO.C,JP1*%
X67300000Y-45200000D02*
G75*
G02*
X66600000Y-45900000I-700000J0D01*
G01*
X66600000Y-43900000D02*
G75*
G02*
X67300000Y-44600000I0J-700000D01*
G01*
X64500000Y-44600000D02*
G75*
G02*
X65200000Y-43900000I700000J0D01*
G01*
X65200000Y-45900000D02*
G75*
G02*
X64500000Y-45200000I0J700000D01*
G01*
X67300000Y-44600000D02*
X67300000Y-45200000D01*
X65200000Y-43900000D02*
X66600000Y-43900000D01*
X64500000Y-45200000D02*
X64500000Y-44600000D01*
X66600000Y-45900000D02*
X65200000Y-45900000D01*
%TO.C,J6*%
X9110000Y-98230000D02*
X9110000Y-95570000D01*
X3970000Y-98230000D02*
X9110000Y-98230000D01*
X3970000Y-95570000D02*
X9110000Y-95570000D01*
X3970000Y-98230000D02*
X3970000Y-95570000D01*
X2700000Y-98230000D02*
X1370000Y-98230000D01*
X1370000Y-98230000D02*
X1370000Y-96900000D01*
%TO.C,X2*%
X33250000Y-63800000D02*
X33250000Y-47825000D01*
X33250000Y-47825000D02*
X28150000Y-47825000D01*
X28150000Y-47825000D02*
X28150000Y-63800000D01*
%TO.C,U3*%
X44090000Y-47410000D02*
X45350000Y-47410000D01*
X50910000Y-47410000D02*
X49650000Y-47410000D01*
X44090000Y-43650000D02*
X44090000Y-47410000D01*
X50910000Y-41400000D02*
X50910000Y-47410000D01*
%TO.C,U1*%
X46360000Y-64810000D02*
X47310000Y-64810000D01*
X47310000Y-64810000D02*
X47310000Y-63860000D01*
X38040000Y-64810000D02*
X37090000Y-64810000D01*
X37090000Y-64810000D02*
X37090000Y-63860000D01*
X46360000Y-54590000D02*
X47310000Y-54590000D01*
X47310000Y-54590000D02*
X47310000Y-55540000D01*
X38040000Y-54590000D02*
X37090000Y-54590000D01*
X37090000Y-54590000D02*
X37090000Y-55540000D01*
X37090000Y-55540000D02*
X35750000Y-55540000D01*
D10*
%TO.C,SW2*%
X60000000Y-50600000D02*
X60000000Y-55800000D01*
X60000000Y-55800000D02*
X65200000Y-55800000D01*
X65200000Y-55800000D02*
X65200000Y-50600000D01*
X65200000Y-50600000D02*
X60000000Y-50600000D01*
D11*
%TO.C,R23*%
X24390000Y-58161252D02*
X24390000Y-57638748D01*
X25810000Y-58161252D02*
X25810000Y-57638748D01*
%TO.C,R21*%
X37691422Y-38090000D02*
X38208578Y-38090000D01*
X37691422Y-39510000D02*
X38208578Y-39510000D01*
%TO.C,R20*%
X37660000Y-41291422D02*
X37660000Y-41808578D01*
X36240000Y-41291422D02*
X36240000Y-41808578D01*
%TO.C,R18*%
X35160000Y-41241422D02*
X35160000Y-41758578D01*
X33740000Y-41241422D02*
X33740000Y-41758578D01*
%TO.C,R9*%
X15190000Y-73458578D02*
X15190000Y-72941422D01*
X16610000Y-73458578D02*
X16610000Y-72941422D01*
%TO.C,R8*%
X17690000Y-73546078D02*
X17690000Y-73028922D01*
X19110000Y-73546078D02*
X19110000Y-73028922D01*
%TO.C,R7*%
X33390000Y-59621078D02*
X33390000Y-59103922D01*
X34810000Y-59621078D02*
X34810000Y-59103922D01*
%TO.C,R5*%
X23710000Y-95441422D02*
X23710000Y-95958578D01*
X22290000Y-95441422D02*
X22290000Y-95958578D01*
%TO.C,R4*%
X26710000Y-95441422D02*
X26710000Y-95958578D01*
X25290000Y-95441422D02*
X25290000Y-95958578D01*
%TO.C,R2*%
X29710000Y-95441422D02*
X29710000Y-95958578D01*
X28290000Y-95441422D02*
X28290000Y-95958578D01*
%TO.C,R1*%
X32710000Y-95441422D02*
X32710000Y-95958578D01*
X31290000Y-95441422D02*
X31290000Y-95958578D01*
%TO.C,P1*%
X21500000Y-101900000D02*
X21500000Y-96900000D01*
X33500000Y-101900000D02*
X21500000Y-101900000D01*
X33500000Y-96900000D02*
X33500000Y-101900000D01*
X21500000Y-96900000D02*
X33500000Y-96900000D01*
%TO.C,J10*%
X18350000Y-38640000D02*
X18350000Y-35980000D01*
X10670000Y-38640000D02*
X18350000Y-38640000D01*
X10670000Y-35980000D02*
X18350000Y-35980000D01*
X10670000Y-38640000D02*
X10670000Y-35980000D01*
X9400000Y-38640000D02*
X8070000Y-38640000D01*
X8070000Y-38640000D02*
X8070000Y-37310000D01*
%TO.C,J9*%
X28060000Y-43470000D02*
X28060000Y-46130000D01*
X38280000Y-43470000D02*
X28060000Y-43470000D01*
X38280000Y-46130000D02*
X28060000Y-46130000D01*
X38280000Y-43470000D02*
X38280000Y-46130000D01*
X39550000Y-43470000D02*
X40880000Y-43470000D01*
X40880000Y-43470000D02*
X40880000Y-44800000D01*
%TO.C,J5*%
X9450000Y-65830000D02*
X9450000Y-68490000D01*
X17130000Y-65830000D02*
X9450000Y-65830000D01*
X17130000Y-68490000D02*
X9450000Y-68490000D01*
X17130000Y-65830000D02*
X17130000Y-68490000D01*
X18400000Y-65830000D02*
X19730000Y-65830000D01*
X19730000Y-65830000D02*
X19730000Y-67160000D01*
%TO.C,J4*%
X9450000Y-68470000D02*
X9450000Y-71130000D01*
X17130000Y-68470000D02*
X9450000Y-68470000D01*
X17130000Y-71130000D02*
X9450000Y-71130000D01*
X17130000Y-68470000D02*
X17130000Y-71130000D01*
X18400000Y-68470000D02*
X19730000Y-68470000D01*
X19730000Y-68470000D02*
X19730000Y-69800000D01*
%TO.C,J3*%
X62260000Y-38330000D02*
X62260000Y-35670000D01*
X57120000Y-38330000D02*
X62260000Y-38330000D01*
X57120000Y-35670000D02*
X62260000Y-35670000D01*
X57120000Y-38330000D02*
X57120000Y-35670000D01*
X55850000Y-38330000D02*
X54520000Y-38330000D01*
X54520000Y-38330000D02*
X54520000Y-37000000D01*
%TO.C,J2*%
X36770000Y-95190000D02*
X36770000Y-97850000D01*
X39370000Y-95190000D02*
X36770000Y-95190000D01*
X39370000Y-97850000D02*
X36770000Y-97850000D01*
X39370000Y-95190000D02*
X39370000Y-97850000D01*
X40640000Y-95190000D02*
X41970000Y-95190000D01*
X41970000Y-95190000D02*
X41970000Y-96520000D01*
%TO.C,J1*%
X45660000Y-95190000D02*
X45660000Y-97850000D01*
X48260000Y-95190000D02*
X45660000Y-95190000D01*
X48260000Y-97850000D02*
X45660000Y-97850000D01*
X48260000Y-95190000D02*
X48260000Y-97850000D01*
X49530000Y-95190000D02*
X50860000Y-95190000D01*
X50860000Y-95190000D02*
X50860000Y-96520000D01*
%TO.C,C36*%
X29838748Y-89090000D02*
X30361252Y-89090000D01*
X29838748Y-90510000D02*
X30361252Y-90510000D01*
%TO.C,C33*%
X14038748Y-62690000D02*
X14561252Y-62690000D01*
X14038748Y-64110000D02*
X14561252Y-64110000D01*
%TO.C,C30*%
X38338748Y-50690000D02*
X38861252Y-50690000D01*
X38338748Y-52110000D02*
X38861252Y-52110000D01*
%TO.C,C29*%
X34363748Y-65390000D02*
X34886252Y-65390000D01*
X34363748Y-66810000D02*
X34886252Y-66810000D01*
%TO.C,C28*%
X12111252Y-74760000D02*
X11588748Y-74760000D01*
X12111252Y-73340000D02*
X11588748Y-73340000D01*
%TO.C,C27*%
X52010000Y-55438748D02*
X52010000Y-55961252D01*
X50590000Y-55438748D02*
X50590000Y-55961252D01*
%TO.C,C25*%
X690000Y-39461252D02*
X690000Y-38938748D01*
X2110000Y-39461252D02*
X2110000Y-38938748D01*
%TO.C,C24*%
X68260000Y-52538748D02*
X68260000Y-53061252D01*
X66840000Y-52538748D02*
X66840000Y-53061252D01*
%TO.C,C23*%
X27810000Y-59738748D02*
X27810000Y-60261252D01*
X26390000Y-59738748D02*
X26390000Y-60261252D01*
%TO.C,C22*%
X48488748Y-38740000D02*
X49011252Y-38740000D01*
X48488748Y-40160000D02*
X49011252Y-40160000D01*
%TO.C,C21*%
X26390000Y-56061252D02*
X26390000Y-55538748D01*
X27810000Y-56061252D02*
X27810000Y-55538748D01*
%TO.C,C20*%
X44040000Y-38461252D02*
X44040000Y-37938748D01*
X45460000Y-38461252D02*
X45460000Y-37938748D01*
%TO.C,A1*%
X53850000Y-86294999D02*
G75*
G02*
X53850000Y-77405000I10160000J4444999D01*
G01*
X33530000Y-72960000D02*
X51310000Y-72960000D01*
X51310000Y-72960000D02*
X51310000Y-90740000D01*
X51310000Y-90740000D02*
X33530000Y-90740000D01*
X33530000Y-90740000D02*
X33530000Y-72960000D01*
X43690000Y-75500000D02*
X43690000Y-88200000D01*
X43690000Y-88200000D02*
X53850000Y-88200000D01*
X43690000Y-75500000D02*
X53850000Y-75500000D01*
X53850000Y-75500000D02*
X53850000Y-77405000D01*
X53850000Y-88200000D02*
X53850000Y-86295000D01*
X53850000Y-76135000D02*
X61470000Y-76135000D01*
X61470000Y-76135000D02*
X61470000Y-87565000D01*
X61470000Y-87565000D02*
X53850000Y-87565000D01*
%TO.C,J7*%
D10*
X3476666Y-35222380D02*
X3476666Y-35936666D01*
X3429047Y-36079523D01*
X3333809Y-36174761D01*
X3190952Y-36222380D01*
X3095714Y-36222380D01*
X3857619Y-35222380D02*
X4524285Y-35222380D01*
X4095714Y-36222380D01*
%TO.C,R11*%
X53957142Y-45352380D02*
X53623809Y-44876190D01*
X53385714Y-45352380D02*
X53385714Y-44352380D01*
X53766666Y-44352380D01*
X53861904Y-44400000D01*
X53909523Y-44447619D01*
X53957142Y-44542857D01*
X53957142Y-44685714D01*
X53909523Y-44780952D01*
X53861904Y-44828571D01*
X53766666Y-44876190D01*
X53385714Y-44876190D01*
X54909523Y-45352380D02*
X54338095Y-45352380D01*
X54623809Y-45352380D02*
X54623809Y-44352380D01*
X54528571Y-44495238D01*
X54433333Y-44590476D01*
X54338095Y-44638095D01*
X55861904Y-45352380D02*
X55290476Y-45352380D01*
X55576190Y-45352380D02*
X55576190Y-44352380D01*
X55480952Y-44495238D01*
X55385714Y-44590476D01*
X55290476Y-44638095D01*
%TO.C,R10*%
X53407142Y-41952380D02*
X53073809Y-41476190D01*
X52835714Y-41952380D02*
X52835714Y-40952380D01*
X53216666Y-40952380D01*
X53311904Y-41000000D01*
X53359523Y-41047619D01*
X53407142Y-41142857D01*
X53407142Y-41285714D01*
X53359523Y-41380952D01*
X53311904Y-41428571D01*
X53216666Y-41476190D01*
X52835714Y-41476190D01*
X54359523Y-41952380D02*
X53788095Y-41952380D01*
X54073809Y-41952380D02*
X54073809Y-40952380D01*
X53978571Y-41095238D01*
X53883333Y-41190476D01*
X53788095Y-41238095D01*
X54978571Y-40952380D02*
X55073809Y-40952380D01*
X55169047Y-41000000D01*
X55216666Y-41047619D01*
X55264285Y-41142857D01*
X55311904Y-41333333D01*
X55311904Y-41571428D01*
X55264285Y-41761904D01*
X55216666Y-41857142D01*
X55169047Y-41904761D01*
X55073809Y-41952380D01*
X54978571Y-41952380D01*
X54883333Y-41904761D01*
X54835714Y-41857142D01*
X54788095Y-41761904D01*
X54740476Y-41571428D01*
X54740476Y-41333333D01*
X54788095Y-41142857D01*
X54835714Y-41047619D01*
X54883333Y-41000000D01*
X54978571Y-40952380D01*
%TO.C,JP4*%
X62816666Y-38952380D02*
X62816666Y-39666666D01*
X62769047Y-39809523D01*
X62673809Y-39904761D01*
X62530952Y-39952380D01*
X62435714Y-39952380D01*
X63292857Y-39952380D02*
X63292857Y-38952380D01*
X63673809Y-38952380D01*
X63769047Y-39000000D01*
X63816666Y-39047619D01*
X63864285Y-39142857D01*
X63864285Y-39285714D01*
X63816666Y-39380952D01*
X63769047Y-39428571D01*
X63673809Y-39476190D01*
X63292857Y-39476190D01*
X64721428Y-39285714D02*
X64721428Y-39952380D01*
X64483333Y-38904761D02*
X64245238Y-39619047D01*
X64864285Y-39619047D01*
%TO.C,JP3*%
X61466666Y-46152380D02*
X61466666Y-46866666D01*
X61419047Y-47009523D01*
X61323809Y-47104761D01*
X61180952Y-47152380D01*
X61085714Y-47152380D01*
X61942857Y-47152380D02*
X61942857Y-46152380D01*
X62323809Y-46152380D01*
X62419047Y-46200000D01*
X62466666Y-46247619D01*
X62514285Y-46342857D01*
X62514285Y-46485714D01*
X62466666Y-46580952D01*
X62419047Y-46628571D01*
X62323809Y-46676190D01*
X61942857Y-46676190D01*
X62847619Y-46152380D02*
X63466666Y-46152380D01*
X63133333Y-46533333D01*
X63276190Y-46533333D01*
X63371428Y-46580952D01*
X63419047Y-46628571D01*
X63466666Y-46723809D01*
X63466666Y-46961904D01*
X63419047Y-47057142D01*
X63371428Y-47104761D01*
X63276190Y-47152380D01*
X62990476Y-47152380D01*
X62895238Y-47104761D01*
X62847619Y-47057142D01*
%TO.C,JP2*%
X66216666Y-39102380D02*
X66216666Y-39816666D01*
X66169047Y-39959523D01*
X66073809Y-40054761D01*
X65930952Y-40102380D01*
X65835714Y-40102380D01*
X66692857Y-40102380D02*
X66692857Y-39102380D01*
X67073809Y-39102380D01*
X67169047Y-39150000D01*
X67216666Y-39197619D01*
X67264285Y-39292857D01*
X67264285Y-39435714D01*
X67216666Y-39530952D01*
X67169047Y-39578571D01*
X67073809Y-39626190D01*
X66692857Y-39626190D01*
X67645238Y-39197619D02*
X67692857Y-39150000D01*
X67788095Y-39102380D01*
X68026190Y-39102380D01*
X68121428Y-39150000D01*
X68169047Y-39197619D01*
X68216666Y-39292857D01*
X68216666Y-39388095D01*
X68169047Y-39530952D01*
X67597619Y-40102380D01*
X68216666Y-40102380D01*
%TO.C,JP1*%
X65066666Y-46152380D02*
X65066666Y-46866666D01*
X65019047Y-47009523D01*
X64923809Y-47104761D01*
X64780952Y-47152380D01*
X64685714Y-47152380D01*
X65542857Y-47152380D02*
X65542857Y-46152380D01*
X65923809Y-46152380D01*
X66019047Y-46200000D01*
X66066666Y-46247619D01*
X66114285Y-46342857D01*
X66114285Y-46485714D01*
X66066666Y-46580952D01*
X66019047Y-46628571D01*
X65923809Y-46676190D01*
X65542857Y-46676190D01*
X67066666Y-47152380D02*
X66495238Y-47152380D01*
X66780952Y-47152380D02*
X66780952Y-46152380D01*
X66685714Y-46295238D01*
X66590476Y-46390476D01*
X66495238Y-46438095D01*
%TO.C,J6*%
X-177619Y-97233333D02*
X536666Y-97233333D01*
X679523Y-97280952D01*
X774761Y-97376190D01*
X822380Y-97519047D01*
X822380Y-97614285D01*
X-177619Y-96328571D02*
X-177619Y-96519047D01*
X-130000Y-96614285D01*
X-82380Y-96661904D01*
X60476Y-96757142D01*
X250952Y-96804761D01*
X631904Y-96804761D01*
X727142Y-96757142D01*
X774761Y-96709523D01*
X822380Y-96614285D01*
X822380Y-96423809D01*
X774761Y-96328571D01*
X727142Y-96280952D01*
X631904Y-96233333D01*
X393809Y-96233333D01*
X298571Y-96280952D01*
X250952Y-96328571D01*
X203333Y-96423809D01*
X203333Y-96614285D01*
X250952Y-96709523D01*
X298571Y-96757142D01*
X393809Y-96804761D01*
%TO.C,X2*%
X26102380Y-47409523D02*
X27102380Y-46742857D01*
X26102380Y-46742857D02*
X27102380Y-47409523D01*
X26197619Y-46409523D02*
X26150000Y-46361904D01*
X26102380Y-46266666D01*
X26102380Y-46028571D01*
X26150000Y-45933333D01*
X26197619Y-45885714D01*
X26292857Y-45838095D01*
X26388095Y-45838095D01*
X26530952Y-45885714D01*
X27102380Y-46457142D01*
X27102380Y-45838095D01*
%TO.C,U3*%
X51452380Y-46261904D02*
X52261904Y-46261904D01*
X52357142Y-46214285D01*
X52404761Y-46166666D01*
X52452380Y-46071428D01*
X52452380Y-45880952D01*
X52404761Y-45785714D01*
X52357142Y-45738095D01*
X52261904Y-45690476D01*
X51452380Y-45690476D01*
X51452380Y-45309523D02*
X51452380Y-44690476D01*
X51833333Y-45023809D01*
X51833333Y-44880952D01*
X51880952Y-44785714D01*
X51928571Y-44738095D01*
X52023809Y-44690476D01*
X52261904Y-44690476D01*
X52357142Y-44738095D01*
X52404761Y-44785714D01*
X52452380Y-44880952D01*
X52452380Y-45166666D01*
X52404761Y-45261904D01*
X52357142Y-45309523D01*
%TO.C,U1*%
X41438095Y-51752380D02*
X41438095Y-52561904D01*
X41485714Y-52657142D01*
X41533333Y-52704761D01*
X41628571Y-52752380D01*
X41819047Y-52752380D01*
X41914285Y-52704761D01*
X41961904Y-52657142D01*
X42009523Y-52561904D01*
X42009523Y-51752380D01*
X43009523Y-52752380D02*
X42438095Y-52752380D01*
X42723809Y-52752380D02*
X42723809Y-51752380D01*
X42628571Y-51895238D01*
X42533333Y-51990476D01*
X42438095Y-52038095D01*
%TO.C,SW2*%
X61266666Y-57414761D02*
X61409523Y-57462380D01*
X61647619Y-57462380D01*
X61742857Y-57414761D01*
X61790476Y-57367142D01*
X61838095Y-57271904D01*
X61838095Y-57176666D01*
X61790476Y-57081428D01*
X61742857Y-57033809D01*
X61647619Y-56986190D01*
X61457142Y-56938571D01*
X61361904Y-56890952D01*
X61314285Y-56843333D01*
X61266666Y-56748095D01*
X61266666Y-56652857D01*
X61314285Y-56557619D01*
X61361904Y-56510000D01*
X61457142Y-56462380D01*
X61695238Y-56462380D01*
X61838095Y-56510000D01*
X62171428Y-56462380D02*
X62409523Y-57462380D01*
X62600000Y-56748095D01*
X62790476Y-57462380D01*
X63028571Y-56462380D01*
X63361904Y-56557619D02*
X63409523Y-56510000D01*
X63504761Y-56462380D01*
X63742857Y-56462380D01*
X63838095Y-56510000D01*
X63885714Y-56557619D01*
X63933333Y-56652857D01*
X63933333Y-56748095D01*
X63885714Y-56890952D01*
X63314285Y-57462380D01*
X63933333Y-57462380D01*
%TO.C,R23*%
X23902380Y-58542857D02*
X23426190Y-58876190D01*
X23902380Y-59114285D02*
X22902380Y-59114285D01*
X22902380Y-58733333D01*
X22950000Y-58638095D01*
X22997619Y-58590476D01*
X23092857Y-58542857D01*
X23235714Y-58542857D01*
X23330952Y-58590476D01*
X23378571Y-58638095D01*
X23426190Y-58733333D01*
X23426190Y-59114285D01*
X22997619Y-58161904D02*
X22950000Y-58114285D01*
X22902380Y-58019047D01*
X22902380Y-57780952D01*
X22950000Y-57685714D01*
X22997619Y-57638095D01*
X23092857Y-57590476D01*
X23188095Y-57590476D01*
X23330952Y-57638095D01*
X23902380Y-58209523D01*
X23902380Y-57590476D01*
X22902380Y-57257142D02*
X22902380Y-56638095D01*
X23283333Y-56971428D01*
X23283333Y-56828571D01*
X23330952Y-56733333D01*
X23378571Y-56685714D01*
X23473809Y-56638095D01*
X23711904Y-56638095D01*
X23807142Y-56685714D01*
X23854761Y-56733333D01*
X23902380Y-56828571D01*
X23902380Y-57114285D01*
X23854761Y-57209523D01*
X23807142Y-57257142D01*
%TO.C,R21*%
X37307142Y-37602380D02*
X36973809Y-37126190D01*
X36735714Y-37602380D02*
X36735714Y-36602380D01*
X37116666Y-36602380D01*
X37211904Y-36650000D01*
X37259523Y-36697619D01*
X37307142Y-36792857D01*
X37307142Y-36935714D01*
X37259523Y-37030952D01*
X37211904Y-37078571D01*
X37116666Y-37126190D01*
X36735714Y-37126190D01*
X37688095Y-36697619D02*
X37735714Y-36650000D01*
X37830952Y-36602380D01*
X38069047Y-36602380D01*
X38164285Y-36650000D01*
X38211904Y-36697619D01*
X38259523Y-36792857D01*
X38259523Y-36888095D01*
X38211904Y-37030952D01*
X37640476Y-37602380D01*
X38259523Y-37602380D01*
X39211904Y-37602380D02*
X38640476Y-37602380D01*
X38926190Y-37602380D02*
X38926190Y-36602380D01*
X38830952Y-36745238D01*
X38735714Y-36840476D01*
X38640476Y-36888095D01*
%TO.C,R20*%
X39302380Y-42092857D02*
X38826190Y-42426190D01*
X39302380Y-42664285D02*
X38302380Y-42664285D01*
X38302380Y-42283333D01*
X38350000Y-42188095D01*
X38397619Y-42140476D01*
X38492857Y-42092857D01*
X38635714Y-42092857D01*
X38730952Y-42140476D01*
X38778571Y-42188095D01*
X38826190Y-42283333D01*
X38826190Y-42664285D01*
X38397619Y-41711904D02*
X38350000Y-41664285D01*
X38302380Y-41569047D01*
X38302380Y-41330952D01*
X38350000Y-41235714D01*
X38397619Y-41188095D01*
X38492857Y-41140476D01*
X38588095Y-41140476D01*
X38730952Y-41188095D01*
X39302380Y-41759523D01*
X39302380Y-41140476D01*
X38302380Y-40521428D02*
X38302380Y-40426190D01*
X38350000Y-40330952D01*
X38397619Y-40283333D01*
X38492857Y-40235714D01*
X38683333Y-40188095D01*
X38921428Y-40188095D01*
X39111904Y-40235714D01*
X39207142Y-40283333D01*
X39254761Y-40330952D01*
X39302380Y-40426190D01*
X39302380Y-40521428D01*
X39254761Y-40616666D01*
X39207142Y-40664285D01*
X39111904Y-40711904D01*
X38921428Y-40759523D01*
X38683333Y-40759523D01*
X38492857Y-40711904D01*
X38397619Y-40664285D01*
X38350000Y-40616666D01*
X38302380Y-40521428D01*
%TO.C,R18*%
X32902380Y-42042857D02*
X32426190Y-42376190D01*
X32902380Y-42614285D02*
X31902380Y-42614285D01*
X31902380Y-42233333D01*
X31950000Y-42138095D01*
X31997619Y-42090476D01*
X32092857Y-42042857D01*
X32235714Y-42042857D01*
X32330952Y-42090476D01*
X32378571Y-42138095D01*
X32426190Y-42233333D01*
X32426190Y-42614285D01*
X32902380Y-41090476D02*
X32902380Y-41661904D01*
X32902380Y-41376190D02*
X31902380Y-41376190D01*
X32045238Y-41471428D01*
X32140476Y-41566666D01*
X32188095Y-41661904D01*
X32330952Y-40519047D02*
X32283333Y-40614285D01*
X32235714Y-40661904D01*
X32140476Y-40709523D01*
X32092857Y-40709523D01*
X31997619Y-40661904D01*
X31950000Y-40614285D01*
X31902380Y-40519047D01*
X31902380Y-40328571D01*
X31950000Y-40233333D01*
X31997619Y-40185714D01*
X32092857Y-40138095D01*
X32140476Y-40138095D01*
X32235714Y-40185714D01*
X32283333Y-40233333D01*
X32330952Y-40328571D01*
X32330952Y-40519047D01*
X32378571Y-40614285D01*
X32426190Y-40661904D01*
X32521428Y-40709523D01*
X32711904Y-40709523D01*
X32807142Y-40661904D01*
X32854761Y-40614285D01*
X32902380Y-40519047D01*
X32902380Y-40328571D01*
X32854761Y-40233333D01*
X32807142Y-40185714D01*
X32711904Y-40138095D01*
X32521428Y-40138095D01*
X32426190Y-40185714D01*
X32378571Y-40233333D01*
X32330952Y-40328571D01*
%TO.C,R9*%
X15833333Y-76952380D02*
X15500000Y-76476190D01*
X15261904Y-76952380D02*
X15261904Y-75952380D01*
X15642857Y-75952380D01*
X15738095Y-76000000D01*
X15785714Y-76047619D01*
X15833333Y-76142857D01*
X15833333Y-76285714D01*
X15785714Y-76380952D01*
X15738095Y-76428571D01*
X15642857Y-76476190D01*
X15261904Y-76476190D01*
X16309523Y-76952380D02*
X16500000Y-76952380D01*
X16595238Y-76904761D01*
X16642857Y-76857142D01*
X16738095Y-76714285D01*
X16785714Y-76523809D01*
X16785714Y-76142857D01*
X16738095Y-76047619D01*
X16690476Y-76000000D01*
X16595238Y-75952380D01*
X16404761Y-75952380D01*
X16309523Y-76000000D01*
X16261904Y-76047619D01*
X16214285Y-76142857D01*
X16214285Y-76380952D01*
X16261904Y-76476190D01*
X16309523Y-76523809D01*
X16404761Y-76571428D01*
X16595238Y-76571428D01*
X16690476Y-76523809D01*
X16738095Y-76476190D01*
X16785714Y-76380952D01*
%TO.C,R8*%
X20633333Y-74102380D02*
X20300000Y-73626190D01*
X20061904Y-74102380D02*
X20061904Y-73102380D01*
X20442857Y-73102380D01*
X20538095Y-73150000D01*
X20585714Y-73197619D01*
X20633333Y-73292857D01*
X20633333Y-73435714D01*
X20585714Y-73530952D01*
X20538095Y-73578571D01*
X20442857Y-73626190D01*
X20061904Y-73626190D01*
X21204761Y-73530952D02*
X21109523Y-73483333D01*
X21061904Y-73435714D01*
X21014285Y-73340476D01*
X21014285Y-73292857D01*
X21061904Y-73197619D01*
X21109523Y-73150000D01*
X21204761Y-73102380D01*
X21395238Y-73102380D01*
X21490476Y-73150000D01*
X21538095Y-73197619D01*
X21585714Y-73292857D01*
X21585714Y-73340476D01*
X21538095Y-73435714D01*
X21490476Y-73483333D01*
X21395238Y-73530952D01*
X21204761Y-73530952D01*
X21109523Y-73578571D01*
X21061904Y-73626190D01*
X21014285Y-73721428D01*
X21014285Y-73911904D01*
X21061904Y-74007142D01*
X21109523Y-74054761D01*
X21204761Y-74102380D01*
X21395238Y-74102380D01*
X21490476Y-74054761D01*
X21538095Y-74007142D01*
X21585714Y-73911904D01*
X21585714Y-73721428D01*
X21538095Y-73626190D01*
X21490476Y-73578571D01*
X21395238Y-73530952D01*
%TO.C,R7*%
X34702380Y-56866666D02*
X34226190Y-57200000D01*
X34702380Y-57438095D02*
X33702380Y-57438095D01*
X33702380Y-57057142D01*
X33750000Y-56961904D01*
X33797619Y-56914285D01*
X33892857Y-56866666D01*
X34035714Y-56866666D01*
X34130952Y-56914285D01*
X34178571Y-56961904D01*
X34226190Y-57057142D01*
X34226190Y-57438095D01*
X33702380Y-56533333D02*
X33702380Y-55866666D01*
X34702380Y-56295238D01*
%TO.C,R5*%
X23502380Y-92816666D02*
X23026190Y-93150000D01*
X23502380Y-93388095D02*
X22502380Y-93388095D01*
X22502380Y-93007142D01*
X22550000Y-92911904D01*
X22597619Y-92864285D01*
X22692857Y-92816666D01*
X22835714Y-92816666D01*
X22930952Y-92864285D01*
X22978571Y-92911904D01*
X23026190Y-93007142D01*
X23026190Y-93388095D01*
X22502380Y-91911904D02*
X22502380Y-92388095D01*
X22978571Y-92435714D01*
X22930952Y-92388095D01*
X22883333Y-92292857D01*
X22883333Y-92054761D01*
X22930952Y-91959523D01*
X22978571Y-91911904D01*
X23073809Y-91864285D01*
X23311904Y-91864285D01*
X23407142Y-91911904D01*
X23454761Y-91959523D01*
X23502380Y-92054761D01*
X23502380Y-92292857D01*
X23454761Y-92388095D01*
X23407142Y-92435714D01*
%TO.C,R4*%
X26502380Y-92716666D02*
X26026190Y-93050000D01*
X26502380Y-93288095D02*
X25502380Y-93288095D01*
X25502380Y-92907142D01*
X25550000Y-92811904D01*
X25597619Y-92764285D01*
X25692857Y-92716666D01*
X25835714Y-92716666D01*
X25930952Y-92764285D01*
X25978571Y-92811904D01*
X26026190Y-92907142D01*
X26026190Y-93288095D01*
X25835714Y-91859523D02*
X26502380Y-91859523D01*
X25454761Y-92097619D02*
X26169047Y-92335714D01*
X26169047Y-91716666D01*
%TO.C,R2*%
X29402380Y-92816666D02*
X28926190Y-93150000D01*
X29402380Y-93388095D02*
X28402380Y-93388095D01*
X28402380Y-93007142D01*
X28450000Y-92911904D01*
X28497619Y-92864285D01*
X28592857Y-92816666D01*
X28735714Y-92816666D01*
X28830952Y-92864285D01*
X28878571Y-92911904D01*
X28926190Y-93007142D01*
X28926190Y-93388095D01*
X28497619Y-92435714D02*
X28450000Y-92388095D01*
X28402380Y-92292857D01*
X28402380Y-92054761D01*
X28450000Y-91959523D01*
X28497619Y-91911904D01*
X28592857Y-91864285D01*
X28688095Y-91864285D01*
X28830952Y-91911904D01*
X29402380Y-92483333D01*
X29402380Y-91864285D01*
%TO.C,R1*%
X32452380Y-92816666D02*
X31976190Y-93150000D01*
X32452380Y-93388095D02*
X31452380Y-93388095D01*
X31452380Y-93007142D01*
X31500000Y-92911904D01*
X31547619Y-92864285D01*
X31642857Y-92816666D01*
X31785714Y-92816666D01*
X31880952Y-92864285D01*
X31928571Y-92911904D01*
X31976190Y-93007142D01*
X31976190Y-93388095D01*
X32452380Y-91864285D02*
X32452380Y-92435714D01*
X32452380Y-92150000D02*
X31452380Y-92150000D01*
X31595238Y-92245238D01*
X31690476Y-92340476D01*
X31738095Y-92435714D01*
%TO.C,P1*%
X19211904Y-96402380D02*
X19211904Y-95402380D01*
X19592857Y-95402380D01*
X19688095Y-95450000D01*
X19735714Y-95497619D01*
X19783333Y-95592857D01*
X19783333Y-95735714D01*
X19735714Y-95830952D01*
X19688095Y-95878571D01*
X19592857Y-95926190D01*
X19211904Y-95926190D01*
X20735714Y-96402380D02*
X20164285Y-96402380D01*
X20450000Y-96402380D02*
X20450000Y-95402380D01*
X20354761Y-95545238D01*
X20259523Y-95640476D01*
X20164285Y-95688095D01*
%TO.C,J10*%
X20290476Y-37202380D02*
X20290476Y-37916666D01*
X20242857Y-38059523D01*
X20147619Y-38154761D01*
X20004761Y-38202380D01*
X19909523Y-38202380D01*
X21290476Y-38202380D02*
X20719047Y-38202380D01*
X21004761Y-38202380D02*
X21004761Y-37202380D01*
X20909523Y-37345238D01*
X20814285Y-37440476D01*
X20719047Y-37488095D01*
X21909523Y-37202380D02*
X22004761Y-37202380D01*
X22100000Y-37250000D01*
X22147619Y-37297619D01*
X22195238Y-37392857D01*
X22242857Y-37583333D01*
X22242857Y-37821428D01*
X22195238Y-38011904D01*
X22147619Y-38107142D01*
X22100000Y-38154761D01*
X22004761Y-38202380D01*
X21909523Y-38202380D01*
X21814285Y-38154761D01*
X21766666Y-38107142D01*
X21719047Y-38011904D01*
X21671428Y-37821428D01*
X21671428Y-37583333D01*
X21719047Y-37392857D01*
X21766666Y-37297619D01*
X21814285Y-37250000D01*
X21909523Y-37202380D01*
%TO.C,J9*%
X41546666Y-44252380D02*
X41546666Y-44966666D01*
X41499047Y-45109523D01*
X41403809Y-45204761D01*
X41260952Y-45252380D01*
X41165714Y-45252380D01*
X42070476Y-45252380D02*
X42260952Y-45252380D01*
X42356190Y-45204761D01*
X42403809Y-45157142D01*
X42499047Y-45014285D01*
X42546666Y-44823809D01*
X42546666Y-44442857D01*
X42499047Y-44347619D01*
X42451428Y-44300000D01*
X42356190Y-44252380D01*
X42165714Y-44252380D01*
X42070476Y-44300000D01*
X42022857Y-44347619D01*
X41975238Y-44442857D01*
X41975238Y-44680952D01*
X42022857Y-44776190D01*
X42070476Y-44823809D01*
X42165714Y-44871428D01*
X42356190Y-44871428D01*
X42451428Y-44823809D01*
X42499047Y-44776190D01*
X42546666Y-44680952D01*
%TO.C,J5*%
X20396666Y-66612380D02*
X20396666Y-67326666D01*
X20349047Y-67469523D01*
X20253809Y-67564761D01*
X20110952Y-67612380D01*
X20015714Y-67612380D01*
X21349047Y-66612380D02*
X20872857Y-66612380D01*
X20825238Y-67088571D01*
X20872857Y-67040952D01*
X20968095Y-66993333D01*
X21206190Y-66993333D01*
X21301428Y-67040952D01*
X21349047Y-67088571D01*
X21396666Y-67183809D01*
X21396666Y-67421904D01*
X21349047Y-67517142D01*
X21301428Y-67564761D01*
X21206190Y-67612380D01*
X20968095Y-67612380D01*
X20872857Y-67564761D01*
X20825238Y-67517142D01*
%TO.C,J4*%
X20396666Y-69252380D02*
X20396666Y-69966666D01*
X20349047Y-70109523D01*
X20253809Y-70204761D01*
X20110952Y-70252380D01*
X20015714Y-70252380D01*
X21301428Y-69585714D02*
X21301428Y-70252380D01*
X21063333Y-69204761D02*
X20825238Y-69919047D01*
X21444285Y-69919047D01*
%TO.C,J3*%
X53186666Y-36452380D02*
X53186666Y-37166666D01*
X53139047Y-37309523D01*
X53043809Y-37404761D01*
X52900952Y-37452380D01*
X52805714Y-37452380D01*
X53567619Y-36452380D02*
X54186666Y-36452380D01*
X53853333Y-36833333D01*
X53996190Y-36833333D01*
X54091428Y-36880952D01*
X54139047Y-36928571D01*
X54186666Y-37023809D01*
X54186666Y-37261904D01*
X54139047Y-37357142D01*
X54091428Y-37404761D01*
X53996190Y-37452380D01*
X53710476Y-37452380D01*
X53615238Y-37404761D01*
X53567619Y-37357142D01*
%TO.C,J2*%
X42636666Y-95972380D02*
X42636666Y-96686666D01*
X42589047Y-96829523D01*
X42493809Y-96924761D01*
X42350952Y-96972380D01*
X42255714Y-96972380D01*
X43065238Y-96067619D02*
X43112857Y-96020000D01*
X43208095Y-95972380D01*
X43446190Y-95972380D01*
X43541428Y-96020000D01*
X43589047Y-96067619D01*
X43636666Y-96162857D01*
X43636666Y-96258095D01*
X43589047Y-96400952D01*
X43017619Y-96972380D01*
X43636666Y-96972380D01*
%TO.C,J1*%
X51616666Y-95452380D02*
X51616666Y-96166666D01*
X51569047Y-96309523D01*
X51473809Y-96404761D01*
X51330952Y-96452380D01*
X51235714Y-96452380D01*
X52616666Y-96452380D02*
X52045238Y-96452380D01*
X52330952Y-96452380D02*
X52330952Y-95452380D01*
X52235714Y-95595238D01*
X52140476Y-95690476D01*
X52045238Y-95738095D01*
%TO.C,C36*%
X30807142Y-88307142D02*
X30759523Y-88354761D01*
X30616666Y-88402380D01*
X30521428Y-88402380D01*
X30378571Y-88354761D01*
X30283333Y-88259523D01*
X30235714Y-88164285D01*
X30188095Y-87973809D01*
X30188095Y-87830952D01*
X30235714Y-87640476D01*
X30283333Y-87545238D01*
X30378571Y-87450000D01*
X30521428Y-87402380D01*
X30616666Y-87402380D01*
X30759523Y-87450000D01*
X30807142Y-87497619D01*
X31140476Y-87402380D02*
X31759523Y-87402380D01*
X31426190Y-87783333D01*
X31569047Y-87783333D01*
X31664285Y-87830952D01*
X31711904Y-87878571D01*
X31759523Y-87973809D01*
X31759523Y-88211904D01*
X31711904Y-88307142D01*
X31664285Y-88354761D01*
X31569047Y-88402380D01*
X31283333Y-88402380D01*
X31188095Y-88354761D01*
X31140476Y-88307142D01*
X32616666Y-87402380D02*
X32426190Y-87402380D01*
X32330952Y-87450000D01*
X32283333Y-87497619D01*
X32188095Y-87640476D01*
X32140476Y-87830952D01*
X32140476Y-88211904D01*
X32188095Y-88307142D01*
X32235714Y-88354761D01*
X32330952Y-88402380D01*
X32521428Y-88402380D01*
X32616666Y-88354761D01*
X32664285Y-88307142D01*
X32711904Y-88211904D01*
X32711904Y-87973809D01*
X32664285Y-87878571D01*
X32616666Y-87830952D01*
X32521428Y-87783333D01*
X32330952Y-87783333D01*
X32235714Y-87830952D01*
X32188095Y-87878571D01*
X32140476Y-87973809D01*
%TO.C,C33*%
X13657142Y-62107142D02*
X13609523Y-62154761D01*
X13466666Y-62202380D01*
X13371428Y-62202380D01*
X13228571Y-62154761D01*
X13133333Y-62059523D01*
X13085714Y-61964285D01*
X13038095Y-61773809D01*
X13038095Y-61630952D01*
X13085714Y-61440476D01*
X13133333Y-61345238D01*
X13228571Y-61250000D01*
X13371428Y-61202380D01*
X13466666Y-61202380D01*
X13609523Y-61250000D01*
X13657142Y-61297619D01*
X13990476Y-61202380D02*
X14609523Y-61202380D01*
X14276190Y-61583333D01*
X14419047Y-61583333D01*
X14514285Y-61630952D01*
X14561904Y-61678571D01*
X14609523Y-61773809D01*
X14609523Y-62011904D01*
X14561904Y-62107142D01*
X14514285Y-62154761D01*
X14419047Y-62202380D01*
X14133333Y-62202380D01*
X14038095Y-62154761D01*
X13990476Y-62107142D01*
X14942857Y-61202380D02*
X15561904Y-61202380D01*
X15228571Y-61583333D01*
X15371428Y-61583333D01*
X15466666Y-61630952D01*
X15514285Y-61678571D01*
X15561904Y-61773809D01*
X15561904Y-62011904D01*
X15514285Y-62107142D01*
X15466666Y-62154761D01*
X15371428Y-62202380D01*
X15085714Y-62202380D01*
X14990476Y-62154761D01*
X14942857Y-62107142D01*
%TO.C,C30*%
X37957142Y-50107142D02*
X37909523Y-50154761D01*
X37766666Y-50202380D01*
X37671428Y-50202380D01*
X37528571Y-50154761D01*
X37433333Y-50059523D01*
X37385714Y-49964285D01*
X37338095Y-49773809D01*
X37338095Y-49630952D01*
X37385714Y-49440476D01*
X37433333Y-49345238D01*
X37528571Y-49250000D01*
X37671428Y-49202380D01*
X37766666Y-49202380D01*
X37909523Y-49250000D01*
X37957142Y-49297619D01*
X38290476Y-49202380D02*
X38909523Y-49202380D01*
X38576190Y-49583333D01*
X38719047Y-49583333D01*
X38814285Y-49630952D01*
X38861904Y-49678571D01*
X38909523Y-49773809D01*
X38909523Y-50011904D01*
X38861904Y-50107142D01*
X38814285Y-50154761D01*
X38719047Y-50202380D01*
X38433333Y-50202380D01*
X38338095Y-50154761D01*
X38290476Y-50107142D01*
X39528571Y-49202380D02*
X39623809Y-49202380D01*
X39719047Y-49250000D01*
X39766666Y-49297619D01*
X39814285Y-49392857D01*
X39861904Y-49583333D01*
X39861904Y-49821428D01*
X39814285Y-50011904D01*
X39766666Y-50107142D01*
X39719047Y-50154761D01*
X39623809Y-50202380D01*
X39528571Y-50202380D01*
X39433333Y-50154761D01*
X39385714Y-50107142D01*
X39338095Y-50011904D01*
X39290476Y-49821428D01*
X39290476Y-49583333D01*
X39338095Y-49392857D01*
X39385714Y-49297619D01*
X39433333Y-49250000D01*
X39528571Y-49202380D01*
%TO.C,C29*%
X34107142Y-68407142D02*
X34059523Y-68454761D01*
X33916666Y-68502380D01*
X33821428Y-68502380D01*
X33678571Y-68454761D01*
X33583333Y-68359523D01*
X33535714Y-68264285D01*
X33488095Y-68073809D01*
X33488095Y-67930952D01*
X33535714Y-67740476D01*
X33583333Y-67645238D01*
X33678571Y-67550000D01*
X33821428Y-67502380D01*
X33916666Y-67502380D01*
X34059523Y-67550000D01*
X34107142Y-67597619D01*
X34488095Y-67597619D02*
X34535714Y-67550000D01*
X34630952Y-67502380D01*
X34869047Y-67502380D01*
X34964285Y-67550000D01*
X35011904Y-67597619D01*
X35059523Y-67692857D01*
X35059523Y-67788095D01*
X35011904Y-67930952D01*
X34440476Y-68502380D01*
X35059523Y-68502380D01*
X35535714Y-68502380D02*
X35726190Y-68502380D01*
X35821428Y-68454761D01*
X35869047Y-68407142D01*
X35964285Y-68264285D01*
X36011904Y-68073809D01*
X36011904Y-67692857D01*
X35964285Y-67597619D01*
X35916666Y-67550000D01*
X35821428Y-67502380D01*
X35630952Y-67502380D01*
X35535714Y-67550000D01*
X35488095Y-67597619D01*
X35440476Y-67692857D01*
X35440476Y-67930952D01*
X35488095Y-68026190D01*
X35535714Y-68073809D01*
X35630952Y-68121428D01*
X35821428Y-68121428D01*
X35916666Y-68073809D01*
X35964285Y-68026190D01*
X36011904Y-67930952D01*
%TO.C,C28*%
X11157142Y-76307142D02*
X11109523Y-76354761D01*
X10966666Y-76402380D01*
X10871428Y-76402380D01*
X10728571Y-76354761D01*
X10633333Y-76259523D01*
X10585714Y-76164285D01*
X10538095Y-75973809D01*
X10538095Y-75830952D01*
X10585714Y-75640476D01*
X10633333Y-75545238D01*
X10728571Y-75450000D01*
X10871428Y-75402380D01*
X10966666Y-75402380D01*
X11109523Y-75450000D01*
X11157142Y-75497619D01*
X11538095Y-75497619D02*
X11585714Y-75450000D01*
X11680952Y-75402380D01*
X11919047Y-75402380D01*
X12014285Y-75450000D01*
X12061904Y-75497619D01*
X12109523Y-75592857D01*
X12109523Y-75688095D01*
X12061904Y-75830952D01*
X11490476Y-76402380D01*
X12109523Y-76402380D01*
X12680952Y-75830952D02*
X12585714Y-75783333D01*
X12538095Y-75735714D01*
X12490476Y-75640476D01*
X12490476Y-75592857D01*
X12538095Y-75497619D01*
X12585714Y-75450000D01*
X12680952Y-75402380D01*
X12871428Y-75402380D01*
X12966666Y-75450000D01*
X13014285Y-75497619D01*
X13061904Y-75592857D01*
X13061904Y-75640476D01*
X13014285Y-75735714D01*
X12966666Y-75783333D01*
X12871428Y-75830952D01*
X12680952Y-75830952D01*
X12585714Y-75878571D01*
X12538095Y-75926190D01*
X12490476Y-76021428D01*
X12490476Y-76211904D01*
X12538095Y-76307142D01*
X12585714Y-76354761D01*
X12680952Y-76402380D01*
X12871428Y-76402380D01*
X12966666Y-76354761D01*
X13014285Y-76307142D01*
X13061904Y-76211904D01*
X13061904Y-76021428D01*
X13014285Y-75926190D01*
X12966666Y-75878571D01*
X12871428Y-75830952D01*
%TO.C,C27*%
X53307142Y-56342857D02*
X53354761Y-56390476D01*
X53402380Y-56533333D01*
X53402380Y-56628571D01*
X53354761Y-56771428D01*
X53259523Y-56866666D01*
X53164285Y-56914285D01*
X52973809Y-56961904D01*
X52830952Y-56961904D01*
X52640476Y-56914285D01*
X52545238Y-56866666D01*
X52450000Y-56771428D01*
X52402380Y-56628571D01*
X52402380Y-56533333D01*
X52450000Y-56390476D01*
X52497619Y-56342857D01*
X52497619Y-55961904D02*
X52450000Y-55914285D01*
X52402380Y-55819047D01*
X52402380Y-55580952D01*
X52450000Y-55485714D01*
X52497619Y-55438095D01*
X52592857Y-55390476D01*
X52688095Y-55390476D01*
X52830952Y-55438095D01*
X53402380Y-56009523D01*
X53402380Y-55390476D01*
X52402380Y-55057142D02*
X52402380Y-54390476D01*
X53402380Y-54819047D01*
%TO.C,C25*%
X1507142Y-43792857D02*
X1554761Y-43840476D01*
X1602380Y-43983333D01*
X1602380Y-44078571D01*
X1554761Y-44221428D01*
X1459523Y-44316666D01*
X1364285Y-44364285D01*
X1173809Y-44411904D01*
X1030952Y-44411904D01*
X840476Y-44364285D01*
X745238Y-44316666D01*
X650000Y-44221428D01*
X602380Y-44078571D01*
X602380Y-43983333D01*
X650000Y-43840476D01*
X697619Y-43792857D01*
X697619Y-43411904D02*
X650000Y-43364285D01*
X602380Y-43269047D01*
X602380Y-43030952D01*
X650000Y-42935714D01*
X697619Y-42888095D01*
X792857Y-42840476D01*
X888095Y-42840476D01*
X1030952Y-42888095D01*
X1602380Y-43459523D01*
X1602380Y-42840476D01*
X602380Y-41935714D02*
X602380Y-42411904D01*
X1078571Y-42459523D01*
X1030952Y-42411904D01*
X983333Y-42316666D01*
X983333Y-42078571D01*
X1030952Y-41983333D01*
X1078571Y-41935714D01*
X1173809Y-41888095D01*
X1411904Y-41888095D01*
X1507142Y-41935714D01*
X1554761Y-41983333D01*
X1602380Y-42078571D01*
X1602380Y-42316666D01*
X1554761Y-42411904D01*
X1507142Y-42459523D01*
%TO.C,C24*%
X67857142Y-57442857D02*
X67904761Y-57490476D01*
X67952380Y-57633333D01*
X67952380Y-57728571D01*
X67904761Y-57871428D01*
X67809523Y-57966666D01*
X67714285Y-58014285D01*
X67523809Y-58061904D01*
X67380952Y-58061904D01*
X67190476Y-58014285D01*
X67095238Y-57966666D01*
X67000000Y-57871428D01*
X66952380Y-57728571D01*
X66952380Y-57633333D01*
X67000000Y-57490476D01*
X67047619Y-57442857D01*
X67047619Y-57061904D02*
X67000000Y-57014285D01*
X66952380Y-56919047D01*
X66952380Y-56680952D01*
X67000000Y-56585714D01*
X67047619Y-56538095D01*
X67142857Y-56490476D01*
X67238095Y-56490476D01*
X67380952Y-56538095D01*
X67952380Y-57109523D01*
X67952380Y-56490476D01*
X67285714Y-55633333D02*
X67952380Y-55633333D01*
X66904761Y-55871428D02*
X67619047Y-56109523D01*
X67619047Y-55490476D01*
%TO.C,C23*%
X27107142Y-64042857D02*
X27154761Y-64090476D01*
X27202380Y-64233333D01*
X27202380Y-64328571D01*
X27154761Y-64471428D01*
X27059523Y-64566666D01*
X26964285Y-64614285D01*
X26773809Y-64661904D01*
X26630952Y-64661904D01*
X26440476Y-64614285D01*
X26345238Y-64566666D01*
X26250000Y-64471428D01*
X26202380Y-64328571D01*
X26202380Y-64233333D01*
X26250000Y-64090476D01*
X26297619Y-64042857D01*
X26297619Y-63661904D02*
X26250000Y-63614285D01*
X26202380Y-63519047D01*
X26202380Y-63280952D01*
X26250000Y-63185714D01*
X26297619Y-63138095D01*
X26392857Y-63090476D01*
X26488095Y-63090476D01*
X26630952Y-63138095D01*
X27202380Y-63709523D01*
X27202380Y-63090476D01*
X26202380Y-62757142D02*
X26202380Y-62138095D01*
X26583333Y-62471428D01*
X26583333Y-62328571D01*
X26630952Y-62233333D01*
X26678571Y-62185714D01*
X26773809Y-62138095D01*
X27011904Y-62138095D01*
X27107142Y-62185714D01*
X27154761Y-62233333D01*
X27202380Y-62328571D01*
X27202380Y-62614285D01*
X27154761Y-62709523D01*
X27107142Y-62757142D01*
%TO.C,C22*%
X48107142Y-38157142D02*
X48059523Y-38204761D01*
X47916666Y-38252380D01*
X47821428Y-38252380D01*
X47678571Y-38204761D01*
X47583333Y-38109523D01*
X47535714Y-38014285D01*
X47488095Y-37823809D01*
X47488095Y-37680952D01*
X47535714Y-37490476D01*
X47583333Y-37395238D01*
X47678571Y-37300000D01*
X47821428Y-37252380D01*
X47916666Y-37252380D01*
X48059523Y-37300000D01*
X48107142Y-37347619D01*
X48488095Y-37347619D02*
X48535714Y-37300000D01*
X48630952Y-37252380D01*
X48869047Y-37252380D01*
X48964285Y-37300000D01*
X49011904Y-37347619D01*
X49059523Y-37442857D01*
X49059523Y-37538095D01*
X49011904Y-37680952D01*
X48440476Y-38252380D01*
X49059523Y-38252380D01*
X49440476Y-37347619D02*
X49488095Y-37300000D01*
X49583333Y-37252380D01*
X49821428Y-37252380D01*
X49916666Y-37300000D01*
X49964285Y-37347619D01*
X50011904Y-37442857D01*
X50011904Y-37538095D01*
X49964285Y-37680952D01*
X49392857Y-38252380D01*
X50011904Y-38252380D01*
%TO.C,C21*%
X25607142Y-53742857D02*
X25654761Y-53790476D01*
X25702380Y-53933333D01*
X25702380Y-54028571D01*
X25654761Y-54171428D01*
X25559523Y-54266666D01*
X25464285Y-54314285D01*
X25273809Y-54361904D01*
X25130952Y-54361904D01*
X24940476Y-54314285D01*
X24845238Y-54266666D01*
X24750000Y-54171428D01*
X24702380Y-54028571D01*
X24702380Y-53933333D01*
X24750000Y-53790476D01*
X24797619Y-53742857D01*
X24797619Y-53361904D02*
X24750000Y-53314285D01*
X24702380Y-53219047D01*
X24702380Y-52980952D01*
X24750000Y-52885714D01*
X24797619Y-52838095D01*
X24892857Y-52790476D01*
X24988095Y-52790476D01*
X25130952Y-52838095D01*
X25702380Y-53409523D01*
X25702380Y-52790476D01*
X25702380Y-51838095D02*
X25702380Y-52409523D01*
X25702380Y-52123809D02*
X24702380Y-52123809D01*
X24845238Y-52219047D01*
X24940476Y-52314285D01*
X24988095Y-52409523D01*
%TO.C,C20*%
X43457142Y-38842857D02*
X43504761Y-38890476D01*
X43552380Y-39033333D01*
X43552380Y-39128571D01*
X43504761Y-39271428D01*
X43409523Y-39366666D01*
X43314285Y-39414285D01*
X43123809Y-39461904D01*
X42980952Y-39461904D01*
X42790476Y-39414285D01*
X42695238Y-39366666D01*
X42600000Y-39271428D01*
X42552380Y-39128571D01*
X42552380Y-39033333D01*
X42600000Y-38890476D01*
X42647619Y-38842857D01*
X42647619Y-38461904D02*
X42600000Y-38414285D01*
X42552380Y-38319047D01*
X42552380Y-38080952D01*
X42600000Y-37985714D01*
X42647619Y-37938095D01*
X42742857Y-37890476D01*
X42838095Y-37890476D01*
X42980952Y-37938095D01*
X43552380Y-38509523D01*
X43552380Y-37890476D01*
X42552380Y-37271428D02*
X42552380Y-37176190D01*
X42600000Y-37080952D01*
X42647619Y-37033333D01*
X42742857Y-36985714D01*
X42933333Y-36938095D01*
X43171428Y-36938095D01*
X43361904Y-36985714D01*
X43457142Y-37033333D01*
X43504761Y-37080952D01*
X43552380Y-37176190D01*
X43552380Y-37271428D01*
X43504761Y-37366666D01*
X43457142Y-37414285D01*
X43361904Y-37461904D01*
X43171428Y-37509523D01*
X42933333Y-37509523D01*
X42742857Y-37461904D01*
X42647619Y-37414285D01*
X42600000Y-37366666D01*
X42552380Y-37271428D01*
%TO.C,A1*%
X56635714Y-69016666D02*
X57111904Y-69016666D01*
X56540476Y-69302380D02*
X56873809Y-68302380D01*
X57207142Y-69302380D01*
X58064285Y-69302380D02*
X57492857Y-69302380D01*
X57778571Y-69302380D02*
X57778571Y-68302380D01*
X57683333Y-68445238D01*
X57588095Y-68540476D01*
X57492857Y-68588095D01*
%TD*%
M02*
