%TF.GenerationSoftware,KiCad,Pcbnew,5.1.6-c6e7f7d~86~ubuntu16.04.1*%
%TF.CreationDate,2021-01-12T06:27:11+00:00*%
%TF.ProjectId,fx502p-minimal-sd,66783530-3270-42d6-9d69-6e696d616c2d,rev?*%
%TF.SameCoordinates,Original*%
%TF.FileFunction,Paste,Top*%
%TF.FilePolarity,Positive*%
%FSLAX46Y46*%
G04 Gerber Fmt 4.6, Leading zero omitted, Abs format (unit mm)*
G04 Created by KiCad (PCBNEW 5.1.6-c6e7f7d~86~ubuntu16.04.1) date 2021-01-12 06:27:11*
%MOMM*%
%LPD*%
G01*
G04 APERTURE LIST*
%ADD10R,2.000000X7.875000*%
%ADD11R,1.500000X2.000000*%
%ADD12R,3.800000X2.000000*%
%ADD13R,1.000000X1.200000*%
G04 APERTURE END LIST*
%TO.C,R11*%
G36*
G01*
X58750000Y-45356250D02*
X58750000Y-44443750D01*
G75*
G02*
X58993750Y-44200000I243750J0D01*
G01*
X59481250Y-44200000D01*
G75*
G02*
X59725000Y-44443750I0J-243750D01*
G01*
X59725000Y-45356250D01*
G75*
G02*
X59481250Y-45600000I-243750J0D01*
G01*
X58993750Y-45600000D01*
G75*
G02*
X58750000Y-45356250I0J243750D01*
G01*
G37*
G36*
G01*
X56875000Y-45356250D02*
X56875000Y-44443750D01*
G75*
G02*
X57118750Y-44200000I243750J0D01*
G01*
X57606250Y-44200000D01*
G75*
G02*
X57850000Y-44443750I0J-243750D01*
G01*
X57850000Y-45356250D01*
G75*
G02*
X57606250Y-45600000I-243750J0D01*
G01*
X57118750Y-45600000D01*
G75*
G02*
X56875000Y-45356250I0J243750D01*
G01*
G37*
%TD*%
%TO.C,R10*%
G36*
G01*
X58950000Y-41956250D02*
X58950000Y-41043750D01*
G75*
G02*
X59193750Y-40800000I243750J0D01*
G01*
X59681250Y-40800000D01*
G75*
G02*
X59925000Y-41043750I0J-243750D01*
G01*
X59925000Y-41956250D01*
G75*
G02*
X59681250Y-42200000I-243750J0D01*
G01*
X59193750Y-42200000D01*
G75*
G02*
X58950000Y-41956250I0J243750D01*
G01*
G37*
G36*
G01*
X57075000Y-41956250D02*
X57075000Y-41043750D01*
G75*
G02*
X57318750Y-40800000I243750J0D01*
G01*
X57806250Y-40800000D01*
G75*
G02*
X58050000Y-41043750I0J-243750D01*
G01*
X58050000Y-41956250D01*
G75*
G02*
X57806250Y-42200000I-243750J0D01*
G01*
X57318750Y-42200000D01*
G75*
G02*
X57075000Y-41956250I0J243750D01*
G01*
G37*
%TD*%
D10*
%TO.C,X2*%
X30700000Y-63837500D03*
X30700000Y-51962500D03*
%TD*%
D11*
%TO.C,U3*%
X49800000Y-42350000D03*
X45200000Y-42350000D03*
X47500000Y-42350000D03*
D12*
X47500000Y-48650000D03*
%TD*%
%TO.C,U1*%
G36*
G01*
X38300000Y-54725000D02*
X38300000Y-53325000D01*
G75*
G02*
X38375000Y-53250000I75000J0D01*
G01*
X38525000Y-53250000D01*
G75*
G02*
X38600000Y-53325000I0J-75000D01*
G01*
X38600000Y-54725000D01*
G75*
G02*
X38525000Y-54800000I-75000J0D01*
G01*
X38375000Y-54800000D01*
G75*
G02*
X38300000Y-54725000I0J75000D01*
G01*
G37*
G36*
G01*
X38800000Y-54725000D02*
X38800000Y-53325000D01*
G75*
G02*
X38875000Y-53250000I75000J0D01*
G01*
X39025000Y-53250000D01*
G75*
G02*
X39100000Y-53325000I0J-75000D01*
G01*
X39100000Y-54725000D01*
G75*
G02*
X39025000Y-54800000I-75000J0D01*
G01*
X38875000Y-54800000D01*
G75*
G02*
X38800000Y-54725000I0J75000D01*
G01*
G37*
G36*
G01*
X39300000Y-54725000D02*
X39300000Y-53325000D01*
G75*
G02*
X39375000Y-53250000I75000J0D01*
G01*
X39525000Y-53250000D01*
G75*
G02*
X39600000Y-53325000I0J-75000D01*
G01*
X39600000Y-54725000D01*
G75*
G02*
X39525000Y-54800000I-75000J0D01*
G01*
X39375000Y-54800000D01*
G75*
G02*
X39300000Y-54725000I0J75000D01*
G01*
G37*
G36*
G01*
X39800000Y-54725000D02*
X39800000Y-53325000D01*
G75*
G02*
X39875000Y-53250000I75000J0D01*
G01*
X40025000Y-53250000D01*
G75*
G02*
X40100000Y-53325000I0J-75000D01*
G01*
X40100000Y-54725000D01*
G75*
G02*
X40025000Y-54800000I-75000J0D01*
G01*
X39875000Y-54800000D01*
G75*
G02*
X39800000Y-54725000I0J75000D01*
G01*
G37*
G36*
G01*
X40300000Y-54725000D02*
X40300000Y-53325000D01*
G75*
G02*
X40375000Y-53250000I75000J0D01*
G01*
X40525000Y-53250000D01*
G75*
G02*
X40600000Y-53325000I0J-75000D01*
G01*
X40600000Y-54725000D01*
G75*
G02*
X40525000Y-54800000I-75000J0D01*
G01*
X40375000Y-54800000D01*
G75*
G02*
X40300000Y-54725000I0J75000D01*
G01*
G37*
G36*
G01*
X40800000Y-54725000D02*
X40800000Y-53325000D01*
G75*
G02*
X40875000Y-53250000I75000J0D01*
G01*
X41025000Y-53250000D01*
G75*
G02*
X41100000Y-53325000I0J-75000D01*
G01*
X41100000Y-54725000D01*
G75*
G02*
X41025000Y-54800000I-75000J0D01*
G01*
X40875000Y-54800000D01*
G75*
G02*
X40800000Y-54725000I0J75000D01*
G01*
G37*
G36*
G01*
X41300000Y-54725000D02*
X41300000Y-53325000D01*
G75*
G02*
X41375000Y-53250000I75000J0D01*
G01*
X41525000Y-53250000D01*
G75*
G02*
X41600000Y-53325000I0J-75000D01*
G01*
X41600000Y-54725000D01*
G75*
G02*
X41525000Y-54800000I-75000J0D01*
G01*
X41375000Y-54800000D01*
G75*
G02*
X41300000Y-54725000I0J75000D01*
G01*
G37*
G36*
G01*
X41800000Y-54725000D02*
X41800000Y-53325000D01*
G75*
G02*
X41875000Y-53250000I75000J0D01*
G01*
X42025000Y-53250000D01*
G75*
G02*
X42100000Y-53325000I0J-75000D01*
G01*
X42100000Y-54725000D01*
G75*
G02*
X42025000Y-54800000I-75000J0D01*
G01*
X41875000Y-54800000D01*
G75*
G02*
X41800000Y-54725000I0J75000D01*
G01*
G37*
G36*
G01*
X42300000Y-54725000D02*
X42300000Y-53325000D01*
G75*
G02*
X42375000Y-53250000I75000J0D01*
G01*
X42525000Y-53250000D01*
G75*
G02*
X42600000Y-53325000I0J-75000D01*
G01*
X42600000Y-54725000D01*
G75*
G02*
X42525000Y-54800000I-75000J0D01*
G01*
X42375000Y-54800000D01*
G75*
G02*
X42300000Y-54725000I0J75000D01*
G01*
G37*
G36*
G01*
X42800000Y-54725000D02*
X42800000Y-53325000D01*
G75*
G02*
X42875000Y-53250000I75000J0D01*
G01*
X43025000Y-53250000D01*
G75*
G02*
X43100000Y-53325000I0J-75000D01*
G01*
X43100000Y-54725000D01*
G75*
G02*
X43025000Y-54800000I-75000J0D01*
G01*
X42875000Y-54800000D01*
G75*
G02*
X42800000Y-54725000I0J75000D01*
G01*
G37*
G36*
G01*
X43300000Y-54725000D02*
X43300000Y-53325000D01*
G75*
G02*
X43375000Y-53250000I75000J0D01*
G01*
X43525000Y-53250000D01*
G75*
G02*
X43600000Y-53325000I0J-75000D01*
G01*
X43600000Y-54725000D01*
G75*
G02*
X43525000Y-54800000I-75000J0D01*
G01*
X43375000Y-54800000D01*
G75*
G02*
X43300000Y-54725000I0J75000D01*
G01*
G37*
G36*
G01*
X43800000Y-54725000D02*
X43800000Y-53325000D01*
G75*
G02*
X43875000Y-53250000I75000J0D01*
G01*
X44025000Y-53250000D01*
G75*
G02*
X44100000Y-53325000I0J-75000D01*
G01*
X44100000Y-54725000D01*
G75*
G02*
X44025000Y-54800000I-75000J0D01*
G01*
X43875000Y-54800000D01*
G75*
G02*
X43800000Y-54725000I0J75000D01*
G01*
G37*
G36*
G01*
X44300000Y-54725000D02*
X44300000Y-53325000D01*
G75*
G02*
X44375000Y-53250000I75000J0D01*
G01*
X44525000Y-53250000D01*
G75*
G02*
X44600000Y-53325000I0J-75000D01*
G01*
X44600000Y-54725000D01*
G75*
G02*
X44525000Y-54800000I-75000J0D01*
G01*
X44375000Y-54800000D01*
G75*
G02*
X44300000Y-54725000I0J75000D01*
G01*
G37*
G36*
G01*
X44800000Y-54725000D02*
X44800000Y-53325000D01*
G75*
G02*
X44875000Y-53250000I75000J0D01*
G01*
X45025000Y-53250000D01*
G75*
G02*
X45100000Y-53325000I0J-75000D01*
G01*
X45100000Y-54725000D01*
G75*
G02*
X45025000Y-54800000I-75000J0D01*
G01*
X44875000Y-54800000D01*
G75*
G02*
X44800000Y-54725000I0J75000D01*
G01*
G37*
G36*
G01*
X45300000Y-54725000D02*
X45300000Y-53325000D01*
G75*
G02*
X45375000Y-53250000I75000J0D01*
G01*
X45525000Y-53250000D01*
G75*
G02*
X45600000Y-53325000I0J-75000D01*
G01*
X45600000Y-54725000D01*
G75*
G02*
X45525000Y-54800000I-75000J0D01*
G01*
X45375000Y-54800000D01*
G75*
G02*
X45300000Y-54725000I0J75000D01*
G01*
G37*
G36*
G01*
X45800000Y-54725000D02*
X45800000Y-53325000D01*
G75*
G02*
X45875000Y-53250000I75000J0D01*
G01*
X46025000Y-53250000D01*
G75*
G02*
X46100000Y-53325000I0J-75000D01*
G01*
X46100000Y-54725000D01*
G75*
G02*
X46025000Y-54800000I-75000J0D01*
G01*
X45875000Y-54800000D01*
G75*
G02*
X45800000Y-54725000I0J75000D01*
G01*
G37*
G36*
G01*
X47100000Y-56025000D02*
X47100000Y-55875000D01*
G75*
G02*
X47175000Y-55800000I75000J0D01*
G01*
X48575000Y-55800000D01*
G75*
G02*
X48650000Y-55875000I0J-75000D01*
G01*
X48650000Y-56025000D01*
G75*
G02*
X48575000Y-56100000I-75000J0D01*
G01*
X47175000Y-56100000D01*
G75*
G02*
X47100000Y-56025000I0J75000D01*
G01*
G37*
G36*
G01*
X47100000Y-56525000D02*
X47100000Y-56375000D01*
G75*
G02*
X47175000Y-56300000I75000J0D01*
G01*
X48575000Y-56300000D01*
G75*
G02*
X48650000Y-56375000I0J-75000D01*
G01*
X48650000Y-56525000D01*
G75*
G02*
X48575000Y-56600000I-75000J0D01*
G01*
X47175000Y-56600000D01*
G75*
G02*
X47100000Y-56525000I0J75000D01*
G01*
G37*
G36*
G01*
X47100000Y-57025000D02*
X47100000Y-56875000D01*
G75*
G02*
X47175000Y-56800000I75000J0D01*
G01*
X48575000Y-56800000D01*
G75*
G02*
X48650000Y-56875000I0J-75000D01*
G01*
X48650000Y-57025000D01*
G75*
G02*
X48575000Y-57100000I-75000J0D01*
G01*
X47175000Y-57100000D01*
G75*
G02*
X47100000Y-57025000I0J75000D01*
G01*
G37*
G36*
G01*
X47100000Y-57525000D02*
X47100000Y-57375000D01*
G75*
G02*
X47175000Y-57300000I75000J0D01*
G01*
X48575000Y-57300000D01*
G75*
G02*
X48650000Y-57375000I0J-75000D01*
G01*
X48650000Y-57525000D01*
G75*
G02*
X48575000Y-57600000I-75000J0D01*
G01*
X47175000Y-57600000D01*
G75*
G02*
X47100000Y-57525000I0J75000D01*
G01*
G37*
G36*
G01*
X47100000Y-58025000D02*
X47100000Y-57875000D01*
G75*
G02*
X47175000Y-57800000I75000J0D01*
G01*
X48575000Y-57800000D01*
G75*
G02*
X48650000Y-57875000I0J-75000D01*
G01*
X48650000Y-58025000D01*
G75*
G02*
X48575000Y-58100000I-75000J0D01*
G01*
X47175000Y-58100000D01*
G75*
G02*
X47100000Y-58025000I0J75000D01*
G01*
G37*
G36*
G01*
X47100000Y-58525000D02*
X47100000Y-58375000D01*
G75*
G02*
X47175000Y-58300000I75000J0D01*
G01*
X48575000Y-58300000D01*
G75*
G02*
X48650000Y-58375000I0J-75000D01*
G01*
X48650000Y-58525000D01*
G75*
G02*
X48575000Y-58600000I-75000J0D01*
G01*
X47175000Y-58600000D01*
G75*
G02*
X47100000Y-58525000I0J75000D01*
G01*
G37*
G36*
G01*
X47100000Y-59025000D02*
X47100000Y-58875000D01*
G75*
G02*
X47175000Y-58800000I75000J0D01*
G01*
X48575000Y-58800000D01*
G75*
G02*
X48650000Y-58875000I0J-75000D01*
G01*
X48650000Y-59025000D01*
G75*
G02*
X48575000Y-59100000I-75000J0D01*
G01*
X47175000Y-59100000D01*
G75*
G02*
X47100000Y-59025000I0J75000D01*
G01*
G37*
G36*
G01*
X47100000Y-59525000D02*
X47100000Y-59375000D01*
G75*
G02*
X47175000Y-59300000I75000J0D01*
G01*
X48575000Y-59300000D01*
G75*
G02*
X48650000Y-59375000I0J-75000D01*
G01*
X48650000Y-59525000D01*
G75*
G02*
X48575000Y-59600000I-75000J0D01*
G01*
X47175000Y-59600000D01*
G75*
G02*
X47100000Y-59525000I0J75000D01*
G01*
G37*
G36*
G01*
X47100000Y-60025000D02*
X47100000Y-59875000D01*
G75*
G02*
X47175000Y-59800000I75000J0D01*
G01*
X48575000Y-59800000D01*
G75*
G02*
X48650000Y-59875000I0J-75000D01*
G01*
X48650000Y-60025000D01*
G75*
G02*
X48575000Y-60100000I-75000J0D01*
G01*
X47175000Y-60100000D01*
G75*
G02*
X47100000Y-60025000I0J75000D01*
G01*
G37*
G36*
G01*
X47100000Y-60525000D02*
X47100000Y-60375000D01*
G75*
G02*
X47175000Y-60300000I75000J0D01*
G01*
X48575000Y-60300000D01*
G75*
G02*
X48650000Y-60375000I0J-75000D01*
G01*
X48650000Y-60525000D01*
G75*
G02*
X48575000Y-60600000I-75000J0D01*
G01*
X47175000Y-60600000D01*
G75*
G02*
X47100000Y-60525000I0J75000D01*
G01*
G37*
G36*
G01*
X47100000Y-61025000D02*
X47100000Y-60875000D01*
G75*
G02*
X47175000Y-60800000I75000J0D01*
G01*
X48575000Y-60800000D01*
G75*
G02*
X48650000Y-60875000I0J-75000D01*
G01*
X48650000Y-61025000D01*
G75*
G02*
X48575000Y-61100000I-75000J0D01*
G01*
X47175000Y-61100000D01*
G75*
G02*
X47100000Y-61025000I0J75000D01*
G01*
G37*
G36*
G01*
X47100000Y-61525000D02*
X47100000Y-61375000D01*
G75*
G02*
X47175000Y-61300000I75000J0D01*
G01*
X48575000Y-61300000D01*
G75*
G02*
X48650000Y-61375000I0J-75000D01*
G01*
X48650000Y-61525000D01*
G75*
G02*
X48575000Y-61600000I-75000J0D01*
G01*
X47175000Y-61600000D01*
G75*
G02*
X47100000Y-61525000I0J75000D01*
G01*
G37*
G36*
G01*
X47100000Y-62025000D02*
X47100000Y-61875000D01*
G75*
G02*
X47175000Y-61800000I75000J0D01*
G01*
X48575000Y-61800000D01*
G75*
G02*
X48650000Y-61875000I0J-75000D01*
G01*
X48650000Y-62025000D01*
G75*
G02*
X48575000Y-62100000I-75000J0D01*
G01*
X47175000Y-62100000D01*
G75*
G02*
X47100000Y-62025000I0J75000D01*
G01*
G37*
G36*
G01*
X47100000Y-62525000D02*
X47100000Y-62375000D01*
G75*
G02*
X47175000Y-62300000I75000J0D01*
G01*
X48575000Y-62300000D01*
G75*
G02*
X48650000Y-62375000I0J-75000D01*
G01*
X48650000Y-62525000D01*
G75*
G02*
X48575000Y-62600000I-75000J0D01*
G01*
X47175000Y-62600000D01*
G75*
G02*
X47100000Y-62525000I0J75000D01*
G01*
G37*
G36*
G01*
X47100000Y-63025000D02*
X47100000Y-62875000D01*
G75*
G02*
X47175000Y-62800000I75000J0D01*
G01*
X48575000Y-62800000D01*
G75*
G02*
X48650000Y-62875000I0J-75000D01*
G01*
X48650000Y-63025000D01*
G75*
G02*
X48575000Y-63100000I-75000J0D01*
G01*
X47175000Y-63100000D01*
G75*
G02*
X47100000Y-63025000I0J75000D01*
G01*
G37*
G36*
G01*
X47100000Y-63525000D02*
X47100000Y-63375000D01*
G75*
G02*
X47175000Y-63300000I75000J0D01*
G01*
X48575000Y-63300000D01*
G75*
G02*
X48650000Y-63375000I0J-75000D01*
G01*
X48650000Y-63525000D01*
G75*
G02*
X48575000Y-63600000I-75000J0D01*
G01*
X47175000Y-63600000D01*
G75*
G02*
X47100000Y-63525000I0J75000D01*
G01*
G37*
G36*
G01*
X45800000Y-66075000D02*
X45800000Y-64675000D01*
G75*
G02*
X45875000Y-64600000I75000J0D01*
G01*
X46025000Y-64600000D01*
G75*
G02*
X46100000Y-64675000I0J-75000D01*
G01*
X46100000Y-66075000D01*
G75*
G02*
X46025000Y-66150000I-75000J0D01*
G01*
X45875000Y-66150000D01*
G75*
G02*
X45800000Y-66075000I0J75000D01*
G01*
G37*
G36*
G01*
X45300000Y-66075000D02*
X45300000Y-64675000D01*
G75*
G02*
X45375000Y-64600000I75000J0D01*
G01*
X45525000Y-64600000D01*
G75*
G02*
X45600000Y-64675000I0J-75000D01*
G01*
X45600000Y-66075000D01*
G75*
G02*
X45525000Y-66150000I-75000J0D01*
G01*
X45375000Y-66150000D01*
G75*
G02*
X45300000Y-66075000I0J75000D01*
G01*
G37*
G36*
G01*
X44800000Y-66075000D02*
X44800000Y-64675000D01*
G75*
G02*
X44875000Y-64600000I75000J0D01*
G01*
X45025000Y-64600000D01*
G75*
G02*
X45100000Y-64675000I0J-75000D01*
G01*
X45100000Y-66075000D01*
G75*
G02*
X45025000Y-66150000I-75000J0D01*
G01*
X44875000Y-66150000D01*
G75*
G02*
X44800000Y-66075000I0J75000D01*
G01*
G37*
G36*
G01*
X44300000Y-66075000D02*
X44300000Y-64675000D01*
G75*
G02*
X44375000Y-64600000I75000J0D01*
G01*
X44525000Y-64600000D01*
G75*
G02*
X44600000Y-64675000I0J-75000D01*
G01*
X44600000Y-66075000D01*
G75*
G02*
X44525000Y-66150000I-75000J0D01*
G01*
X44375000Y-66150000D01*
G75*
G02*
X44300000Y-66075000I0J75000D01*
G01*
G37*
G36*
G01*
X43800000Y-66075000D02*
X43800000Y-64675000D01*
G75*
G02*
X43875000Y-64600000I75000J0D01*
G01*
X44025000Y-64600000D01*
G75*
G02*
X44100000Y-64675000I0J-75000D01*
G01*
X44100000Y-66075000D01*
G75*
G02*
X44025000Y-66150000I-75000J0D01*
G01*
X43875000Y-66150000D01*
G75*
G02*
X43800000Y-66075000I0J75000D01*
G01*
G37*
G36*
G01*
X43300000Y-66075000D02*
X43300000Y-64675000D01*
G75*
G02*
X43375000Y-64600000I75000J0D01*
G01*
X43525000Y-64600000D01*
G75*
G02*
X43600000Y-64675000I0J-75000D01*
G01*
X43600000Y-66075000D01*
G75*
G02*
X43525000Y-66150000I-75000J0D01*
G01*
X43375000Y-66150000D01*
G75*
G02*
X43300000Y-66075000I0J75000D01*
G01*
G37*
G36*
G01*
X42800000Y-66075000D02*
X42800000Y-64675000D01*
G75*
G02*
X42875000Y-64600000I75000J0D01*
G01*
X43025000Y-64600000D01*
G75*
G02*
X43100000Y-64675000I0J-75000D01*
G01*
X43100000Y-66075000D01*
G75*
G02*
X43025000Y-66150000I-75000J0D01*
G01*
X42875000Y-66150000D01*
G75*
G02*
X42800000Y-66075000I0J75000D01*
G01*
G37*
G36*
G01*
X42300000Y-66075000D02*
X42300000Y-64675000D01*
G75*
G02*
X42375000Y-64600000I75000J0D01*
G01*
X42525000Y-64600000D01*
G75*
G02*
X42600000Y-64675000I0J-75000D01*
G01*
X42600000Y-66075000D01*
G75*
G02*
X42525000Y-66150000I-75000J0D01*
G01*
X42375000Y-66150000D01*
G75*
G02*
X42300000Y-66075000I0J75000D01*
G01*
G37*
G36*
G01*
X41800000Y-66075000D02*
X41800000Y-64675000D01*
G75*
G02*
X41875000Y-64600000I75000J0D01*
G01*
X42025000Y-64600000D01*
G75*
G02*
X42100000Y-64675000I0J-75000D01*
G01*
X42100000Y-66075000D01*
G75*
G02*
X42025000Y-66150000I-75000J0D01*
G01*
X41875000Y-66150000D01*
G75*
G02*
X41800000Y-66075000I0J75000D01*
G01*
G37*
G36*
G01*
X41300000Y-66075000D02*
X41300000Y-64675000D01*
G75*
G02*
X41375000Y-64600000I75000J0D01*
G01*
X41525000Y-64600000D01*
G75*
G02*
X41600000Y-64675000I0J-75000D01*
G01*
X41600000Y-66075000D01*
G75*
G02*
X41525000Y-66150000I-75000J0D01*
G01*
X41375000Y-66150000D01*
G75*
G02*
X41300000Y-66075000I0J75000D01*
G01*
G37*
G36*
G01*
X40800000Y-66075000D02*
X40800000Y-64675000D01*
G75*
G02*
X40875000Y-64600000I75000J0D01*
G01*
X41025000Y-64600000D01*
G75*
G02*
X41100000Y-64675000I0J-75000D01*
G01*
X41100000Y-66075000D01*
G75*
G02*
X41025000Y-66150000I-75000J0D01*
G01*
X40875000Y-66150000D01*
G75*
G02*
X40800000Y-66075000I0J75000D01*
G01*
G37*
G36*
G01*
X40300000Y-66075000D02*
X40300000Y-64675000D01*
G75*
G02*
X40375000Y-64600000I75000J0D01*
G01*
X40525000Y-64600000D01*
G75*
G02*
X40600000Y-64675000I0J-75000D01*
G01*
X40600000Y-66075000D01*
G75*
G02*
X40525000Y-66150000I-75000J0D01*
G01*
X40375000Y-66150000D01*
G75*
G02*
X40300000Y-66075000I0J75000D01*
G01*
G37*
G36*
G01*
X39800000Y-66075000D02*
X39800000Y-64675000D01*
G75*
G02*
X39875000Y-64600000I75000J0D01*
G01*
X40025000Y-64600000D01*
G75*
G02*
X40100000Y-64675000I0J-75000D01*
G01*
X40100000Y-66075000D01*
G75*
G02*
X40025000Y-66150000I-75000J0D01*
G01*
X39875000Y-66150000D01*
G75*
G02*
X39800000Y-66075000I0J75000D01*
G01*
G37*
G36*
G01*
X39300000Y-66075000D02*
X39300000Y-64675000D01*
G75*
G02*
X39375000Y-64600000I75000J0D01*
G01*
X39525000Y-64600000D01*
G75*
G02*
X39600000Y-64675000I0J-75000D01*
G01*
X39600000Y-66075000D01*
G75*
G02*
X39525000Y-66150000I-75000J0D01*
G01*
X39375000Y-66150000D01*
G75*
G02*
X39300000Y-66075000I0J75000D01*
G01*
G37*
G36*
G01*
X38800000Y-66075000D02*
X38800000Y-64675000D01*
G75*
G02*
X38875000Y-64600000I75000J0D01*
G01*
X39025000Y-64600000D01*
G75*
G02*
X39100000Y-64675000I0J-75000D01*
G01*
X39100000Y-66075000D01*
G75*
G02*
X39025000Y-66150000I-75000J0D01*
G01*
X38875000Y-66150000D01*
G75*
G02*
X38800000Y-66075000I0J75000D01*
G01*
G37*
G36*
G01*
X38300000Y-66075000D02*
X38300000Y-64675000D01*
G75*
G02*
X38375000Y-64600000I75000J0D01*
G01*
X38525000Y-64600000D01*
G75*
G02*
X38600000Y-64675000I0J-75000D01*
G01*
X38600000Y-66075000D01*
G75*
G02*
X38525000Y-66150000I-75000J0D01*
G01*
X38375000Y-66150000D01*
G75*
G02*
X38300000Y-66075000I0J75000D01*
G01*
G37*
G36*
G01*
X35750000Y-63525000D02*
X35750000Y-63375000D01*
G75*
G02*
X35825000Y-63300000I75000J0D01*
G01*
X37225000Y-63300000D01*
G75*
G02*
X37300000Y-63375000I0J-75000D01*
G01*
X37300000Y-63525000D01*
G75*
G02*
X37225000Y-63600000I-75000J0D01*
G01*
X35825000Y-63600000D01*
G75*
G02*
X35750000Y-63525000I0J75000D01*
G01*
G37*
G36*
G01*
X35750000Y-63025000D02*
X35750000Y-62875000D01*
G75*
G02*
X35825000Y-62800000I75000J0D01*
G01*
X37225000Y-62800000D01*
G75*
G02*
X37300000Y-62875000I0J-75000D01*
G01*
X37300000Y-63025000D01*
G75*
G02*
X37225000Y-63100000I-75000J0D01*
G01*
X35825000Y-63100000D01*
G75*
G02*
X35750000Y-63025000I0J75000D01*
G01*
G37*
G36*
G01*
X35750000Y-62525000D02*
X35750000Y-62375000D01*
G75*
G02*
X35825000Y-62300000I75000J0D01*
G01*
X37225000Y-62300000D01*
G75*
G02*
X37300000Y-62375000I0J-75000D01*
G01*
X37300000Y-62525000D01*
G75*
G02*
X37225000Y-62600000I-75000J0D01*
G01*
X35825000Y-62600000D01*
G75*
G02*
X35750000Y-62525000I0J75000D01*
G01*
G37*
G36*
G01*
X35750000Y-62025000D02*
X35750000Y-61875000D01*
G75*
G02*
X35825000Y-61800000I75000J0D01*
G01*
X37225000Y-61800000D01*
G75*
G02*
X37300000Y-61875000I0J-75000D01*
G01*
X37300000Y-62025000D01*
G75*
G02*
X37225000Y-62100000I-75000J0D01*
G01*
X35825000Y-62100000D01*
G75*
G02*
X35750000Y-62025000I0J75000D01*
G01*
G37*
G36*
G01*
X35750000Y-61525000D02*
X35750000Y-61375000D01*
G75*
G02*
X35825000Y-61300000I75000J0D01*
G01*
X37225000Y-61300000D01*
G75*
G02*
X37300000Y-61375000I0J-75000D01*
G01*
X37300000Y-61525000D01*
G75*
G02*
X37225000Y-61600000I-75000J0D01*
G01*
X35825000Y-61600000D01*
G75*
G02*
X35750000Y-61525000I0J75000D01*
G01*
G37*
G36*
G01*
X35750000Y-61025000D02*
X35750000Y-60875000D01*
G75*
G02*
X35825000Y-60800000I75000J0D01*
G01*
X37225000Y-60800000D01*
G75*
G02*
X37300000Y-60875000I0J-75000D01*
G01*
X37300000Y-61025000D01*
G75*
G02*
X37225000Y-61100000I-75000J0D01*
G01*
X35825000Y-61100000D01*
G75*
G02*
X35750000Y-61025000I0J75000D01*
G01*
G37*
G36*
G01*
X35750000Y-60525000D02*
X35750000Y-60375000D01*
G75*
G02*
X35825000Y-60300000I75000J0D01*
G01*
X37225000Y-60300000D01*
G75*
G02*
X37300000Y-60375000I0J-75000D01*
G01*
X37300000Y-60525000D01*
G75*
G02*
X37225000Y-60600000I-75000J0D01*
G01*
X35825000Y-60600000D01*
G75*
G02*
X35750000Y-60525000I0J75000D01*
G01*
G37*
G36*
G01*
X35750000Y-60025000D02*
X35750000Y-59875000D01*
G75*
G02*
X35825000Y-59800000I75000J0D01*
G01*
X37225000Y-59800000D01*
G75*
G02*
X37300000Y-59875000I0J-75000D01*
G01*
X37300000Y-60025000D01*
G75*
G02*
X37225000Y-60100000I-75000J0D01*
G01*
X35825000Y-60100000D01*
G75*
G02*
X35750000Y-60025000I0J75000D01*
G01*
G37*
G36*
G01*
X35750000Y-59525000D02*
X35750000Y-59375000D01*
G75*
G02*
X35825000Y-59300000I75000J0D01*
G01*
X37225000Y-59300000D01*
G75*
G02*
X37300000Y-59375000I0J-75000D01*
G01*
X37300000Y-59525000D01*
G75*
G02*
X37225000Y-59600000I-75000J0D01*
G01*
X35825000Y-59600000D01*
G75*
G02*
X35750000Y-59525000I0J75000D01*
G01*
G37*
G36*
G01*
X35750000Y-59025000D02*
X35750000Y-58875000D01*
G75*
G02*
X35825000Y-58800000I75000J0D01*
G01*
X37225000Y-58800000D01*
G75*
G02*
X37300000Y-58875000I0J-75000D01*
G01*
X37300000Y-59025000D01*
G75*
G02*
X37225000Y-59100000I-75000J0D01*
G01*
X35825000Y-59100000D01*
G75*
G02*
X35750000Y-59025000I0J75000D01*
G01*
G37*
G36*
G01*
X35750000Y-58525000D02*
X35750000Y-58375000D01*
G75*
G02*
X35825000Y-58300000I75000J0D01*
G01*
X37225000Y-58300000D01*
G75*
G02*
X37300000Y-58375000I0J-75000D01*
G01*
X37300000Y-58525000D01*
G75*
G02*
X37225000Y-58600000I-75000J0D01*
G01*
X35825000Y-58600000D01*
G75*
G02*
X35750000Y-58525000I0J75000D01*
G01*
G37*
G36*
G01*
X35750000Y-58025000D02*
X35750000Y-57875000D01*
G75*
G02*
X35825000Y-57800000I75000J0D01*
G01*
X37225000Y-57800000D01*
G75*
G02*
X37300000Y-57875000I0J-75000D01*
G01*
X37300000Y-58025000D01*
G75*
G02*
X37225000Y-58100000I-75000J0D01*
G01*
X35825000Y-58100000D01*
G75*
G02*
X35750000Y-58025000I0J75000D01*
G01*
G37*
G36*
G01*
X35750000Y-57525000D02*
X35750000Y-57375000D01*
G75*
G02*
X35825000Y-57300000I75000J0D01*
G01*
X37225000Y-57300000D01*
G75*
G02*
X37300000Y-57375000I0J-75000D01*
G01*
X37300000Y-57525000D01*
G75*
G02*
X37225000Y-57600000I-75000J0D01*
G01*
X35825000Y-57600000D01*
G75*
G02*
X35750000Y-57525000I0J75000D01*
G01*
G37*
G36*
G01*
X35750000Y-57025000D02*
X35750000Y-56875000D01*
G75*
G02*
X35825000Y-56800000I75000J0D01*
G01*
X37225000Y-56800000D01*
G75*
G02*
X37300000Y-56875000I0J-75000D01*
G01*
X37300000Y-57025000D01*
G75*
G02*
X37225000Y-57100000I-75000J0D01*
G01*
X35825000Y-57100000D01*
G75*
G02*
X35750000Y-57025000I0J75000D01*
G01*
G37*
G36*
G01*
X35750000Y-56525000D02*
X35750000Y-56375000D01*
G75*
G02*
X35825000Y-56300000I75000J0D01*
G01*
X37225000Y-56300000D01*
G75*
G02*
X37300000Y-56375000I0J-75000D01*
G01*
X37300000Y-56525000D01*
G75*
G02*
X37225000Y-56600000I-75000J0D01*
G01*
X35825000Y-56600000D01*
G75*
G02*
X35750000Y-56525000I0J75000D01*
G01*
G37*
G36*
G01*
X35750000Y-56025000D02*
X35750000Y-55875000D01*
G75*
G02*
X35825000Y-55800000I75000J0D01*
G01*
X37225000Y-55800000D01*
G75*
G02*
X37300000Y-55875000I0J-75000D01*
G01*
X37300000Y-56025000D01*
G75*
G02*
X37225000Y-56100000I-75000J0D01*
G01*
X35825000Y-56100000D01*
G75*
G02*
X35750000Y-56025000I0J75000D01*
G01*
G37*
%TD*%
D13*
%TO.C,SW2*%
X65600000Y-51350000D03*
X65600000Y-55050000D03*
X59600000Y-55050000D03*
X59600000Y-51350000D03*
%TD*%
%TO.C,R23*%
G36*
G01*
X25550001Y-57450000D02*
X24649999Y-57450000D01*
G75*
G02*
X24400000Y-57200001I0J249999D01*
G01*
X24400000Y-56549999D01*
G75*
G02*
X24649999Y-56300000I249999J0D01*
G01*
X25550001Y-56300000D01*
G75*
G02*
X25800000Y-56549999I0J-249999D01*
G01*
X25800000Y-57200001D01*
G75*
G02*
X25550001Y-57450000I-249999J0D01*
G01*
G37*
G36*
G01*
X25550001Y-59500000D02*
X24649999Y-59500000D01*
G75*
G02*
X24400000Y-59250001I0J249999D01*
G01*
X24400000Y-58599999D01*
G75*
G02*
X24649999Y-58350000I249999J0D01*
G01*
X25550001Y-58350000D01*
G75*
G02*
X25800000Y-58599999I0J-249999D01*
G01*
X25800000Y-59250001D01*
G75*
G02*
X25550001Y-59500000I-249999J0D01*
G01*
G37*
%TD*%
%TO.C,R21*%
G36*
G01*
X38400000Y-39256250D02*
X38400000Y-38343750D01*
G75*
G02*
X38643750Y-38100000I243750J0D01*
G01*
X39131250Y-38100000D01*
G75*
G02*
X39375000Y-38343750I0J-243750D01*
G01*
X39375000Y-39256250D01*
G75*
G02*
X39131250Y-39500000I-243750J0D01*
G01*
X38643750Y-39500000D01*
G75*
G02*
X38400000Y-39256250I0J243750D01*
G01*
G37*
G36*
G01*
X36525000Y-39256250D02*
X36525000Y-38343750D01*
G75*
G02*
X36768750Y-38100000I243750J0D01*
G01*
X37256250Y-38100000D01*
G75*
G02*
X37500000Y-38343750I0J-243750D01*
G01*
X37500000Y-39256250D01*
G75*
G02*
X37256250Y-39500000I-243750J0D01*
G01*
X36768750Y-39500000D01*
G75*
G02*
X36525000Y-39256250I0J243750D01*
G01*
G37*
%TD*%
%TO.C,R20*%
G36*
G01*
X36493750Y-42000000D02*
X37406250Y-42000000D01*
G75*
G02*
X37650000Y-42243750I0J-243750D01*
G01*
X37650000Y-42731250D01*
G75*
G02*
X37406250Y-42975000I-243750J0D01*
G01*
X36493750Y-42975000D01*
G75*
G02*
X36250000Y-42731250I0J243750D01*
G01*
X36250000Y-42243750D01*
G75*
G02*
X36493750Y-42000000I243750J0D01*
G01*
G37*
G36*
G01*
X36493750Y-40125000D02*
X37406250Y-40125000D01*
G75*
G02*
X37650000Y-40368750I0J-243750D01*
G01*
X37650000Y-40856250D01*
G75*
G02*
X37406250Y-41100000I-243750J0D01*
G01*
X36493750Y-41100000D01*
G75*
G02*
X36250000Y-40856250I0J243750D01*
G01*
X36250000Y-40368750D01*
G75*
G02*
X36493750Y-40125000I243750J0D01*
G01*
G37*
%TD*%
%TO.C,R18*%
G36*
G01*
X33993750Y-41950000D02*
X34906250Y-41950000D01*
G75*
G02*
X35150000Y-42193750I0J-243750D01*
G01*
X35150000Y-42681250D01*
G75*
G02*
X34906250Y-42925000I-243750J0D01*
G01*
X33993750Y-42925000D01*
G75*
G02*
X33750000Y-42681250I0J243750D01*
G01*
X33750000Y-42193750D01*
G75*
G02*
X33993750Y-41950000I243750J0D01*
G01*
G37*
G36*
G01*
X33993750Y-40075000D02*
X34906250Y-40075000D01*
G75*
G02*
X35150000Y-40318750I0J-243750D01*
G01*
X35150000Y-40806250D01*
G75*
G02*
X34906250Y-41050000I-243750J0D01*
G01*
X33993750Y-41050000D01*
G75*
G02*
X33750000Y-40806250I0J243750D01*
G01*
X33750000Y-40318750D01*
G75*
G02*
X33993750Y-40075000I243750J0D01*
G01*
G37*
%TD*%
%TO.C,R9*%
G36*
G01*
X16356250Y-72750000D02*
X15443750Y-72750000D01*
G75*
G02*
X15200000Y-72506250I0J243750D01*
G01*
X15200000Y-72018750D01*
G75*
G02*
X15443750Y-71775000I243750J0D01*
G01*
X16356250Y-71775000D01*
G75*
G02*
X16600000Y-72018750I0J-243750D01*
G01*
X16600000Y-72506250D01*
G75*
G02*
X16356250Y-72750000I-243750J0D01*
G01*
G37*
G36*
G01*
X16356250Y-74625000D02*
X15443750Y-74625000D01*
G75*
G02*
X15200000Y-74381250I0J243750D01*
G01*
X15200000Y-73893750D01*
G75*
G02*
X15443750Y-73650000I243750J0D01*
G01*
X16356250Y-73650000D01*
G75*
G02*
X16600000Y-73893750I0J-243750D01*
G01*
X16600000Y-74381250D01*
G75*
G02*
X16356250Y-74625000I-243750J0D01*
G01*
G37*
%TD*%
%TO.C,R8*%
G36*
G01*
X18856250Y-72837500D02*
X17943750Y-72837500D01*
G75*
G02*
X17700000Y-72593750I0J243750D01*
G01*
X17700000Y-72106250D01*
G75*
G02*
X17943750Y-71862500I243750J0D01*
G01*
X18856250Y-71862500D01*
G75*
G02*
X19100000Y-72106250I0J-243750D01*
G01*
X19100000Y-72593750D01*
G75*
G02*
X18856250Y-72837500I-243750J0D01*
G01*
G37*
G36*
G01*
X18856250Y-74712500D02*
X17943750Y-74712500D01*
G75*
G02*
X17700000Y-74468750I0J243750D01*
G01*
X17700000Y-73981250D01*
G75*
G02*
X17943750Y-73737500I243750J0D01*
G01*
X18856250Y-73737500D01*
G75*
G02*
X19100000Y-73981250I0J-243750D01*
G01*
X19100000Y-74468750D01*
G75*
G02*
X18856250Y-74712500I-243750J0D01*
G01*
G37*
%TD*%
%TO.C,R7*%
G36*
G01*
X34556250Y-58912500D02*
X33643750Y-58912500D01*
G75*
G02*
X33400000Y-58668750I0J243750D01*
G01*
X33400000Y-58181250D01*
G75*
G02*
X33643750Y-57937500I243750J0D01*
G01*
X34556250Y-57937500D01*
G75*
G02*
X34800000Y-58181250I0J-243750D01*
G01*
X34800000Y-58668750D01*
G75*
G02*
X34556250Y-58912500I-243750J0D01*
G01*
G37*
G36*
G01*
X34556250Y-60787500D02*
X33643750Y-60787500D01*
G75*
G02*
X33400000Y-60543750I0J243750D01*
G01*
X33400000Y-60056250D01*
G75*
G02*
X33643750Y-59812500I243750J0D01*
G01*
X34556250Y-59812500D01*
G75*
G02*
X34800000Y-60056250I0J-243750D01*
G01*
X34800000Y-60543750D01*
G75*
G02*
X34556250Y-60787500I-243750J0D01*
G01*
G37*
%TD*%
%TO.C,R5*%
G36*
G01*
X22543750Y-96150000D02*
X23456250Y-96150000D01*
G75*
G02*
X23700000Y-96393750I0J-243750D01*
G01*
X23700000Y-96881250D01*
G75*
G02*
X23456250Y-97125000I-243750J0D01*
G01*
X22543750Y-97125000D01*
G75*
G02*
X22300000Y-96881250I0J243750D01*
G01*
X22300000Y-96393750D01*
G75*
G02*
X22543750Y-96150000I243750J0D01*
G01*
G37*
G36*
G01*
X22543750Y-94275000D02*
X23456250Y-94275000D01*
G75*
G02*
X23700000Y-94518750I0J-243750D01*
G01*
X23700000Y-95006250D01*
G75*
G02*
X23456250Y-95250000I-243750J0D01*
G01*
X22543750Y-95250000D01*
G75*
G02*
X22300000Y-95006250I0J243750D01*
G01*
X22300000Y-94518750D01*
G75*
G02*
X22543750Y-94275000I243750J0D01*
G01*
G37*
%TD*%
%TO.C,R4*%
G36*
G01*
X25543750Y-96150000D02*
X26456250Y-96150000D01*
G75*
G02*
X26700000Y-96393750I0J-243750D01*
G01*
X26700000Y-96881250D01*
G75*
G02*
X26456250Y-97125000I-243750J0D01*
G01*
X25543750Y-97125000D01*
G75*
G02*
X25300000Y-96881250I0J243750D01*
G01*
X25300000Y-96393750D01*
G75*
G02*
X25543750Y-96150000I243750J0D01*
G01*
G37*
G36*
G01*
X25543750Y-94275000D02*
X26456250Y-94275000D01*
G75*
G02*
X26700000Y-94518750I0J-243750D01*
G01*
X26700000Y-95006250D01*
G75*
G02*
X26456250Y-95250000I-243750J0D01*
G01*
X25543750Y-95250000D01*
G75*
G02*
X25300000Y-95006250I0J243750D01*
G01*
X25300000Y-94518750D01*
G75*
G02*
X25543750Y-94275000I243750J0D01*
G01*
G37*
%TD*%
%TO.C,R2*%
G36*
G01*
X28543750Y-96150000D02*
X29456250Y-96150000D01*
G75*
G02*
X29700000Y-96393750I0J-243750D01*
G01*
X29700000Y-96881250D01*
G75*
G02*
X29456250Y-97125000I-243750J0D01*
G01*
X28543750Y-97125000D01*
G75*
G02*
X28300000Y-96881250I0J243750D01*
G01*
X28300000Y-96393750D01*
G75*
G02*
X28543750Y-96150000I243750J0D01*
G01*
G37*
G36*
G01*
X28543750Y-94275000D02*
X29456250Y-94275000D01*
G75*
G02*
X29700000Y-94518750I0J-243750D01*
G01*
X29700000Y-95006250D01*
G75*
G02*
X29456250Y-95250000I-243750J0D01*
G01*
X28543750Y-95250000D01*
G75*
G02*
X28300000Y-95006250I0J243750D01*
G01*
X28300000Y-94518750D01*
G75*
G02*
X28543750Y-94275000I243750J0D01*
G01*
G37*
%TD*%
%TO.C,R1*%
G36*
G01*
X31543750Y-96150000D02*
X32456250Y-96150000D01*
G75*
G02*
X32700000Y-96393750I0J-243750D01*
G01*
X32700000Y-96881250D01*
G75*
G02*
X32456250Y-97125000I-243750J0D01*
G01*
X31543750Y-97125000D01*
G75*
G02*
X31300000Y-96881250I0J243750D01*
G01*
X31300000Y-96393750D01*
G75*
G02*
X31543750Y-96150000I243750J0D01*
G01*
G37*
G36*
G01*
X31543750Y-94275000D02*
X32456250Y-94275000D01*
G75*
G02*
X32700000Y-94518750I0J-243750D01*
G01*
X32700000Y-95006250D01*
G75*
G02*
X32456250Y-95250000I-243750J0D01*
G01*
X31543750Y-95250000D01*
G75*
G02*
X31300000Y-95006250I0J243750D01*
G01*
X31300000Y-94518750D01*
G75*
G02*
X31543750Y-94275000I243750J0D01*
G01*
G37*
%TD*%
%TO.C,C36*%
G36*
G01*
X30550000Y-90250001D02*
X30550000Y-89349999D01*
G75*
G02*
X30799999Y-89100000I249999J0D01*
G01*
X31450001Y-89100000D01*
G75*
G02*
X31700000Y-89349999I0J-249999D01*
G01*
X31700000Y-90250001D01*
G75*
G02*
X31450001Y-90500000I-249999J0D01*
G01*
X30799999Y-90500000D01*
G75*
G02*
X30550000Y-90250001I0J249999D01*
G01*
G37*
G36*
G01*
X28500000Y-90250001D02*
X28500000Y-89349999D01*
G75*
G02*
X28749999Y-89100000I249999J0D01*
G01*
X29400001Y-89100000D01*
G75*
G02*
X29650000Y-89349999I0J-249999D01*
G01*
X29650000Y-90250001D01*
G75*
G02*
X29400001Y-90500000I-249999J0D01*
G01*
X28749999Y-90500000D01*
G75*
G02*
X28500000Y-90250001I0J249999D01*
G01*
G37*
%TD*%
%TO.C,C33*%
G36*
G01*
X14750000Y-63850001D02*
X14750000Y-62949999D01*
G75*
G02*
X14999999Y-62700000I249999J0D01*
G01*
X15650001Y-62700000D01*
G75*
G02*
X15900000Y-62949999I0J-249999D01*
G01*
X15900000Y-63850001D01*
G75*
G02*
X15650001Y-64100000I-249999J0D01*
G01*
X14999999Y-64100000D01*
G75*
G02*
X14750000Y-63850001I0J249999D01*
G01*
G37*
G36*
G01*
X12700000Y-63850001D02*
X12700000Y-62949999D01*
G75*
G02*
X12949999Y-62700000I249999J0D01*
G01*
X13600001Y-62700000D01*
G75*
G02*
X13850000Y-62949999I0J-249999D01*
G01*
X13850000Y-63850001D01*
G75*
G02*
X13600001Y-64100000I-249999J0D01*
G01*
X12949999Y-64100000D01*
G75*
G02*
X12700000Y-63850001I0J249999D01*
G01*
G37*
%TD*%
%TO.C,C30*%
G36*
G01*
X39050000Y-51850001D02*
X39050000Y-50949999D01*
G75*
G02*
X39299999Y-50700000I249999J0D01*
G01*
X39950001Y-50700000D01*
G75*
G02*
X40200000Y-50949999I0J-249999D01*
G01*
X40200000Y-51850001D01*
G75*
G02*
X39950001Y-52100000I-249999J0D01*
G01*
X39299999Y-52100000D01*
G75*
G02*
X39050000Y-51850001I0J249999D01*
G01*
G37*
G36*
G01*
X37000000Y-51850001D02*
X37000000Y-50949999D01*
G75*
G02*
X37249999Y-50700000I249999J0D01*
G01*
X37900001Y-50700000D01*
G75*
G02*
X38150000Y-50949999I0J-249999D01*
G01*
X38150000Y-51850001D01*
G75*
G02*
X37900001Y-52100000I-249999J0D01*
G01*
X37249999Y-52100000D01*
G75*
G02*
X37000000Y-51850001I0J249999D01*
G01*
G37*
%TD*%
%TO.C,C29*%
G36*
G01*
X35075000Y-66550001D02*
X35075000Y-65649999D01*
G75*
G02*
X35324999Y-65400000I249999J0D01*
G01*
X35975001Y-65400000D01*
G75*
G02*
X36225000Y-65649999I0J-249999D01*
G01*
X36225000Y-66550001D01*
G75*
G02*
X35975001Y-66800000I-249999J0D01*
G01*
X35324999Y-66800000D01*
G75*
G02*
X35075000Y-66550001I0J249999D01*
G01*
G37*
G36*
G01*
X33025000Y-66550001D02*
X33025000Y-65649999D01*
G75*
G02*
X33274999Y-65400000I249999J0D01*
G01*
X33925001Y-65400000D01*
G75*
G02*
X34175000Y-65649999I0J-249999D01*
G01*
X34175000Y-66550001D01*
G75*
G02*
X33925001Y-66800000I-249999J0D01*
G01*
X33274999Y-66800000D01*
G75*
G02*
X33025000Y-66550001I0J249999D01*
G01*
G37*
%TD*%
%TO.C,C28*%
G36*
G01*
X11400000Y-73599999D02*
X11400000Y-74500001D01*
G75*
G02*
X11150001Y-74750000I-249999J0D01*
G01*
X10499999Y-74750000D01*
G75*
G02*
X10250000Y-74500001I0J249999D01*
G01*
X10250000Y-73599999D01*
G75*
G02*
X10499999Y-73350000I249999J0D01*
G01*
X11150001Y-73350000D01*
G75*
G02*
X11400000Y-73599999I0J-249999D01*
G01*
G37*
G36*
G01*
X13450000Y-73599999D02*
X13450000Y-74500001D01*
G75*
G02*
X13200001Y-74750000I-249999J0D01*
G01*
X12549999Y-74750000D01*
G75*
G02*
X12300000Y-74500001I0J249999D01*
G01*
X12300000Y-73599999D01*
G75*
G02*
X12549999Y-73350000I249999J0D01*
G01*
X13200001Y-73350000D01*
G75*
G02*
X13450000Y-73599999I0J-249999D01*
G01*
G37*
%TD*%
%TO.C,C27*%
G36*
G01*
X50849999Y-56150000D02*
X51750001Y-56150000D01*
G75*
G02*
X52000000Y-56399999I0J-249999D01*
G01*
X52000000Y-57050001D01*
G75*
G02*
X51750001Y-57300000I-249999J0D01*
G01*
X50849999Y-57300000D01*
G75*
G02*
X50600000Y-57050001I0J249999D01*
G01*
X50600000Y-56399999D01*
G75*
G02*
X50849999Y-56150000I249999J0D01*
G01*
G37*
G36*
G01*
X50849999Y-54100000D02*
X51750001Y-54100000D01*
G75*
G02*
X52000000Y-54349999I0J-249999D01*
G01*
X52000000Y-55000001D01*
G75*
G02*
X51750001Y-55250000I-249999J0D01*
G01*
X50849999Y-55250000D01*
G75*
G02*
X50600000Y-55000001I0J249999D01*
G01*
X50600000Y-54349999D01*
G75*
G02*
X50849999Y-54100000I249999J0D01*
G01*
G37*
%TD*%
%TO.C,C25*%
G36*
G01*
X1850001Y-38750000D02*
X949999Y-38750000D01*
G75*
G02*
X700000Y-38500001I0J249999D01*
G01*
X700000Y-37849999D01*
G75*
G02*
X949999Y-37600000I249999J0D01*
G01*
X1850001Y-37600000D01*
G75*
G02*
X2100000Y-37849999I0J-249999D01*
G01*
X2100000Y-38500001D01*
G75*
G02*
X1850001Y-38750000I-249999J0D01*
G01*
G37*
G36*
G01*
X1850001Y-40800000D02*
X949999Y-40800000D01*
G75*
G02*
X700000Y-40550001I0J249999D01*
G01*
X700000Y-39899999D01*
G75*
G02*
X949999Y-39650000I249999J0D01*
G01*
X1850001Y-39650000D01*
G75*
G02*
X2100000Y-39899999I0J-249999D01*
G01*
X2100000Y-40550001D01*
G75*
G02*
X1850001Y-40800000I-249999J0D01*
G01*
G37*
%TD*%
%TO.C,C24*%
G36*
G01*
X67099999Y-53250000D02*
X68000001Y-53250000D01*
G75*
G02*
X68250000Y-53499999I0J-249999D01*
G01*
X68250000Y-54150001D01*
G75*
G02*
X68000001Y-54400000I-249999J0D01*
G01*
X67099999Y-54400000D01*
G75*
G02*
X66850000Y-54150001I0J249999D01*
G01*
X66850000Y-53499999D01*
G75*
G02*
X67099999Y-53250000I249999J0D01*
G01*
G37*
G36*
G01*
X67099999Y-51200000D02*
X68000001Y-51200000D01*
G75*
G02*
X68250000Y-51449999I0J-249999D01*
G01*
X68250000Y-52100001D01*
G75*
G02*
X68000001Y-52350000I-249999J0D01*
G01*
X67099999Y-52350000D01*
G75*
G02*
X66850000Y-52100001I0J249999D01*
G01*
X66850000Y-51449999D01*
G75*
G02*
X67099999Y-51200000I249999J0D01*
G01*
G37*
%TD*%
%TO.C,C23*%
G36*
G01*
X26649999Y-60450000D02*
X27550001Y-60450000D01*
G75*
G02*
X27800000Y-60699999I0J-249999D01*
G01*
X27800000Y-61350001D01*
G75*
G02*
X27550001Y-61600000I-249999J0D01*
G01*
X26649999Y-61600000D01*
G75*
G02*
X26400000Y-61350001I0J249999D01*
G01*
X26400000Y-60699999D01*
G75*
G02*
X26649999Y-60450000I249999J0D01*
G01*
G37*
G36*
G01*
X26649999Y-58400000D02*
X27550001Y-58400000D01*
G75*
G02*
X27800000Y-58649999I0J-249999D01*
G01*
X27800000Y-59300001D01*
G75*
G02*
X27550001Y-59550000I-249999J0D01*
G01*
X26649999Y-59550000D01*
G75*
G02*
X26400000Y-59300001I0J249999D01*
G01*
X26400000Y-58649999D01*
G75*
G02*
X26649999Y-58400000I249999J0D01*
G01*
G37*
%TD*%
%TO.C,C22*%
G36*
G01*
X49200000Y-39900001D02*
X49200000Y-38999999D01*
G75*
G02*
X49449999Y-38750000I249999J0D01*
G01*
X50100001Y-38750000D01*
G75*
G02*
X50350000Y-38999999I0J-249999D01*
G01*
X50350000Y-39900001D01*
G75*
G02*
X50100001Y-40150000I-249999J0D01*
G01*
X49449999Y-40150000D01*
G75*
G02*
X49200000Y-39900001I0J249999D01*
G01*
G37*
G36*
G01*
X47150000Y-39900001D02*
X47150000Y-38999999D01*
G75*
G02*
X47399999Y-38750000I249999J0D01*
G01*
X48050001Y-38750000D01*
G75*
G02*
X48300000Y-38999999I0J-249999D01*
G01*
X48300000Y-39900001D01*
G75*
G02*
X48050001Y-40150000I-249999J0D01*
G01*
X47399999Y-40150000D01*
G75*
G02*
X47150000Y-39900001I0J249999D01*
G01*
G37*
%TD*%
%TO.C,C21*%
G36*
G01*
X27550001Y-55350000D02*
X26649999Y-55350000D01*
G75*
G02*
X26400000Y-55100001I0J249999D01*
G01*
X26400000Y-54449999D01*
G75*
G02*
X26649999Y-54200000I249999J0D01*
G01*
X27550001Y-54200000D01*
G75*
G02*
X27800000Y-54449999I0J-249999D01*
G01*
X27800000Y-55100001D01*
G75*
G02*
X27550001Y-55350000I-249999J0D01*
G01*
G37*
G36*
G01*
X27550001Y-57400000D02*
X26649999Y-57400000D01*
G75*
G02*
X26400000Y-57150001I0J249999D01*
G01*
X26400000Y-56499999D01*
G75*
G02*
X26649999Y-56250000I249999J0D01*
G01*
X27550001Y-56250000D01*
G75*
G02*
X27800000Y-56499999I0J-249999D01*
G01*
X27800000Y-57150001D01*
G75*
G02*
X27550001Y-57400000I-249999J0D01*
G01*
G37*
%TD*%
%TO.C,C20*%
G36*
G01*
X45200001Y-37750000D02*
X44299999Y-37750000D01*
G75*
G02*
X44050000Y-37500001I0J249999D01*
G01*
X44050000Y-36849999D01*
G75*
G02*
X44299999Y-36600000I249999J0D01*
G01*
X45200001Y-36600000D01*
G75*
G02*
X45450000Y-36849999I0J-249999D01*
G01*
X45450000Y-37500001D01*
G75*
G02*
X45200001Y-37750000I-249999J0D01*
G01*
G37*
G36*
G01*
X45200001Y-39800000D02*
X44299999Y-39800000D01*
G75*
G02*
X44050000Y-39550001I0J249999D01*
G01*
X44050000Y-38899999D01*
G75*
G02*
X44299999Y-38650000I249999J0D01*
G01*
X45200001Y-38650000D01*
G75*
G02*
X45450000Y-38899999I0J-249999D01*
G01*
X45450000Y-39550001D01*
G75*
G02*
X45200001Y-39800000I-249999J0D01*
G01*
G37*
%TD*%
M02*
