%TF.GenerationSoftware,KiCad,Pcbnew,5.1.6-c6e7f7d~86~ubuntu16.04.1*%
%TF.CreationDate,2021-01-12T06:27:11+00:00*%
%TF.ProjectId,fx502p-minimal-sd,66783530-3270-42d6-9d69-6e696d616c2d,rev?*%
%TF.SameCoordinates,Original*%
%TF.FileFunction,Paste,Bot*%
%TF.FilePolarity,Positive*%
%FSLAX46Y46*%
G04 Gerber Fmt 4.6, Leading zero omitted, Abs format (unit mm)*
G04 Created by KiCad (PCBNEW 5.1.6-c6e7f7d~86~ubuntu16.04.1) date 2021-01-12 06:27:11*
%MOMM*%
%LPD*%
G01*
G04 APERTURE LIST*
%ADD10R,1.000000X1.000000*%
G04 APERTURE END LIST*
%TO.C,R22*%
G36*
G01*
X57350001Y-51950000D02*
X56449999Y-51950000D01*
G75*
G02*
X56200000Y-51700001I0J249999D01*
G01*
X56200000Y-51049999D01*
G75*
G02*
X56449999Y-50800000I249999J0D01*
G01*
X57350001Y-50800000D01*
G75*
G02*
X57600000Y-51049999I0J-249999D01*
G01*
X57600000Y-51700001D01*
G75*
G02*
X57350001Y-51950000I-249999J0D01*
G01*
G37*
G36*
G01*
X57350001Y-54000000D02*
X56449999Y-54000000D01*
G75*
G02*
X56200000Y-53750001I0J249999D01*
G01*
X56200000Y-53099999D01*
G75*
G02*
X56449999Y-52850000I249999J0D01*
G01*
X57350001Y-52850000D01*
G75*
G02*
X57600000Y-53099999I0J-249999D01*
G01*
X57600000Y-53750001D01*
G75*
G02*
X57350001Y-54000000I-249999J0D01*
G01*
G37*
%TD*%
D10*
%TO.C,D1*%
X26950000Y-91500000D03*
X24450000Y-91500000D03*
%TD*%
%TO.C,R6*%
G36*
G01*
X24043750Y-96150000D02*
X24956250Y-96150000D01*
G75*
G02*
X25200000Y-96393750I0J-243750D01*
G01*
X25200000Y-96881250D01*
G75*
G02*
X24956250Y-97125000I-243750J0D01*
G01*
X24043750Y-97125000D01*
G75*
G02*
X23800000Y-96881250I0J243750D01*
G01*
X23800000Y-96393750D01*
G75*
G02*
X24043750Y-96150000I243750J0D01*
G01*
G37*
G36*
G01*
X24043750Y-94275000D02*
X24956250Y-94275000D01*
G75*
G02*
X25200000Y-94518750I0J-243750D01*
G01*
X25200000Y-95006250D01*
G75*
G02*
X24956250Y-95250000I-243750J0D01*
G01*
X24043750Y-95250000D01*
G75*
G02*
X23800000Y-95006250I0J243750D01*
G01*
X23800000Y-94518750D01*
G75*
G02*
X24043750Y-94275000I243750J0D01*
G01*
G37*
%TD*%
%TO.C,R3*%
G36*
G01*
X27043750Y-96150000D02*
X27956250Y-96150000D01*
G75*
G02*
X28200000Y-96393750I0J-243750D01*
G01*
X28200000Y-96881250D01*
G75*
G02*
X27956250Y-97125000I-243750J0D01*
G01*
X27043750Y-97125000D01*
G75*
G02*
X26800000Y-96881250I0J243750D01*
G01*
X26800000Y-96393750D01*
G75*
G02*
X27043750Y-96150000I243750J0D01*
G01*
G37*
G36*
G01*
X27043750Y-94275000D02*
X27956250Y-94275000D01*
G75*
G02*
X28200000Y-94518750I0J-243750D01*
G01*
X28200000Y-95006250D01*
G75*
G02*
X27956250Y-95250000I-243750J0D01*
G01*
X27043750Y-95250000D01*
G75*
G02*
X26800000Y-95006250I0J243750D01*
G01*
X26800000Y-94518750D01*
G75*
G02*
X27043750Y-94275000I243750J0D01*
G01*
G37*
%TD*%
%TO.C,C35*%
G36*
G01*
X52050000Y-65400001D02*
X52050000Y-64499999D01*
G75*
G02*
X52299999Y-64250000I249999J0D01*
G01*
X52950001Y-64250000D01*
G75*
G02*
X53200000Y-64499999I0J-249999D01*
G01*
X53200000Y-65400001D01*
G75*
G02*
X52950001Y-65650000I-249999J0D01*
G01*
X52299999Y-65650000D01*
G75*
G02*
X52050000Y-65400001I0J249999D01*
G01*
G37*
G36*
G01*
X50000000Y-65400001D02*
X50000000Y-64499999D01*
G75*
G02*
X50249999Y-64250000I249999J0D01*
G01*
X50900001Y-64250000D01*
G75*
G02*
X51150000Y-64499999I0J-249999D01*
G01*
X51150000Y-65400001D01*
G75*
G02*
X50900001Y-65650000I-249999J0D01*
G01*
X50249999Y-65650000D01*
G75*
G02*
X50000000Y-65400001I0J249999D01*
G01*
G37*
%TD*%
%TO.C,C34*%
G36*
G01*
X50175001Y-70785002D02*
X50175001Y-69885000D01*
G75*
G02*
X50425000Y-69635001I249999J0D01*
G01*
X51075002Y-69635001D01*
G75*
G02*
X51325001Y-69885000I0J-249999D01*
G01*
X51325001Y-70785002D01*
G75*
G02*
X51075002Y-71035001I-249999J0D01*
G01*
X50425000Y-71035001D01*
G75*
G02*
X50175001Y-70785002I0J249999D01*
G01*
G37*
G36*
G01*
X48125001Y-70785002D02*
X48125001Y-69885000D01*
G75*
G02*
X48375000Y-69635001I249999J0D01*
G01*
X49025002Y-69635001D01*
G75*
G02*
X49275001Y-69885000I0J-249999D01*
G01*
X49275001Y-70785002D01*
G75*
G02*
X49025002Y-71035001I-249999J0D01*
G01*
X48375000Y-71035001D01*
G75*
G02*
X48125001Y-70785002I0J249999D01*
G01*
G37*
%TD*%
%TO.C,C32*%
G36*
G01*
X45425001Y-62935002D02*
X45425001Y-62035000D01*
G75*
G02*
X45675000Y-61785001I249999J0D01*
G01*
X46325002Y-61785001D01*
G75*
G02*
X46575001Y-62035000I0J-249999D01*
G01*
X46575001Y-62935002D01*
G75*
G02*
X46325002Y-63185001I-249999J0D01*
G01*
X45675000Y-63185001D01*
G75*
G02*
X45425001Y-62935002I0J249999D01*
G01*
G37*
G36*
G01*
X43375001Y-62935002D02*
X43375001Y-62035000D01*
G75*
G02*
X43625000Y-61785001I249999J0D01*
G01*
X44275002Y-61785001D01*
G75*
G02*
X44525001Y-62035000I0J-249999D01*
G01*
X44525001Y-62935002D01*
G75*
G02*
X44275002Y-63185001I-249999J0D01*
G01*
X43625000Y-63185001D01*
G75*
G02*
X43375001Y-62935002I0J249999D01*
G01*
G37*
%TD*%
%TO.C,C31*%
G36*
G01*
X57750000Y-65750001D02*
X57750000Y-64849999D01*
G75*
G02*
X57999999Y-64600000I249999J0D01*
G01*
X58650001Y-64600000D01*
G75*
G02*
X58900000Y-64849999I0J-249999D01*
G01*
X58900000Y-65750001D01*
G75*
G02*
X58650001Y-66000000I-249999J0D01*
G01*
X57999999Y-66000000D01*
G75*
G02*
X57750000Y-65750001I0J249999D01*
G01*
G37*
G36*
G01*
X55700000Y-65750001D02*
X55700000Y-64849999D01*
G75*
G02*
X55949999Y-64600000I249999J0D01*
G01*
X56600001Y-64600000D01*
G75*
G02*
X56850000Y-64849999I0J-249999D01*
G01*
X56850000Y-65750001D01*
G75*
G02*
X56600001Y-66000000I-249999J0D01*
G01*
X55949999Y-66000000D01*
G75*
G02*
X55700000Y-65750001I0J249999D01*
G01*
G37*
%TD*%
%TO.C,C26*%
G36*
G01*
X42550000Y-58650001D02*
X42550000Y-57749999D01*
G75*
G02*
X42799999Y-57500000I249999J0D01*
G01*
X43450001Y-57500000D01*
G75*
G02*
X43700000Y-57749999I0J-249999D01*
G01*
X43700000Y-58650001D01*
G75*
G02*
X43450001Y-58900000I-249999J0D01*
G01*
X42799999Y-58900000D01*
G75*
G02*
X42550000Y-58650001I0J249999D01*
G01*
G37*
G36*
G01*
X40500000Y-58650001D02*
X40500000Y-57749999D01*
G75*
G02*
X40749999Y-57500000I249999J0D01*
G01*
X41400001Y-57500000D01*
G75*
G02*
X41650000Y-57749999I0J-249999D01*
G01*
X41650000Y-58650001D01*
G75*
G02*
X41400001Y-58900000I-249999J0D01*
G01*
X40749999Y-58900000D01*
G75*
G02*
X40500000Y-58650001I0J249999D01*
G01*
G37*
%TD*%
%TO.C,C19*%
G36*
G01*
X57550000Y-70650001D02*
X57550000Y-69749999D01*
G75*
G02*
X57799999Y-69500000I249999J0D01*
G01*
X58450001Y-69500000D01*
G75*
G02*
X58700000Y-69749999I0J-249999D01*
G01*
X58700000Y-70650001D01*
G75*
G02*
X58450001Y-70900000I-249999J0D01*
G01*
X57799999Y-70900000D01*
G75*
G02*
X57550000Y-70650001I0J249999D01*
G01*
G37*
G36*
G01*
X55500000Y-70650001D02*
X55500000Y-69749999D01*
G75*
G02*
X55749999Y-69500000I249999J0D01*
G01*
X56400001Y-69500000D01*
G75*
G02*
X56650000Y-69749999I0J-249999D01*
G01*
X56650000Y-70650001D01*
G75*
G02*
X56400001Y-70900000I-249999J0D01*
G01*
X55749999Y-70900000D01*
G75*
G02*
X55500000Y-70650001I0J249999D01*
G01*
G37*
%TD*%
M02*
